<svg width="1301" height="759" viewBox="0 0 1301 759" fill="none" xmlns="http://www.w3.org/2000/svg">
<path fill-rule="evenodd" clip-rule="evenodd" d="M219.53 188.975L204.036 199.548L377.861 312.146L343.64 335.694L194.162 238.958L182.291 231.732L182.026 232.142V231.571L164.729 221.042V297.729L225.976 340.121V528.012L232.569 532.419L267.678 555.973L287.737 568.743V540.578L287.731 540.577V476.076L311.761 491.937V551.578L329.059 539.749V503.354L343.602 512.953L395.573 476.688V400.413L395.601 400.372L395.573 400.353V400.312L395.542 400.333L378.025 388.579L395.573 376.335V313.356L395.591 313.328V303.166L389.551 299.262L389.698 299.205L219.53 188.975ZM270.434 443.934V536.923L243.274 518.769V331.388H243.21L243.386 331.134L182.026 288.664V251.708L343.935 356.488L378.276 332.858V367.312L362.616 378.24L362.501 378.163L362.302 378.459L343.328 391.699L272.667 345.144V404.619H272.676V410.452L343.92 456.852L378.276 433.211V467.666L343.332 492.049L270.434 443.934ZM343.607 412.596L362.807 399.199L380.216 410.879L343.655 436.037L289.974 401.075V377.26L343.607 412.596Z" fill="#933EFF"/>
<path d="M531.526 444.963C520.096 444.963 509.589 442.308 500.006 436.996C490.538 431.684 482.976 424.294 477.318 414.825C471.776 405.24 469.005 394.501 469.005 382.608C469.005 370.714 471.776 360.032 477.318 350.564C482.976 341.095 490.538 333.704 500.006 328.393C509.589 323.081 520.096 320.425 531.526 320.425C542.956 320.425 553.405 323.081 562.873 328.393C572.456 333.704 579.961 341.095 585.387 350.564C590.929 360.032 593.7 370.714 593.7 382.608C593.7 394.501 590.929 405.24 585.387 414.825C579.845 424.294 572.341 431.684 562.873 436.996C553.405 442.308 542.956 444.963 531.526 444.963ZM531.526 417.943C541.225 417.943 548.96 414.709 554.733 408.243C560.622 401.776 563.566 393.231 563.566 382.608C563.566 371.869 560.622 363.323 554.733 356.972C548.96 350.506 541.225 347.273 531.526 347.273C521.712 347.273 513.861 350.448 507.973 356.799C502.2 363.15 499.313 371.753 499.313 382.608C499.313 393.347 502.2 401.949 507.973 408.416C513.861 414.767 521.712 417.943 531.526 417.943Z" fill="white"/>
<path d="M639.791 360.783C642.678 356.28 646.661 352.642 651.741 349.871C656.821 347.099 662.767 345.714 669.579 345.714C677.546 345.714 684.762 347.735 691.228 351.776C697.694 355.818 702.774 361.591 706.468 369.097C710.278 376.603 712.184 385.321 712.184 395.252C712.184 405.183 710.278 413.959 706.468 421.58C702.774 429.086 697.694 434.917 691.228 439.074C684.762 443.116 677.546 445.137 669.579 445.137C662.883 445.137 656.937 443.751 651.741 440.98C646.661 438.208 642.678 434.629 639.791 430.241V489.825H610.176V347.099H639.791V360.783ZM682.049 395.252C682.049 387.862 679.971 382.088 675.814 377.931C671.773 373.658 666.751 371.522 660.747 371.522C654.859 371.522 649.836 373.658 645.68 377.931C641.639 382.203 639.618 388.035 639.618 395.425C639.618 402.816 641.639 408.647 645.68 412.919C649.836 417.192 654.859 419.328 660.747 419.328C666.635 419.328 671.658 417.192 675.814 412.919C679.971 408.531 682.049 402.642 682.049 395.252Z" fill="white"/>
<path d="M822.914 393.866C822.914 396.638 822.741 399.525 822.395 402.527H755.371C755.833 408.531 757.738 413.15 761.086 416.384C764.55 419.501 768.764 421.06 773.729 421.06C781.118 421.06 786.256 417.943 789.143 411.707H820.663C819.046 418.058 816.102 423.774 811.83 428.855C807.674 433.936 802.42 437.92 796.07 440.806C789.72 443.693 782.619 445.137 774.768 445.137C765.3 445.137 756.872 443.116 749.483 439.074C742.093 435.033 736.32 429.259 732.164 421.753C728.007 414.247 725.929 405.471 725.929 395.425C725.929 385.379 727.95 376.603 731.991 369.097C736.147 361.591 741.92 355.818 749.309 351.776C756.699 347.735 765.185 345.714 774.768 345.714C784.12 345.714 792.433 347.677 799.707 351.603C806.981 355.529 812.638 361.129 816.679 368.404C820.836 375.679 822.914 384.166 822.914 393.866ZM792.606 386.072C792.606 380.991 790.874 376.949 787.411 373.947C783.947 370.945 779.617 369.444 774.422 369.444C769.457 369.444 765.243 370.887 761.779 373.774C758.431 376.661 756.352 380.76 755.544 386.072H792.606Z" fill="white"/>
<path d="M897.421 346.06C908.736 346.06 917.742 349.755 924.439 357.146C931.251 364.42 934.657 374.467 934.657 387.284V443.751H905.215V391.268C905.215 384.802 903.541 379.778 900.192 376.199C896.844 372.619 892.341 370.829 886.684 370.829C881.026 370.829 876.523 372.619 873.175 376.199C869.827 379.778 868.153 384.802 868.153 391.268V443.751H838.538V347.099H868.153V359.917C871.154 355.644 875.196 352.296 880.276 349.871C885.356 347.33 891.071 346.06 897.421 346.06Z" fill="white"/>
<path d="M1042.7 322.157V345.887H1010.48V443.751H980.868V345.887H948.655V322.157H1042.7Z" fill="white"/>
<path d="M1136.71 322.157V345.887H1087.17V371.522H1124.24V394.559H1087.17V443.751H1057.56V322.157H1136.71Z" fill="white"/>
</svg>
