<svg width="1301" height="759" viewBox="0 0 1301 759" fill="none" xmlns="http://www.w3.org/2000/svg">
<path fill-rule="evenodd" clip-rule="evenodd" d="M219.725 189.25L204.231 199.823L378.056 312.421L343.835 335.969L194.357 239.233L182.486 232.007L182.221 232.417V231.846L164.923 221.317V298.004L226.171 340.396V528.287L232.763 532.694L267.873 556.248L287.932 569.018V540.853L287.926 540.852V476.351L311.956 492.212V551.853L329.253 540.024V503.629L343.797 513.228L395.768 476.963V400.688L395.795 400.647L395.768 400.628V400.587L395.737 400.608L378.22 388.854L395.768 376.61V313.631L395.786 313.603V303.441L389.745 299.537L389.893 299.48L219.725 189.25ZM270.628 444.209V537.199L243.468 519.044V331.664H243.405L243.58 331.409L182.221 288.939V251.983L344.13 356.763L378.47 333.133V367.587L362.81 378.515L362.695 378.438L362.497 378.734L343.523 391.974L272.862 345.419V404.894H272.871V410.727L344.115 457.127L378.47 433.486V467.941L343.527 492.324L270.628 444.209ZM343.801 412.871L363.002 399.474L380.41 411.154L343.85 436.312L290.168 401.35V377.535L343.801 412.871Z" fill="#933EFF"/>
<path d="M531.721 445.238C520.29 445.238 509.784 442.583 500.201 437.271C490.733 431.959 483.17 424.569 477.513 415.1C471.971 405.515 469.2 394.776 469.2 382.883C469.2 370.989 471.971 360.308 477.513 350.839C483.17 341.37 490.733 333.979 500.201 328.668C509.784 323.356 520.29 320.7 531.721 320.7C543.151 320.7 553.6 323.356 563.068 328.668C572.651 333.979 580.155 341.37 585.582 350.839C591.124 360.308 593.895 370.989 593.895 382.883C593.895 394.776 591.124 405.515 585.582 415.1C580.04 424.569 572.535 431.959 563.068 437.271C553.6 442.583 543.151 445.238 531.721 445.238ZM531.721 418.218C541.419 418.218 549.155 414.984 554.928 408.518C560.816 402.051 563.76 393.506 563.76 382.883C563.76 372.144 560.816 363.599 554.928 357.247C549.155 350.781 541.419 347.548 531.721 347.548C521.907 347.548 514.056 350.723 508.167 357.074C502.394 363.425 499.508 372.028 499.508 382.883C499.508 393.622 502.394 402.224 508.167 408.691C514.056 415.042 521.907 418.218 531.721 418.218Z" fill="white"/>
<path d="M639.986 361.058C642.872 356.555 646.856 352.917 651.936 350.146C657.016 347.374 662.962 345.989 669.774 345.989C677.741 345.989 684.957 348.01 691.422 352.051C697.888 356.093 702.968 361.866 706.663 369.372C710.473 376.878 712.378 385.596 712.378 395.527C712.378 405.458 710.473 414.234 706.663 421.855C702.968 429.361 697.888 435.192 691.422 439.349C684.957 443.391 677.741 445.412 669.774 445.412C663.077 445.412 657.131 444.026 651.936 441.255C646.856 438.483 642.872 434.904 639.986 430.516V490.1H610.371V347.374H639.986V361.058ZM682.244 395.527C682.244 388.137 680.165 382.363 676.009 378.206C671.968 373.933 666.945 371.797 660.941 371.797C655.053 371.797 650.031 373.933 645.874 378.206C641.833 382.478 639.813 388.31 639.813 395.7C639.813 403.091 641.833 408.922 645.874 413.194C650.031 417.467 655.053 419.603 660.941 419.603C666.83 419.603 671.852 417.467 676.009 413.194C680.165 408.806 682.244 402.917 682.244 395.527Z" fill="white"/>
<path d="M823.109 394.141C823.109 396.913 822.936 399.8 822.589 402.802H755.566C756.027 408.806 757.932 413.425 761.281 416.659C764.745 419.776 768.959 421.335 773.923 421.335C781.313 421.335 786.451 418.218 789.337 411.982H820.857C819.241 418.333 816.297 424.049 812.025 429.13C807.868 434.211 802.615 438.195 796.265 441.081C789.914 443.968 782.814 445.412 774.963 445.412C765.495 445.412 757.067 443.391 749.677 439.349C742.288 435.308 736.515 429.534 732.358 422.028C728.202 414.522 726.124 405.746 726.124 395.7C726.124 385.654 728.144 376.878 732.185 369.372C736.342 361.866 742.115 356.093 749.504 352.051C756.893 348.01 765.38 345.989 774.963 345.989C784.315 345.989 792.628 347.952 799.902 351.878C807.175 355.804 812.833 361.405 816.874 368.679C821.03 375.954 823.109 384.442 823.109 394.141ZM792.801 386.347C792.801 381.266 791.069 377.224 787.605 374.222C784.142 371.22 779.812 369.719 774.616 369.719C769.652 369.719 765.437 371.162 761.974 374.049C758.625 376.936 756.547 381.035 755.739 386.347H792.801Z" fill="white"/>
<path d="M897.616 346.335C908.931 346.335 917.936 350.03 924.633 357.421C931.445 364.696 934.851 374.742 934.851 387.559V444.026H905.409V391.543C905.409 385.077 903.735 380.054 900.387 376.474C897.039 372.894 892.536 371.104 886.878 371.104C881.221 371.104 876.718 372.894 873.37 376.474C870.021 380.054 868.347 385.077 868.347 391.543V444.026H838.732V347.374H868.347V360.192C871.349 355.92 875.39 352.571 880.47 350.146C885.55 347.605 891.266 346.335 897.616 346.335Z" fill="white"/>
<path d="M1042.89 322.432V346.162H1010.68V444.026H981.062V346.162H948.85V322.432H1042.89Z" fill="white"/>
<path d="M1136.9 322.432V346.162H1087.37V371.797H1124.43V394.834H1087.37V444.026H1057.75V322.432H1136.9Z" fill="white"/>
</svg>
