<svg width="1301" height="758" viewBox="0 0 1301 758" fill="none" xmlns="http://www.w3.org/2000/svg">
<path fill-rule="evenodd" clip-rule="evenodd" d="M258.21 206L244.124 215.612L402.147 317.974L371.037 339.381L235.148 251.439L224.356 244.87L224.115 245.243V244.724L208.39 235.152V304.867L264.07 343.405V514.216L270.069 518.226L301.98 539.634L320.216 551.243V525.639L320.211 525.638V467.001L342.056 481.42V535.639L357.781 524.885V491.799L371.003 500.525L418.249 467.557V398.216L418.274 398.179L418.249 398.162V398.124L418.221 398.143L402.296 387.458L418.249 376.327V319.074L418.265 319.048V309.81L412.774 306.261L412.908 306.209L258.21 206ZM304.486 437.781V522.317L279.795 505.812V335.467H279.737L279.897 335.236L224.115 296.627V263.03L371.305 358.285L402.524 336.803V368.125L388.287 378.059L388.183 377.989L388.002 378.258L370.753 390.294L306.516 347.972V402.04H306.524V407.343L371.291 449.524L402.524 428.033V459.355L370.757 481.522L304.486 437.781ZM371.007 409.292L388.461 397.112L404.288 407.731L371.051 430.602L322.249 398.818V377.168L371.007 409.292Z" fill="white"/>
<path d="M541.842 438.717C531.451 438.717 521.9 436.302 513.188 431.473C504.581 426.645 497.706 419.926 492.563 411.318C487.524 402.605 485.005 392.842 485.005 382.03C485.005 371.217 487.524 361.507 492.563 352.899C497.706 344.291 504.581 337.572 513.188 332.743C521.9 327.914 531.451 325.5 541.842 325.5C552.234 325.5 561.733 327.914 570.34 332.743C579.051 337.572 585.874 344.291 590.807 352.899C595.845 361.507 598.364 371.217 598.364 382.03C598.364 392.842 595.845 402.605 590.807 411.318C585.769 419.926 578.946 426.645 570.34 431.473C561.733 436.302 552.234 438.717 541.842 438.717ZM541.842 414.152C550.659 414.152 557.692 411.213 562.94 405.334C568.293 399.456 570.969 391.687 570.969 382.03C570.969 372.267 568.293 364.499 562.94 358.725C557.692 352.846 550.659 349.907 541.842 349.907C532.921 349.907 525.783 352.794 520.43 358.567C515.182 364.341 512.558 372.162 512.558 382.03C512.558 391.792 515.182 399.613 520.43 405.492C525.783 411.266 532.921 414.152 541.842 414.152Z" fill="white"/>
<path d="M640.265 362.189C642.889 358.095 646.51 354.788 651.129 352.269C655.747 349.749 661.153 348.49 667.345 348.49C674.588 348.49 681.148 350.327 687.026 354.001C692.904 357.675 697.522 362.924 700.881 369.747C704.345 376.571 706.076 384.497 706.076 393.525C706.076 402.552 704.345 410.531 700.881 417.459C697.522 424.283 692.904 429.584 687.026 433.363C681.148 437.037 674.588 438.874 667.345 438.874C661.258 438.874 655.852 437.615 651.129 435.095C646.51 432.576 642.889 429.321 640.265 425.332V479.5H613.342V349.749H640.265V362.189ZM678.681 393.525C678.681 386.806 676.792 381.557 673.013 377.778C669.34 373.894 664.774 371.952 659.316 371.952C653.963 371.952 649.397 373.894 645.618 377.778C641.945 381.662 640.108 386.964 640.108 393.682C640.108 400.4 641.945 405.702 645.618 409.586C649.397 413.47 653.963 415.412 659.316 415.412C664.669 415.412 669.235 413.47 673.013 409.586C676.792 405.597 678.681 400.243 678.681 393.525Z" fill="white"/>
<path d="M806.741 392.265C806.741 394.784 806.583 397.409 806.268 400.138H745.338C745.758 405.597 747.489 409.796 750.533 412.735C753.682 415.57 757.513 416.987 762.027 416.987C768.744 416.987 773.415 414.152 776.039 408.484H804.694C803.224 414.257 800.548 419.454 796.664 424.073C792.886 428.692 788.11 432.313 782.337 434.938C776.564 437.562 770.109 438.874 762.971 438.874C754.365 438.874 746.702 437.037 739.985 433.363C733.267 429.689 728.019 424.44 724.24 417.617C720.462 410.793 718.572 402.815 718.572 393.682C718.572 384.549 720.409 376.571 724.083 369.747C727.862 362.924 733.11 357.675 739.827 354.001C746.545 350.327 754.26 348.49 762.971 348.49C771.473 348.49 779.031 350.274 785.643 353.844C792.256 357.413 797.399 362.504 801.073 369.118C804.851 375.731 806.741 383.447 806.741 392.265ZM779.188 385.179C779.188 380.56 777.614 376.886 774.465 374.156C771.316 371.427 767.38 370.062 762.657 370.062C758.143 370.062 754.312 371.375 751.163 373.999C748.119 376.623 746.23 380.35 745.495 385.179H779.188Z" fill="white"/>
<path d="M874.474 348.805C884.761 348.805 892.948 352.164 899.035 358.882C905.228 365.496 908.325 374.629 908.325 386.281V437.615H881.559V389.903C881.559 384.024 880.037 379.458 876.993 376.203C873.95 372.949 869.856 371.322 864.713 371.322C859.57 371.322 855.476 372.949 852.432 376.203C849.388 379.458 847.866 384.024 847.866 389.903V437.615H820.944V349.749H847.866V361.402C850.595 357.518 854.269 354.473 858.887 352.269C863.506 349.959 868.701 348.805 874.474 348.805Z" fill="white"/>
<path d="M1006.54 327.075V348.647H977.258V437.615H950.335V348.647H921.05V327.075H1006.54Z" fill="white"/>
<path d="M1092.01 327.075V348.647H1046.98V371.952H1080.67V392.895H1046.98V437.615H1020.05V327.075H1092.01Z" fill="white"/>
</svg>
