<svg width="1301" height="759" viewBox="0 0 1301 759" fill="none" xmlns="http://www.w3.org/2000/svg">
<path fill-rule="evenodd" clip-rule="evenodd" d="M219.225 189.25L203.731 199.823L377.556 312.421L343.335 335.969L193.859 239.235L181.986 232.007L181.72 232.417V231.846L164.423 221.317V298.004L225.671 340.396V528.287L232.285 532.708L267.378 556.251L287.432 569.018V540.852L287.426 540.851V476.351L311.456 492.212V551.852L328.753 540.023V503.628L343.297 513.228L395.268 476.963V400.688L395.295 400.647L395.268 400.628V400.587L395.237 400.608L377.72 388.854L395.268 376.61V313.631L395.286 313.603V303.441L389.245 299.537L389.393 299.479L219.225 189.25ZM270.128 444.208V537.198L242.968 519.043V331.663H242.904L243.08 331.409L181.72 288.939V251.983L343.629 356.763L377.97 333.133V367.587L362.31 378.515L362.195 378.438L361.997 378.734L343.022 391.973L272.361 345.419V404.894H272.371V410.727L343.614 457.127L377.97 433.486V467.941L343.027 492.324L270.128 444.208ZM343.301 412.871L362.502 399.473L379.91 411.154L343.35 436.312L289.668 401.35V377.535L343.301 412.871Z" fill="#933EFF"/>
<mask id="path-2-outside-1_148_38" maskUnits="userSpaceOnUse" x="467.7" y="319.7" width="670" height="172" fill="black">
<rect fill="white" x="467.7" y="319.7" width="670" height="172"/>
<path d="M531.221 445.238C519.79 445.238 509.284 442.583 499.701 437.271C490.233 431.959 482.67 424.569 477.013 415.1C471.471 405.515 468.7 394.776 468.7 382.883C468.7 370.989 471.471 360.308 477.013 350.839C482.67 341.37 490.233 333.979 499.701 328.668C509.284 323.356 519.79 320.7 531.221 320.7C542.651 320.7 553.1 323.356 562.568 328.668C572.151 333.979 579.655 341.37 585.082 350.839C590.624 360.308 593.395 370.989 593.395 382.883C593.395 394.776 590.624 405.515 585.082 415.1C579.54 424.569 572.035 431.959 562.568 437.271C553.1 442.583 542.651 445.238 531.221 445.238ZM531.221 418.218C540.919 418.218 548.655 414.984 554.428 408.518C560.316 402.051 563.26 393.506 563.26 382.883C563.26 372.144 560.316 363.599 554.428 357.247C548.655 350.781 540.919 347.548 531.221 347.548C521.407 347.548 513.556 350.723 507.667 357.074C501.894 363.425 499.008 372.028 499.008 382.883C499.008 393.622 501.894 402.224 507.667 408.691C513.556 415.042 521.407 418.218 531.221 418.218Z"/>
<path d="M639.486 361.058C642.372 356.555 646.356 352.917 651.436 350.146C656.516 347.374 662.462 345.989 669.274 345.989C677.241 345.989 684.457 348.01 690.922 352.051C697.388 356.093 702.468 361.866 706.163 369.372C709.973 376.878 711.878 385.596 711.878 395.527C711.878 405.458 709.973 414.234 706.163 421.855C702.468 429.361 697.388 435.192 690.922 439.349C684.457 443.391 677.241 445.412 669.274 445.412C662.577 445.412 656.631 444.026 651.436 441.255C646.356 438.483 642.372 434.904 639.486 430.516V490.1H609.871V347.374H639.486V361.058ZM681.744 395.527C681.744 388.137 679.665 382.363 675.509 378.206C671.468 373.933 666.445 371.797 660.441 371.797C654.553 371.797 649.531 373.933 645.374 378.206C641.333 382.478 639.313 388.31 639.313 395.7C639.313 403.091 641.333 408.922 645.374 413.194C649.531 417.467 654.553 419.603 660.441 419.603C666.33 419.603 671.352 417.467 675.509 413.194C679.665 408.806 681.744 402.917 681.744 395.527Z"/>
<path d="M822.609 394.141C822.609 396.913 822.436 399.8 822.089 402.802H755.066C755.527 408.806 757.432 413.425 760.781 416.659C764.245 419.776 768.459 421.335 773.423 421.335C780.813 421.335 785.951 418.218 788.837 411.982H820.357C818.741 418.333 815.797 424.049 811.525 429.13C807.368 434.211 802.115 438.195 795.765 441.081C789.414 443.968 782.314 445.412 774.463 445.412C764.995 445.412 756.567 443.391 749.177 439.349C741.788 435.308 736.015 429.534 731.858 422.028C727.702 414.522 725.624 405.746 725.624 395.7C725.624 385.654 727.644 376.878 731.685 369.372C735.842 361.866 741.615 356.093 749.004 352.051C756.393 348.01 764.88 345.989 774.463 345.989C783.815 345.989 792.128 347.952 799.402 351.878C806.675 355.804 812.333 361.405 816.374 368.679C820.53 375.954 822.609 384.442 822.609 394.141ZM792.301 386.347C792.301 381.266 790.569 377.224 787.105 374.222C783.642 371.22 779.312 369.719 774.116 369.719C769.152 369.719 764.937 371.162 761.474 374.049C758.125 376.936 756.047 381.035 755.239 386.347H792.301Z"/>
<path d="M897.116 346.335C908.431 346.335 917.436 350.03 924.133 357.421C930.945 364.696 934.351 374.742 934.351 387.559V444.026H904.909V391.543C904.909 385.077 903.235 380.054 899.887 376.474C896.539 372.894 892.036 371.104 886.378 371.104C880.721 371.104 876.218 372.894 872.87 376.474C869.521 380.054 867.847 385.077 867.847 391.543V444.026H838.232V347.374H867.847V360.192C870.849 355.92 874.89 352.571 879.97 350.146C885.05 347.605 890.766 346.335 897.116 346.335Z"/>
<path d="M1042.39 322.432V346.162H1010.18V444.026H980.562V346.162H948.35V322.432H1042.39Z"/>
<path d="M1136.4 322.432V346.162H1086.87V371.797H1123.93V394.834H1086.87V444.026H1057.25V322.432H1136.4Z"/>
</mask>
<path d="M531.221 445.238C519.79 445.238 509.284 442.583 499.701 437.271C490.233 431.959 482.67 424.569 477.013 415.1C471.471 405.515 468.7 394.776 468.7 382.883C468.7 370.989 471.471 360.308 477.013 350.839C482.67 341.37 490.233 333.979 499.701 328.668C509.284 323.356 519.79 320.7 531.221 320.7C542.651 320.7 553.1 323.356 562.568 328.668C572.151 333.979 579.655 341.37 585.082 350.839C590.624 360.308 593.395 370.989 593.395 382.883C593.395 394.776 590.624 405.515 585.082 415.1C579.54 424.569 572.035 431.959 562.568 437.271C553.1 442.583 542.651 445.238 531.221 445.238ZM531.221 418.218C540.919 418.218 548.655 414.984 554.428 408.518C560.316 402.051 563.26 393.506 563.26 382.883C563.26 372.144 560.316 363.599 554.428 357.247C548.655 350.781 540.919 347.548 531.221 347.548C521.407 347.548 513.556 350.723 507.667 357.074C501.894 363.425 499.008 372.028 499.008 382.883C499.008 393.622 501.894 402.224 507.667 408.691C513.556 415.042 521.407 418.218 531.221 418.218Z" fill="#060B3D"/>
<path d="M639.486 361.058C642.372 356.555 646.356 352.917 651.436 350.146C656.516 347.374 662.462 345.989 669.274 345.989C677.241 345.989 684.457 348.01 690.922 352.051C697.388 356.093 702.468 361.866 706.163 369.372C709.973 376.878 711.878 385.596 711.878 395.527C711.878 405.458 709.973 414.234 706.163 421.855C702.468 429.361 697.388 435.192 690.922 439.349C684.457 443.391 677.241 445.412 669.274 445.412C662.577 445.412 656.631 444.026 651.436 441.255C646.356 438.483 642.372 434.904 639.486 430.516V490.1H609.871V347.374H639.486V361.058ZM681.744 395.527C681.744 388.137 679.665 382.363 675.509 378.206C671.468 373.933 666.445 371.797 660.441 371.797C654.553 371.797 649.531 373.933 645.374 378.206C641.333 382.478 639.313 388.31 639.313 395.7C639.313 403.091 641.333 408.922 645.374 413.194C649.531 417.467 654.553 419.603 660.441 419.603C666.33 419.603 671.352 417.467 675.509 413.194C679.665 408.806 681.744 402.917 681.744 395.527Z" fill="#060B3D"/>
<path d="M822.609 394.141C822.609 396.913 822.436 399.8 822.089 402.802H755.066C755.527 408.806 757.432 413.425 760.781 416.659C764.245 419.776 768.459 421.335 773.423 421.335C780.813 421.335 785.951 418.218 788.837 411.982H820.357C818.741 418.333 815.797 424.049 811.525 429.13C807.368 434.211 802.115 438.195 795.765 441.081C789.414 443.968 782.314 445.412 774.463 445.412C764.995 445.412 756.567 443.391 749.177 439.349C741.788 435.308 736.015 429.534 731.858 422.028C727.702 414.522 725.624 405.746 725.624 395.7C725.624 385.654 727.644 376.878 731.685 369.372C735.842 361.866 741.615 356.093 749.004 352.051C756.393 348.01 764.88 345.989 774.463 345.989C783.815 345.989 792.128 347.952 799.402 351.878C806.675 355.804 812.333 361.405 816.374 368.679C820.53 375.954 822.609 384.442 822.609 394.141ZM792.301 386.347C792.301 381.266 790.569 377.224 787.105 374.222C783.642 371.22 779.312 369.719 774.116 369.719C769.152 369.719 764.937 371.162 761.474 374.049C758.125 376.936 756.047 381.035 755.239 386.347H792.301Z" fill="#060B3D"/>
<path d="M897.116 346.335C908.431 346.335 917.436 350.03 924.133 357.421C930.945 364.696 934.351 374.742 934.351 387.559V444.026H904.909V391.543C904.909 385.077 903.235 380.054 899.887 376.474C896.539 372.894 892.036 371.104 886.378 371.104C880.721 371.104 876.218 372.894 872.87 376.474C869.521 380.054 867.847 385.077 867.847 391.543V444.026H838.232V347.374H867.847V360.192C870.849 355.92 874.89 352.571 879.97 350.146C885.05 347.605 890.766 346.335 897.116 346.335Z" fill="#060B3D"/>
<path d="M1042.39 322.432V346.162H1010.18V444.026H980.562V346.162H948.35V322.432H1042.39Z" fill="#060B3D"/>
<path d="M1136.4 322.432V346.162H1086.87V371.797H1123.93V394.834H1086.87V444.026H1057.25V322.432H1136.4Z" fill="#060B3D"/>
<path d="M531.221 445.238C519.79 445.238 509.284 442.583 499.701 437.271C490.233 431.959 482.67 424.569 477.013 415.1C471.471 405.515 468.7 394.776 468.7 382.883C468.7 370.989 471.471 360.308 477.013 350.839C482.67 341.37 490.233 333.979 499.701 328.668C509.284 323.356 519.79 320.7 531.221 320.7C542.651 320.7 553.1 323.356 562.568 328.668C572.151 333.979 579.655 341.37 585.082 350.839C590.624 360.308 593.395 370.989 593.395 382.883C593.395 394.776 590.624 405.515 585.082 415.1C579.54 424.569 572.035 431.959 562.568 437.271C553.1 442.583 542.651 445.238 531.221 445.238ZM531.221 418.218C540.919 418.218 548.655 414.984 554.428 408.518C560.316 402.051 563.26 393.506 563.26 382.883C563.26 372.144 560.316 363.599 554.428 357.247C548.655 350.781 540.919 347.548 531.221 347.548C521.407 347.548 513.556 350.723 507.667 357.074C501.894 363.425 499.008 372.028 499.008 382.883C499.008 393.622 501.894 402.224 507.667 408.691C513.556 415.042 521.407 418.218 531.221 418.218Z" stroke="white" stroke-width="2" mask="url(#path-2-outside-1_148_38)"/>
<path d="M639.486 361.058C642.372 356.555 646.356 352.917 651.436 350.146C656.516 347.374 662.462 345.989 669.274 345.989C677.241 345.989 684.457 348.01 690.922 352.051C697.388 356.093 702.468 361.866 706.163 369.372C709.973 376.878 711.878 385.596 711.878 395.527C711.878 405.458 709.973 414.234 706.163 421.855C702.468 429.361 697.388 435.192 690.922 439.349C684.457 443.391 677.241 445.412 669.274 445.412C662.577 445.412 656.631 444.026 651.436 441.255C646.356 438.483 642.372 434.904 639.486 430.516V490.1H609.871V347.374H639.486V361.058ZM681.744 395.527C681.744 388.137 679.665 382.363 675.509 378.206C671.468 373.933 666.445 371.797 660.441 371.797C654.553 371.797 649.531 373.933 645.374 378.206C641.333 382.478 639.313 388.31 639.313 395.7C639.313 403.091 641.333 408.922 645.374 413.194C649.531 417.467 654.553 419.603 660.441 419.603C666.33 419.603 671.352 417.467 675.509 413.194C679.665 408.806 681.744 402.917 681.744 395.527Z" stroke="white" stroke-width="2" mask="url(#path-2-outside-1_148_38)"/>
<path d="M822.609 394.141C822.609 396.913 822.436 399.8 822.089 402.802H755.066C755.527 408.806 757.432 413.425 760.781 416.659C764.245 419.776 768.459 421.335 773.423 421.335C780.813 421.335 785.951 418.218 788.837 411.982H820.357C818.741 418.333 815.797 424.049 811.525 429.13C807.368 434.211 802.115 438.195 795.765 441.081C789.414 443.968 782.314 445.412 774.463 445.412C764.995 445.412 756.567 443.391 749.177 439.349C741.788 435.308 736.015 429.534 731.858 422.028C727.702 414.522 725.624 405.746 725.624 395.7C725.624 385.654 727.644 376.878 731.685 369.372C735.842 361.866 741.615 356.093 749.004 352.051C756.393 348.01 764.88 345.989 774.463 345.989C783.815 345.989 792.128 347.952 799.402 351.878C806.675 355.804 812.333 361.405 816.374 368.679C820.53 375.954 822.609 384.442 822.609 394.141ZM792.301 386.347C792.301 381.266 790.569 377.224 787.105 374.222C783.642 371.22 779.312 369.719 774.116 369.719C769.152 369.719 764.937 371.162 761.474 374.049C758.125 376.936 756.047 381.035 755.239 386.347H792.301Z" stroke="white" stroke-width="2" mask="url(#path-2-outside-1_148_38)"/>
<path d="M897.116 346.335C908.431 346.335 917.436 350.03 924.133 357.421C930.945 364.696 934.351 374.742 934.351 387.559V444.026H904.909V391.543C904.909 385.077 903.235 380.054 899.887 376.474C896.539 372.894 892.036 371.104 886.378 371.104C880.721 371.104 876.218 372.894 872.87 376.474C869.521 380.054 867.847 385.077 867.847 391.543V444.026H838.232V347.374H867.847V360.192C870.849 355.92 874.89 352.571 879.97 350.146C885.05 347.605 890.766 346.335 897.116 346.335Z" stroke="white" stroke-width="2" mask="url(#path-2-outside-1_148_38)"/>
<path d="M1042.39 322.432V346.162H1010.18V444.026H980.562V346.162H948.35V322.432H1042.39Z" stroke="white" stroke-width="2" mask="url(#path-2-outside-1_148_38)"/>
<path d="M1136.4 322.432V346.162H1086.87V371.797H1123.93V394.834H1086.87V444.026H1057.25V322.432H1136.4Z" stroke="white" stroke-width="2" mask="url(#path-2-outside-1_148_38)"/>
</svg>
