<svg width="1301" height="759" viewBox="0 0 1301 759" fill="none" xmlns="http://www.w3.org/2000/svg">
<path fill-rule="evenodd" clip-rule="evenodd" d="M219.025 188.975L203.531 199.548L377.356 312.146L343.135 335.694L193.659 238.959L181.786 231.732L181.521 232.142V231.571L164.223 221.042V297.728L225.471 340.121V528.012L232.085 532.433L267.178 555.976L287.232 568.743V540.577L287.226 540.576V476.076L311.256 491.937V551.577L328.553 539.748V503.353L343.097 512.953L395.068 476.688V400.413L395.095 400.372L395.068 400.353V400.311L395.037 400.333L377.52 388.579L395.068 376.335V313.356L395.086 313.328V303.166L389.045 299.262L389.193 299.204L219.025 188.975ZM269.928 443.933V536.923L242.768 518.768V331.388H242.704L242.88 331.134L181.521 288.664V251.708L343.429 356.488L377.77 332.858V367.312L362.11 378.24L361.995 378.163L361.797 378.458L342.823 391.698L272.162 345.144V404.619H272.171V410.452L343.415 456.852L377.77 433.211V467.666L342.827 492.049L269.928 443.933ZM343.101 412.596L362.302 399.198L379.71 410.879L343.15 436.037L289.468 401.075V377.26L343.101 412.596Z" fill="#933EFF"/>
<path d="M531.021 444.963C519.59 444.963 509.084 442.308 499.501 436.996C490.033 431.684 482.47 424.294 476.813 414.825C471.271 405.24 468.5 394.501 468.5 382.608C468.5 370.714 471.271 360.032 476.813 350.564C482.47 341.095 490.033 333.704 499.501 328.393C509.084 323.081 519.59 320.425 531.021 320.425C542.451 320.425 552.9 323.081 562.368 328.393C571.951 333.704 579.455 341.095 584.882 350.564C590.424 360.032 593.195 370.714 593.195 382.608C593.195 394.501 590.424 405.24 584.882 414.825C579.34 424.294 571.835 431.684 562.368 436.996C552.9 442.308 542.451 444.963 531.021 444.963ZM531.021 417.943C540.719 417.943 548.455 414.709 554.228 408.243C560.116 401.776 563.06 393.231 563.06 382.608C563.06 371.869 560.116 363.323 554.228 356.972C548.455 350.506 540.719 347.273 531.021 347.273C521.207 347.273 513.356 350.448 507.467 356.799C501.694 363.15 498.808 371.753 498.808 382.608C498.808 393.347 501.694 401.949 507.467 408.416C513.356 414.767 521.207 417.943 531.021 417.943Z" fill="#060B3D"/>
<path d="M639.286 360.783C642.172 356.28 646.156 352.642 651.236 349.871C656.316 347.099 662.262 345.714 669.074 345.714C677.041 345.714 684.257 347.735 690.723 351.776C697.188 355.818 702.268 361.591 705.963 369.097C709.773 376.603 711.678 385.321 711.678 395.252C711.678 405.183 709.773 413.959 705.963 421.58C702.268 429.086 697.188 434.917 690.723 439.074C684.257 443.116 677.041 445.137 669.074 445.137C662.377 445.137 656.431 443.751 651.236 440.98C646.156 438.208 642.172 434.629 639.286 430.241V489.825H609.671V347.099H639.286V360.783ZM681.544 395.252C681.544 387.862 679.465 382.088 675.309 377.931C671.268 373.658 666.245 371.522 660.242 371.522C654.353 371.522 649.331 373.658 645.174 377.931C641.133 382.203 639.113 388.035 639.113 395.425C639.113 402.816 641.133 408.647 645.174 412.919C649.331 417.192 654.353 419.328 660.242 419.328C666.13 419.328 671.152 417.192 675.309 412.919C679.465 408.531 681.544 402.642 681.544 395.252Z" fill="#060B3D"/>
<path d="M822.409 393.866C822.409 396.638 822.236 399.525 821.889 402.527H754.866C755.327 408.531 757.233 413.15 760.581 416.384C764.045 419.501 768.259 421.06 773.224 421.06C780.613 421.06 785.751 417.943 788.637 411.707H820.157C818.541 418.058 815.597 423.774 811.325 428.855C807.168 433.936 801.915 437.92 795.565 440.806C789.214 443.693 782.114 445.137 774.263 445.137C764.795 445.137 756.367 443.116 748.977 439.074C741.588 435.033 735.815 429.259 731.659 421.753C727.502 414.247 725.424 405.471 725.424 395.425C725.424 385.379 727.444 376.603 731.485 369.097C735.642 361.591 741.415 355.818 748.804 351.776C756.193 347.735 764.68 345.714 774.263 345.714C783.615 345.714 791.928 347.677 799.202 351.603C806.476 355.529 812.133 361.129 816.174 368.404C820.33 375.679 822.409 384.166 822.409 393.866ZM792.101 386.072C792.101 380.991 790.369 376.949 786.905 373.947C783.442 370.945 779.112 369.444 773.916 369.444C768.952 369.444 764.737 370.887 761.274 373.774C757.925 376.661 755.847 380.76 755.039 386.072H792.101Z" fill="#060B3D"/>
<path d="M896.916 346.06C908.231 346.06 917.237 349.755 923.933 357.146C930.745 364.42 934.151 374.467 934.151 387.284V443.751H904.709V391.268C904.709 384.802 903.035 379.778 899.687 376.199C896.339 372.619 891.836 370.829 886.178 370.829C880.521 370.829 876.018 372.619 872.67 376.199C869.321 379.778 867.647 384.802 867.647 391.268V443.751H838.032V347.099H867.647V359.917C870.649 355.644 874.69 352.296 879.77 349.871C884.85 347.33 890.566 346.06 896.916 346.06Z" fill="#060B3D"/>
<path d="M1042.19 322.157V345.887H1009.98V443.751H980.362V345.887H948.15V322.157H1042.19Z" fill="#060B3D"/>
<path d="M1136.2 322.157V345.887H1086.67V371.522H1123.73V394.559H1086.67V443.751H1057.05V322.157H1136.2Z" fill="#060B3D"/>
</svg>
