<svg width="1301" height="758" viewBox="0 0 1301 758" fill="none" xmlns="http://www.w3.org/2000/svg">
<path fill-rule="evenodd" clip-rule="evenodd" d="M219.218 189L203.726 199.571L377.528 312.155L343.311 335.7L193.853 238.977L181.983 231.752L181.718 232.161V231.59L164.423 221.063V297.739L225.663 340.126V527.993L232.273 532.411L267.359 555.949L287.415 568.718V540.556L287.41 540.555V476.063L311.437 491.922V551.555L328.732 539.727V503.337L343.273 512.935L395.237 476.675V400.41L395.265 400.369L395.237 400.35V400.309L395.207 400.33L377.692 388.578L395.237 376.335V313.365L395.255 313.337V303.176L389.216 299.272L389.363 299.215L219.218 189ZM270.115 443.925V536.903L242.958 518.75V331.395H242.894L243.07 331.141L181.718 288.676V251.725L343.606 356.491L377.942 332.864V367.314L362.284 378.24L362.169 378.163L361.971 378.459L342.999 391.697L272.347 345.148V404.616H272.356V410.448L343.591 456.842L377.942 433.204V467.654L343.003 492.034L270.115 443.925ZM343.278 412.592L362.476 399.196L379.882 410.875L343.326 436.03L289.652 401.072V377.26L343.278 412.592Z" fill="black"/>
<path d="M203.726 199.571L203.444 199.158L202.823 199.582L203.454 199.991L203.726 199.571ZM219.218 189L219.489 188.58L219.21 188.4L218.936 188.587L219.218 189ZM377.528 312.155L377.811 312.567L378.428 312.142L377.8 311.735L377.528 312.155ZM343.311 335.7L343.04 336.12L343.32 336.301L343.595 336.112L343.311 335.7ZM193.853 238.977L194.125 238.557L194.113 238.549L193.853 238.977ZM181.983 231.752L182.243 231.325L181.828 231.072L181.564 231.48L181.983 231.752ZM181.718 232.161H181.218V233.854L182.138 232.433L181.718 232.161ZM181.718 231.59H182.218V231.309L181.978 231.163L181.718 231.59ZM164.423 221.063L164.683 220.636L163.923 220.173V221.063H164.423ZM164.423 297.739H163.923V298.001L164.139 298.15L164.423 297.739ZM225.663 340.126H226.163V339.864L225.947 339.715L225.663 340.126ZM225.663 527.993H225.163V528.26L225.385 528.408L225.663 527.993ZM232.273 532.411L232.551 531.996L232.55 531.995L232.273 532.411ZM267.359 555.949L267.08 556.364L267.09 556.371L267.359 555.949ZM287.415 568.718L287.147 569.139L287.915 569.629V568.718H287.415ZM287.415 540.556H287.915V540.131L287.496 540.063L287.415 540.556ZM287.41 540.555H286.91V540.98L287.329 541.049L287.41 540.555ZM287.41 476.063L287.685 475.646L286.91 475.134V476.063H287.41ZM311.437 491.922H311.937V491.653L311.712 491.505L311.437 491.922ZM311.437 551.555H310.937V552.503L311.719 551.968L311.437 551.555ZM328.732 539.727L329.014 540.14L329.232 539.991V539.727H328.732ZM328.732 503.337L329.007 502.92L328.232 502.408V503.337H328.732ZM343.273 512.935L342.998 513.352L343.281 513.539L343.56 513.345L343.273 512.935ZM395.237 476.675L395.523 477.085L395.737 476.936V476.675H395.237ZM395.237 400.41L394.822 400.131L394.737 400.258V400.41H395.237ZM395.265 400.369L395.68 400.647L395.959 400.232L395.543 399.954L395.265 400.369ZM395.237 400.35H394.737V400.617L394.959 400.766L395.237 400.35ZM395.237 400.309H395.737V399.358L394.954 399.897L395.237 400.309ZM395.207 400.33L394.928 400.745L395.21 400.934L395.49 400.742L395.207 400.33ZM377.692 388.578L377.406 388.168L376.807 388.586L377.413 388.993L377.692 388.578ZM395.237 376.335L395.523 376.745L395.737 376.596V376.335H395.237ZM395.237 313.365L394.817 313.094L394.737 313.217V313.365H395.237ZM395.255 313.337L395.675 313.608L395.755 313.484V313.337H395.255ZM395.255 303.176H395.755V302.904L395.527 302.756L395.255 303.176ZM389.216 299.272L389.035 298.806L388.122 299.16L388.944 299.692L389.216 299.272ZM389.363 299.215L389.544 299.681L390.457 299.328L389.635 298.795L389.363 299.215ZM270.115 536.903L269.837 537.318L270.615 537.838V536.903H270.115ZM270.115 443.925L270.39 443.508L269.615 442.996V443.925H270.115ZM242.958 518.75H242.458V519.017L242.68 519.166L242.958 518.75ZM242.958 331.395H243.458V330.895H242.958V331.395ZM242.894 331.395L242.483 331.11L241.94 331.895H242.894V331.395ZM243.07 331.141L243.481 331.425L243.766 331.014L243.355 330.73L243.07 331.141ZM181.718 288.676H181.218V288.938L181.434 289.087L181.718 288.676ZM181.718 251.725L181.99 251.305L181.218 250.805V251.725H181.718ZM343.606 356.491L343.334 356.911L343.614 357.092L343.889 356.903L343.606 356.491ZM377.942 332.864H378.442V331.913L377.659 332.452L377.942 332.864ZM377.942 367.314L378.228 367.724L378.442 367.575V367.314H377.942ZM362.284 378.24L362.006 378.655L362.29 378.846L362.57 378.65L362.284 378.24ZM362.169 378.163L362.448 377.748L362.033 377.469L361.754 377.884L362.169 378.163ZM361.971 378.459L362.257 378.869L362.334 378.815L362.386 378.737L361.971 378.459ZM342.999 391.697L342.724 392.114L343.007 392.301L343.285 392.107L342.999 391.697ZM272.347 345.148L272.622 344.731L271.847 344.22V345.148H272.347ZM272.347 404.616H271.847V405.116H272.347V404.616ZM272.356 404.616H272.856V404.116H272.356V404.616ZM272.356 410.448H271.856V410.719L272.084 410.867L272.356 410.448ZM343.591 456.842L343.318 457.261L343.599 457.443L343.874 457.254L343.591 456.842ZM377.942 433.204H378.442V432.253L377.659 432.792L377.942 433.204ZM377.942 467.654L378.228 468.064L378.442 467.915V467.654H377.942ZM343.003 492.034L342.728 492.451L343.011 492.638L343.289 492.444L343.003 492.034ZM362.476 399.196L362.754 398.781L362.47 398.59L362.189 398.786L362.476 399.196ZM343.278 412.592L343.003 413.009L343.286 413.196L343.564 413.002L343.278 412.592ZM379.882 410.875L380.165 411.287L380.772 410.87L380.161 410.46L379.882 410.875ZM343.326 436.03L343.053 436.448L343.334 436.631L343.61 436.441L343.326 436.03ZM289.652 401.072H289.152V401.343L289.379 401.491L289.652 401.072ZM289.652 377.26L289.927 376.843L289.152 376.332V377.26H289.652ZM204.007 199.984L219.499 189.413L218.936 188.587L203.444 199.158L204.007 199.984ZM377.8 311.735L203.997 199.152L203.454 199.991L377.256 312.575L377.8 311.735ZM343.595 336.112L377.811 312.567L377.244 311.743L343.028 335.288L343.595 336.112ZM193.581 239.396L343.04 336.12L343.583 335.28L194.124 238.557L193.581 239.396ZM181.723 232.179L193.593 239.404L194.113 238.549L182.243 231.325L181.723 232.179ZM182.138 232.433L182.403 232.023L181.564 231.48L181.299 231.89L182.138 232.433ZM181.218 231.59V232.161H182.218V231.59H181.218ZM164.163 221.49L181.458 232.018L181.978 231.163L164.683 220.636L164.163 221.49ZM164.923 297.739V221.063H163.923V297.739H164.923ZM225.947 339.715L164.708 297.328L164.139 298.15L225.378 340.537L225.947 339.715ZM226.163 527.993V340.126H225.163V527.993H226.163ZM232.55 531.995L225.941 527.577L225.385 528.408L231.995 532.826L232.55 531.995ZM267.637 555.534L232.551 531.996L231.994 532.826L267.08 556.364L267.637 555.534ZM287.684 568.296L267.627 555.527L267.09 556.371L287.147 569.139L287.684 568.296ZM286.915 540.556V568.718H287.915V540.556H286.915ZM287.329 541.049L287.335 541.05L287.496 540.063L287.49 540.062L287.329 541.049ZM286.91 476.063V540.555H287.91V476.063H286.91ZM311.712 491.505L287.685 475.646L287.134 476.48L311.161 492.339L311.712 491.505ZM311.937 551.555V491.922H310.937V551.555H311.937ZM328.45 539.315L311.154 551.142L311.719 551.968L329.014 540.14L328.45 539.315ZM328.232 503.337V539.727H329.232V503.337H328.232ZM343.549 512.518L329.007 502.92L328.456 503.754L342.998 513.352L343.549 512.518ZM394.951 476.265L342.987 512.525L343.56 513.345L395.523 477.085L394.951 476.265ZM394.737 400.41V476.675H395.737V400.41H394.737ZM394.85 400.09L394.822 400.131L395.653 400.689L395.68 400.647L394.85 400.09ZM394.959 400.766L394.986 400.784L395.543 399.954L395.516 399.935L394.959 400.766ZM394.737 400.309V400.35H395.737V400.309H394.737ZM395.49 400.742L395.521 400.721L394.954 399.897L394.923 399.918L395.49 400.742ZM377.413 388.993L394.928 400.745L395.485 399.915L377.971 388.163L377.413 388.993ZM394.951 375.925L377.406 388.168L377.978 388.988L395.523 376.745L394.951 375.925ZM394.737 313.365V376.335H395.737V313.365H394.737ZM394.835 313.066L394.817 313.094L395.658 313.635L395.675 313.608L394.835 313.066ZM394.755 303.176V313.337H395.755V303.176H394.755ZM388.944 299.692L394.984 303.596L395.527 302.756L389.487 298.852L388.944 299.692ZM389.183 298.749L389.035 298.806L389.397 299.738L389.544 299.681L389.183 298.749ZM218.946 189.42L389.091 299.635L389.635 298.795L219.489 188.58L218.946 189.42ZM270.615 536.903V443.925H269.615V536.903H270.615ZM242.68 519.166L269.837 537.318L270.392 536.487L243.236 518.334L242.68 519.166ZM242.458 331.395V518.75H243.458V331.395H242.458ZM242.894 331.895H242.958V330.895H242.894V331.895ZM242.659 330.856L242.483 331.11L243.305 331.679L243.481 331.425L242.659 330.856ZM181.434 289.087L242.786 331.552L243.355 330.73L182.003 288.265L181.434 289.087ZM181.218 251.725V288.676H182.218V251.725H181.218ZM343.878 356.072L181.99 251.305L181.447 252.144L343.334 356.911L343.878 356.072ZM377.659 332.452L343.323 356.079L343.889 356.903L378.226 333.276L377.659 332.452ZM378.442 367.314V332.864H377.442V367.314H378.442ZM362.57 378.65L378.228 367.724L377.656 366.904L361.998 377.83L362.57 378.65ZM361.891 378.578L362.006 378.655L362.563 377.825L362.448 377.748L361.891 378.578ZM362.386 378.737L362.584 378.441L361.754 377.884L361.556 378.18L362.386 378.737ZM343.285 392.107L362.257 378.869L361.685 378.049L342.713 391.287L343.285 392.107ZM272.072 345.566L342.724 392.114L343.274 391.279L272.622 344.731L272.072 345.566ZM272.847 404.616V345.148H271.847V404.616H272.847ZM272.356 404.116H272.347V405.116H272.356V404.116ZM272.856 410.448V404.616H271.856V410.448H272.856ZM343.864 456.423L272.629 410.029L272.084 410.867L343.318 457.261L343.864 456.423ZM377.659 432.792L343.308 456.43L343.874 457.254L378.226 433.616L377.659 432.792ZM378.442 467.654V433.204H377.442V467.654H378.442ZM343.289 492.444L378.228 468.064L377.656 467.244L342.717 491.624L343.289 492.444ZM269.839 444.342L342.728 492.451L343.279 491.617L270.39 443.508L269.839 444.342ZM362.189 398.786L342.992 412.182L343.564 413.002L362.762 399.606L362.189 398.786ZM380.161 410.46L362.754 398.781L362.197 399.611L379.603 411.29L380.161 410.46ZM343.61 436.441L380.165 411.287L379.599 410.463L343.043 435.618L343.61 436.441ZM289.379 401.491L343.053 436.448L343.599 435.611L289.924 400.653L289.379 401.491ZM289.152 377.26V401.072H290.152V377.26H289.152ZM343.553 412.174L289.927 376.843L289.377 377.678L343.003 413.009L343.553 412.174Z" fill="white"/>
<mask id="path-3-outside-1_148_230" maskUnits="userSpaceOnUse" x="467.66" y="319.433" width="670" height="172" fill="black">
<rect fill="white" x="467.66" y="319.433" width="670" height="172"/>
<path d="M531.172 444.955C519.743 444.955 509.238 442.299 499.656 436.988C490.19 431.677 482.629 424.288 476.972 414.82C471.431 405.237 468.66 394.499 468.66 382.607C468.66 370.715 471.431 360.035 476.972 350.567C482.629 341.1 490.19 333.71 499.656 328.399C509.238 323.088 519.743 320.433 531.172 320.433C542.601 320.433 553.049 323.088 562.515 328.399C572.097 333.71 579.601 341.1 585.027 350.567C590.568 360.035 593.338 370.715 593.338 382.607C593.338 394.499 590.568 405.237 585.027 414.82C579.485 424.288 571.982 431.677 562.515 436.988C553.049 442.299 542.601 444.955 531.172 444.955ZM531.172 417.938C540.87 417.938 548.604 414.705 554.376 408.239C560.264 401.773 563.208 393.229 563.208 382.607C563.208 371.87 560.264 363.326 554.376 356.975C548.604 350.51 540.87 347.277 531.172 347.277C521.36 347.277 513.51 350.452 507.622 356.802C501.85 363.152 498.964 371.754 498.964 382.607C498.964 393.345 501.85 401.946 507.622 408.412C513.51 414.762 521.36 417.938 531.172 417.938Z"/>
<path d="M639.423 360.786C642.309 356.283 646.292 352.646 651.372 349.875C656.451 347.104 662.396 345.718 669.208 345.718C677.173 345.718 684.388 347.739 690.853 351.78C697.318 355.821 702.397 361.594 706.092 369.099C709.901 376.603 711.806 385.32 711.806 395.25C711.806 405.179 709.901 413.954 706.092 421.574C702.397 429.079 697.318 434.91 690.853 439.066C684.388 443.107 677.173 445.128 669.208 445.128C662.512 445.128 656.567 443.742 651.372 440.971C646.292 438.2 642.309 434.621 639.423 430.234V489.81H609.812V347.104H639.423V360.786ZM681.675 395.25C681.675 387.861 679.597 382.088 675.442 377.931C671.401 373.659 666.379 371.523 660.376 371.523C654.489 371.523 649.467 373.659 645.311 377.931C641.27 382.203 639.25 388.034 639.25 395.423C639.25 402.812 641.27 408.643 645.311 412.915C649.467 417.187 654.489 419.323 660.376 419.323C666.264 419.323 671.286 417.187 675.442 412.915C679.597 408.528 681.675 402.639 681.675 395.25Z"/>
<path d="M822.522 393.864C822.522 396.635 822.349 399.522 822.003 402.524H754.988C755.45 408.528 757.354 413.146 760.702 416.379C764.166 419.496 768.379 421.055 773.343 421.055C780.732 421.055 785.869 417.937 788.755 411.703H820.271C818.655 418.053 815.711 423.768 811.44 428.848C807.284 433.928 802.031 437.912 795.682 440.798C789.332 443.685 782.232 445.128 774.382 445.128C764.916 445.128 756.489 443.107 749.1 439.066C741.712 435.025 735.94 429.252 731.784 421.748C727.628 414.243 725.55 405.468 725.55 395.423C725.55 385.378 727.57 376.603 731.611 369.099C735.767 361.594 741.539 355.821 748.927 351.78C756.315 347.739 764.801 345.718 774.382 345.718C783.733 345.718 792.045 347.681 799.318 351.607C806.591 355.532 812.248 361.132 816.288 368.406C820.444 375.68 822.522 384.166 822.522 393.864ZM792.218 386.071C792.218 380.991 790.487 376.95 787.023 373.948C783.56 370.946 779.231 369.445 774.036 369.445C769.072 369.445 764.858 370.888 761.395 373.775C758.047 376.661 755.969 380.76 755.161 386.071H792.218Z"/>
<path d="M897.019 346.065C908.333 346.065 917.337 349.759 924.033 357.149C930.844 364.422 934.25 374.467 934.25 387.283V443.742H904.812V391.267C904.812 384.801 903.138 379.778 899.79 376.199C896.442 372.62 891.94 370.83 886.283 370.83C880.626 370.83 876.124 372.62 872.776 376.199C869.429 379.778 867.755 384.801 867.755 391.267V443.742H838.143V347.104H867.755V359.92C870.756 355.648 874.797 352.299 879.876 349.875C884.956 347.335 890.67 346.065 897.019 346.065Z"/>
<path d="M1042.27 322.165V345.891H1010.07V443.742H980.455V345.891H948.246V322.165H1042.27Z"/>
<path d="M1136.27 322.165V345.891H1086.75V371.523H1123.8V394.557H1086.75V443.742H1057.14V322.165H1136.27Z"/>
</mask>
<path d="M531.172 444.955C519.743 444.955 509.238 442.299 499.656 436.988C490.19 431.677 482.629 424.288 476.972 414.82C471.431 405.237 468.66 394.499 468.66 382.607C468.66 370.715 471.431 360.035 476.972 350.567C482.629 341.1 490.19 333.71 499.656 328.399C509.238 323.088 519.743 320.433 531.172 320.433C542.601 320.433 553.049 323.088 562.515 328.399C572.097 333.71 579.601 341.1 585.027 350.567C590.568 360.035 593.338 370.715 593.338 382.607C593.338 394.499 590.568 405.237 585.027 414.82C579.485 424.288 571.982 431.677 562.515 436.988C553.049 442.299 542.601 444.955 531.172 444.955ZM531.172 417.938C540.87 417.938 548.604 414.705 554.376 408.239C560.264 401.773 563.208 393.229 563.208 382.607C563.208 371.87 560.264 363.326 554.376 356.975C548.604 350.51 540.87 347.277 531.172 347.277C521.36 347.277 513.51 350.452 507.622 356.802C501.85 363.152 498.964 371.754 498.964 382.607C498.964 393.345 501.85 401.946 507.622 408.412C513.51 414.762 521.36 417.938 531.172 417.938Z" fill="black"/>
<path d="M639.423 360.786C642.309 356.283 646.292 352.646 651.372 349.875C656.451 347.104 662.396 345.718 669.208 345.718C677.173 345.718 684.388 347.739 690.853 351.78C697.318 355.821 702.397 361.594 706.092 369.099C709.901 376.603 711.806 385.32 711.806 395.25C711.806 405.179 709.901 413.954 706.092 421.574C702.397 429.079 697.318 434.91 690.853 439.066C684.388 443.107 677.173 445.128 669.208 445.128C662.512 445.128 656.567 443.742 651.372 440.971C646.292 438.2 642.309 434.621 639.423 430.234V489.81H609.812V347.104H639.423V360.786ZM681.675 395.25C681.675 387.861 679.597 382.088 675.442 377.931C671.401 373.659 666.379 371.523 660.376 371.523C654.489 371.523 649.467 373.659 645.311 377.931C641.27 382.203 639.25 388.034 639.25 395.423C639.25 402.812 641.27 408.643 645.311 412.915C649.467 417.187 654.489 419.323 660.376 419.323C666.264 419.323 671.286 417.187 675.442 412.915C679.597 408.528 681.675 402.639 681.675 395.25Z" fill="black"/>
<path d="M822.522 393.864C822.522 396.635 822.349 399.522 822.003 402.524H754.988C755.45 408.528 757.354 413.146 760.702 416.379C764.166 419.496 768.379 421.055 773.343 421.055C780.732 421.055 785.869 417.937 788.755 411.703H820.271C818.655 418.053 815.711 423.768 811.44 428.848C807.284 433.928 802.031 437.912 795.682 440.798C789.332 443.685 782.232 445.128 774.382 445.128C764.916 445.128 756.489 443.107 749.1 439.066C741.712 435.025 735.94 429.252 731.784 421.748C727.628 414.243 725.55 405.468 725.55 395.423C725.55 385.378 727.57 376.603 731.611 369.099C735.767 361.594 741.539 355.821 748.927 351.78C756.315 347.739 764.801 345.718 774.382 345.718C783.733 345.718 792.045 347.681 799.318 351.607C806.591 355.532 812.248 361.132 816.288 368.406C820.444 375.68 822.522 384.166 822.522 393.864ZM792.218 386.071C792.218 380.991 790.487 376.95 787.023 373.948C783.56 370.946 779.231 369.445 774.036 369.445C769.072 369.445 764.858 370.888 761.395 373.775C758.047 376.661 755.969 380.76 755.161 386.071H792.218Z" fill="black"/>
<path d="M897.019 346.065C908.333 346.065 917.337 349.759 924.033 357.149C930.844 364.422 934.25 374.467 934.25 387.283V443.742H904.812V391.267C904.812 384.801 903.138 379.778 899.79 376.199C896.442 372.62 891.94 370.83 886.283 370.83C880.626 370.83 876.124 372.62 872.776 376.199C869.429 379.778 867.755 384.801 867.755 391.267V443.742H838.143V347.104H867.755V359.92C870.756 355.648 874.797 352.299 879.876 349.875C884.956 347.335 890.67 346.065 897.019 346.065Z" fill="black"/>
<path d="M1042.27 322.165V345.891H1010.07V443.742H980.455V345.891H948.246V322.165H1042.27Z" fill="black"/>
<path d="M1136.27 322.165V345.891H1086.75V371.523H1123.8V394.557H1086.75V443.742H1057.14V322.165H1136.27Z" fill="black"/>
<path d="M531.172 444.955C519.743 444.955 509.238 442.299 499.656 436.988C490.19 431.677 482.629 424.288 476.972 414.82C471.431 405.237 468.66 394.499 468.66 382.607C468.66 370.715 471.431 360.035 476.972 350.567C482.629 341.1 490.19 333.71 499.656 328.399C509.238 323.088 519.743 320.433 531.172 320.433C542.601 320.433 553.049 323.088 562.515 328.399C572.097 333.71 579.601 341.1 585.027 350.567C590.568 360.035 593.338 370.715 593.338 382.607C593.338 394.499 590.568 405.237 585.027 414.82C579.485 424.288 571.982 431.677 562.515 436.988C553.049 442.299 542.601 444.955 531.172 444.955ZM531.172 417.938C540.87 417.938 548.604 414.705 554.376 408.239C560.264 401.773 563.208 393.229 563.208 382.607C563.208 371.87 560.264 363.326 554.376 356.975C548.604 350.51 540.87 347.277 531.172 347.277C521.36 347.277 513.51 350.452 507.622 356.802C501.85 363.152 498.964 371.754 498.964 382.607C498.964 393.345 501.85 401.946 507.622 408.412C513.51 414.762 521.36 417.938 531.172 417.938Z" stroke="white" stroke-width="2" mask="url(#path-3-outside-1_148_230)"/>
<path d="M639.423 360.786C642.309 356.283 646.292 352.646 651.372 349.875C656.451 347.104 662.396 345.718 669.208 345.718C677.173 345.718 684.388 347.739 690.853 351.78C697.318 355.821 702.397 361.594 706.092 369.099C709.901 376.603 711.806 385.32 711.806 395.25C711.806 405.179 709.901 413.954 706.092 421.574C702.397 429.079 697.318 434.91 690.853 439.066C684.388 443.107 677.173 445.128 669.208 445.128C662.512 445.128 656.567 443.742 651.372 440.971C646.292 438.2 642.309 434.621 639.423 430.234V489.81H609.812V347.104H639.423V360.786ZM681.675 395.25C681.675 387.861 679.597 382.088 675.442 377.931C671.401 373.659 666.379 371.523 660.376 371.523C654.489 371.523 649.467 373.659 645.311 377.931C641.27 382.203 639.25 388.034 639.25 395.423C639.25 402.812 641.27 408.643 645.311 412.915C649.467 417.187 654.489 419.323 660.376 419.323C666.264 419.323 671.286 417.187 675.442 412.915C679.597 408.528 681.675 402.639 681.675 395.25Z" stroke="white" stroke-width="2" mask="url(#path-3-outside-1_148_230)"/>
<path d="M822.522 393.864C822.522 396.635 822.349 399.522 822.003 402.524H754.988C755.45 408.528 757.354 413.146 760.702 416.379C764.166 419.496 768.379 421.055 773.343 421.055C780.732 421.055 785.869 417.937 788.755 411.703H820.271C818.655 418.053 815.711 423.768 811.44 428.848C807.284 433.928 802.031 437.912 795.682 440.798C789.332 443.685 782.232 445.128 774.382 445.128C764.916 445.128 756.489 443.107 749.1 439.066C741.712 435.025 735.94 429.252 731.784 421.748C727.628 414.243 725.55 405.468 725.55 395.423C725.55 385.378 727.57 376.603 731.611 369.099C735.767 361.594 741.539 355.821 748.927 351.78C756.315 347.739 764.801 345.718 774.382 345.718C783.733 345.718 792.045 347.681 799.318 351.607C806.591 355.532 812.248 361.132 816.288 368.406C820.444 375.68 822.522 384.166 822.522 393.864ZM792.218 386.071C792.218 380.991 790.487 376.95 787.023 373.948C783.56 370.946 779.231 369.445 774.036 369.445C769.072 369.445 764.858 370.888 761.395 373.775C758.047 376.661 755.969 380.76 755.161 386.071H792.218Z" stroke="white" stroke-width="2" mask="url(#path-3-outside-1_148_230)"/>
<path d="M897.019 346.065C908.333 346.065 917.337 349.759 924.033 357.149C930.844 364.422 934.25 374.467 934.25 387.283V443.742H904.812V391.267C904.812 384.801 903.138 379.778 899.79 376.199C896.442 372.62 891.94 370.83 886.283 370.83C880.626 370.83 876.124 372.62 872.776 376.199C869.429 379.778 867.755 384.801 867.755 391.267V443.742H838.143V347.104H867.755V359.92C870.756 355.648 874.797 352.299 879.876 349.875C884.956 347.335 890.67 346.065 897.019 346.065Z" stroke="white" stroke-width="2" mask="url(#path-3-outside-1_148_230)"/>
<path d="M1042.27 322.165V345.891H1010.07V443.742H980.455V345.891H948.246V322.165H1042.27Z" stroke="white" stroke-width="2" mask="url(#path-3-outside-1_148_230)"/>
<path d="M1136.27 322.165V345.891H1086.75V371.523H1123.8V394.557H1086.75V443.742H1057.14V322.165H1136.27Z" stroke="white" stroke-width="2" mask="url(#path-3-outside-1_148_230)"/>
</svg>
