<svg width="758" height="759" viewBox="0 0 758 759" fill="none" xmlns="http://www.w3.org/2000/svg">
<path fill-rule="evenodd" clip-rule="evenodd" d="M293.973 113.531L272.261 128.347L515.847 286.135L467.893 319.133L261.275 185.418L241.739 173.527L241.418 174.022V173.332L217.179 158.577V265.931L303.007 325.337V588.635L312.438 594.939L361.432 627.807L389.554 645.711V606.242L389.546 606.241V515.855L423.22 538.081V621.657L447.46 605.081V554.079L467.84 567.531L540.668 516.713V409.825L540.707 409.768L540.668 409.742V409.684L540.625 409.713L516.077 393.243L540.668 376.084V287.83L540.693 287.792V273.551L532.229 268.079L532.435 267.999L293.973 113.531ZM365.307 470.813V601.122L327.246 575.681V313.1H327.157L327.403 312.744L241.418 253.229V201.44L468.306 348.272L516.429 315.158V363.441L494.483 378.754L494.323 378.646L494.045 379.06L467.456 397.613L368.436 332.375V415.72H368.449V423.894L468.285 488.915L516.429 455.787V504.069L467.461 538.238L365.307 470.813ZM467.846 426.898L494.751 408.124L519.147 424.493L467.914 459.747L392.688 410.754V377.381L467.846 426.898Z" fill="white"/>
</svg>
