<svg width="759" height="759" viewBox="0 0 759 759" fill="none" xmlns="http://www.w3.org/2000/svg">
<path fill-rule="evenodd" clip-rule="evenodd" d="M294.473 113.281L272.761 128.097L516.347 285.885L468.393 318.883L261.775 185.168L242.239 173.277L241.918 173.772V173.082L217.679 158.327V265.681L303.507 325.087V588.385L312.938 594.689L361.932 627.557L390.054 645.461V605.992L390.046 605.991V515.605L423.72 537.831V621.407L447.96 604.831V553.829L468.34 567.281L541.168 516.463V409.575L541.207 409.518L541.168 409.492V409.434L541.125 409.463L516.577 392.993L541.168 375.834V287.58L541.193 287.542V273.301L532.729 267.829L532.935 267.749L294.473 113.281ZM365.807 470.563V600.872L327.746 575.431V312.85H327.657L327.903 312.494L241.918 252.979V201.19L468.806 348.022L516.929 314.908V363.191L494.983 378.504L494.823 378.396L494.545 378.81L467.956 397.363L368.936 332.125V415.47H368.949V423.644L468.785 488.665L516.929 455.537V503.819L467.961 537.988L365.807 470.563ZM468.346 426.648L495.251 407.874L519.647 424.243L468.414 459.497L393.188 410.504V377.131L468.346 426.648Z" fill="#933EFF"/>
</svg>
