<svg width="759" height="758" viewBox="0 0 759 758" fill="none" xmlns="http://www.w3.org/2000/svg">
<rect width="758" height="758" transform="translate(0.5)" fill="#060B3D"/>
<path fill-rule="evenodd" clip-rule="evenodd" d="M294.589 112.81L272.877 127.626L516.463 285.413L468.509 318.411L261.88 184.69L242.354 172.805L242.034 173.301V172.61L217.794 157.855V265.21L303.622 324.615V587.913L313.065 594.225L362.046 627.085L390.17 644.989V605.521L390.162 605.52V515.133L423.836 537.359V620.936L448.075 604.359V553.358L468.456 566.81L541.284 515.991V409.104L541.322 409.047L541.284 409.021V408.962L541.24 408.992L516.693 392.521L541.284 375.362V287.108L541.309 287.07V272.83L532.844 267.358L533.051 267.278L294.589 112.81ZM365.922 470.091V600.401L327.862 574.96V312.378H327.772L328.019 312.022L242.034 252.508V200.719L468.922 347.551L517.044 314.437V362.719L495.099 378.032L494.938 377.925L494.661 378.338L468.071 396.892L369.052 331.653V414.998H369.064V423.172L468.901 488.194L517.044 455.065V503.348L468.077 537.517L365.922 470.091ZM468.462 426.177L495.367 407.402L519.763 423.771L468.53 459.025L393.304 410.032V376.659L468.462 426.177Z" fill="#933EFF"/>
</svg>
