<svg width="2205" height="2205" viewBox="0 0 2205 2205" fill="none" xmlns="http://www.w3.org/2000/svg">
<rect width="2205" height="2205" fill="#0D1A2B"/>
<path d="M1092.05 507.18C1098.56 503.602 1106.44 503.602 1112.95 507.18L1577.15 762.319C1592.14 770.562 1592.14 792.111 1577.15 800.354L1112.95 1055.49C1106.44 1059.07 1098.56 1059.07 1092.05 1055.49L627.855 800.354C612.858 792.111 612.858 770.562 627.855 762.319L1092.05 507.18Z" fill="#E7C200"/>
<path d="M1618.5 860.152C1632.97 852.203 1650.66 862.667 1650.66 879.17V1389.45C1650.66 1397.36 1646.35 1404.65 1639.41 1408.46L1170.81 1666.02C1156.35 1673.97 1138.66 1663.51 1138.66 1647.01V1136.73C1138.66 1128.81 1142.97 1121.52 1149.91 1117.71L1618.5 860.152Z" fill="white"/>
<path fill-rule="evenodd" clip-rule="evenodd" d="M586.49 860.152C572.028 852.203 554.336 862.666 554.336 879.169V1389.45C554.336 1397.36 558.647 1404.65 565.585 1408.46L1034.18 1666.02C1048.64 1673.97 1066.33 1663.51 1066.33 1647.01V1136.73C1066.33 1128.81 1062.02 1121.52 1055.09 1117.71L586.49 860.152ZM751.088 1280.24C751.108 1280.01 751.127 1279.77 751.145 1279.53C753.691 1245.35 731.165 1204.71 700.832 1188.75C670.5 1172.79 643.846 1187.56 641.3 1221.74C641.283 1221.98 641.266 1222.22 641.251 1222.45L751.088 1280.24ZM923.979 1379.53L923.993 1379.34C926.539 1345.16 904.013 1304.51 873.681 1288.55C843.348 1272.6 816.694 1287.37 814.148 1321.55C814.131 1321.78 814.114 1322.02 814.099 1322.26L923.936 1380.05C923.951 1379.87 923.965 1379.7 923.979 1379.53Z" fill="#FFDA18"/>
</svg>
