<svg width="759" height="758" viewBox="0 0 759 758" fill="none" xmlns="http://www.w3.org/2000/svg">
<rect x="0.5" width="758" height="758" fill="white"/>
<path fill-rule="evenodd" clip-rule="evenodd" d="M294.473 113.031L272.761 127.847L516.347 285.635L468.393 318.633L261.775 184.918L242.239 173.027L241.918 173.522V172.832L217.679 158.077V265.431L303.507 324.837V588.135L312.936 594.438L361.932 627.307L390.054 645.211V605.742L390.046 605.741V515.355L423.72 537.581V621.157L447.96 604.58V553.579L468.34 567.031L541.168 516.213V409.325L541.207 409.268L541.168 409.242V409.184L541.125 409.213L516.577 392.743L541.168 375.584V287.33L541.193 287.292V273.051L532.729 267.579L532.935 267.499L294.473 113.031ZM365.807 470.313V600.622L327.746 575.181V312.6H327.657L327.903 312.244L241.918 252.729V200.94L468.806 347.772L516.929 314.658V362.941L494.983 378.254L494.823 378.146L494.545 378.56L467.955 397.113L368.936 331.875V415.22H368.949V423.394L468.785 488.415L516.929 455.287V503.569L467.961 537.738L365.807 470.313ZM468.346 426.398L495.251 407.624L519.647 423.993L468.414 459.247L393.188 410.253V376.881L468.346 426.398Z" fill="#933EFF"/>
</svg>
