<svg width="2206" height="2205" viewBox="0 0 2206 2205" fill="none" xmlns="http://www.w3.org/2000/svg">
<rect width="2205" height="2205" transform="translate(0.0117188)" fill="white"/>
<path d="M751.1 1280.24C751.12 1280.01 751.139 1279.77 751.156 1279.53C753.702 1245.35 731.177 1204.71 700.844 1188.75C670.511 1172.79 643.858 1187.56 641.312 1221.74C641.301 1221.89 641.29 1222.04 641.28 1222.2C641.274 1222.28 641.268 1222.37 641.263 1222.45L751.1 1280.24Z" fill="black"/>
<path d="M923.948 1380.05C923.968 1379.81 923.987 1379.58 924.005 1379.34C926.551 1345.16 904.025 1304.51 873.692 1288.55C843.36 1272.6 816.706 1287.37 814.16 1321.55C814.143 1321.78 814.126 1322.02 814.111 1322.26L923.948 1380.05Z" fill="black"/>
<path fill-rule="evenodd" clip-rule="evenodd" d="M1147.81 443.811C1119.61 428.308 1085.43 428.308 1057.22 443.811L593.029 698.95C592.642 699.163 592.258 699.377 591.876 699.593L530.759 733.186C500.696 749.71 482.017 781.292 482.017 815.596V1389.47C482.017 1423.78 500.696 1455.36 530.759 1471.88L999.354 1729.44C999.637 1729.6 999.921 1729.75 1000.2 1729.9C1000.53 1730.08 1000.85 1730.25 1001.17 1730.42L1057.22 1761.22C1085.43 1776.73 1119.61 1776.73 1147.81 1761.22L1204 1730.34C1204.56 1730.04 1205.12 1729.75 1205.67 1729.44L1674.27 1471.88C1704.33 1455.36 1723.01 1423.78 1723.01 1389.47V815.596C1723.01 781.292 1704.33 749.71 1674.27 733.186L1613.36 699.709L1613.27 699.658C1613.18 699.605 1613.09 699.552 1612.99 699.499C1612.88 699.437 1612.77 699.376 1612.66 699.314C1612.44 699.192 1612.23 699.071 1612.01 698.95L1147.81 443.811ZM1650.67 879.194C1650.67 877.603 1650.51 876.069 1650.2 874.602C1650.51 876.062 1650.67 877.588 1650.67 879.17V1326.36C1650.67 1326.2 1650.67 1326.04 1650.67 1325.87V879.194ZM1170.83 1666.02C1157.72 1673.22 1141.97 1665.32 1139.12 1651.5C1141.9 1665.05 1157.08 1672.93 1170.03 1666.47L1577.16 1442.69C1577.22 1442.66 1577.28 1442.63 1577.33 1442.6C1577.43 1442.54 1577.52 1442.49 1577.61 1442.44L1170.83 1666.02ZM1587.93 776.779C1589.75 785.384 1586.38 794.94 1577.8 800.016L1138.69 1041.37V1041.35L1112.97 1055.49C1106.46 1059.07 1098.57 1059.07 1092.06 1055.49L1066.34 1041.36V1041.37L627.335 800.074C621.706 796.781 618.295 791.567 617.103 785.946C615.223 777.125 618.811 767.296 627.866 762.319L1092.06 507.18C1098.57 503.602 1106.46 503.602 1112.97 507.18L1577.16 762.319C1583.12 765.595 1586.71 770.971 1587.93 776.779ZM1034.19 1666.02C1034.29 1666.08 1034.39 1666.13 1034.5 1666.19L1035.07 1666.51C1049.17 1673.48 1065.9 1663.48 1066.34 1647.68L1066.34 1647.49C1066.34 1647.33 1066.35 1647.17 1066.35 1647.01V1136.73C1066.35 1128.81 1062.04 1121.52 1055.1 1117.71L586.502 860.152C572.04 852.203 554.348 862.666 554.348 879.17V1389.45C554.348 1397.36 558.659 1404.65 565.596 1408.46L1034.19 1666.02Z" fill="black"/>
</svg>
