<svg width="758" height="759" viewBox="0 0 758 759" fill="none" xmlns="http://www.w3.org/2000/svg">
<rect y="0.25" width="758" height="758" fill="white"/>
<path fill-rule="evenodd" clip-rule="evenodd" d="M293.973 113.281L272.261 128.097L515.847 285.885L467.893 318.883L261.275 185.168L241.739 173.277L241.418 173.772V173.082L217.179 158.327V265.681L303.007 325.087V588.385L312.438 594.689L361.432 627.557L389.554 645.461V605.992L389.546 605.991V515.605L423.22 537.831V621.407L447.46 604.83V553.829L467.84 567.281L540.668 516.463V409.575L540.707 409.518L540.668 409.492V409.434L540.625 409.463L516.077 392.993L540.668 375.834V287.58L540.693 287.542V273.301L532.229 267.829L532.435 267.749L293.973 113.281ZM365.307 470.563V600.872L327.246 575.431V312.85H327.157L327.403 312.494L241.418 252.979V201.19L468.306 348.022L516.429 314.908V363.191L494.483 378.504L494.323 378.396L494.045 378.81L467.456 397.363L368.436 332.125V415.47H368.449V423.644L468.285 488.665L516.429 455.537V503.819L467.461 537.988L365.307 470.563ZM467.846 426.648L494.751 407.874L519.147 424.243L467.914 459.497L392.688 410.503V377.131L467.846 426.648Z" fill="black"/>
</svg>
