<svg width="2206" height="2205" viewBox="0 0 2206 2205" fill="none" xmlns="http://www.w3.org/2000/svg">
<rect width="2205" height="2205" transform="translate(0.780273)" fill="white"/>
<path fill-rule="evenodd" clip-rule="evenodd" d="M1148.94 443.818C1120.72 428.306 1086.52 428.306 1058.3 443.818L593.857 699.094C593.471 699.307 593.087 699.521 592.705 699.738L531.554 733.349C501.475 749.881 482.786 781.48 482.786 815.803V1389.99C482.786 1424.31 501.475 1455.91 531.554 1472.44L1000.4 1730.14C1001.01 1730.47 1001.61 1730.8 1002.22 1731.11L1058.3 1761.94C1086.52 1777.45 1120.72 1777.45 1148.94 1761.94L1205.16 1731.04C1205.72 1730.74 1206.28 1730.44 1206.83 1730.14L1675.68 1472.44C1705.76 1455.91 1724.45 1424.31 1724.45 1389.99V815.803C1724.45 781.481 1705.76 749.881 1675.68 733.349L1614.74 699.853C1614.29 699.597 1613.84 699.344 1613.38 699.094L1148.94 443.818ZM1178.78 1102.88L1613.38 864.003C1613.83 863.757 1614.27 863.509 1614.71 863.259L1619.9 860.407C1634.37 852.453 1652.07 862.923 1652.07 879.435V1326.36C1652.07 1342.87 1634.37 1353.34 1619.9 1345.38L1615.9 1343.18C1615.07 1342.7 1614.23 1342.22 1613.38 1341.75L1178.78 1102.88ZM592.736 863.377C593.108 863.588 593.482 863.796 593.857 864.003L1028.46 1102.88L593.857 1341.75C593.044 1342.2 592.241 1342.66 591.447 1343.12L587.332 1345.38C572.862 1353.34 555.161 1342.87 555.161 1326.36V879.435C555.161 862.923 572.862 852.453 587.332 860.407L592.736 863.377ZM1579.17 762.89L1171.97 539.078C1157.69 531.228 1140.26 541.322 1139.81 557.459C1139.81 557.674 1139.81 557.89 1139.81 558.106V1041.7L1579.16 800.214C1593.31 791.84 1593.32 771.271 1579.17 762.89ZM628.183 800.272L1067.42 1041.7V558.106C1067.42 557.89 1067.42 557.674 1067.43 557.459C1066.97 541.322 1049.54 531.229 1035.26 539.078L628.169 762.833C613.892 771.196 613.897 791.917 628.183 800.272ZM628.719 1443.24C614.105 1435.2 613.724 1414.54 627.575 1405.85L1067.42 1164.09V1647.68C1067.42 1647.9 1067.42 1648.12 1067.43 1648.33C1066.98 1664.14 1050.25 1674.15 1036.14 1667.17L628.719 1443.24ZM1139.81 1647.68V1164.09L1579.71 1405.88C1593.52 1414.59 1593.12 1435.21 1578.52 1443.24L1171.16 1667.13C1157.04 1674.18 1140.25 1664.17 1139.81 1648.33C1139.81 1648.22 1139.81 1648.12 1139.81 1648.01C1139.81 1647.9 1139.81 1647.79 1139.81 1647.68Z" fill="#0D1A2B"/>
<path d="M1093.16 507.22C1099.67 503.641 1107.56 503.641 1114.07 507.22L1578.52 762.497C1593.52 770.744 1593.52 792.305 1578.52 800.552L1114.07 1055.83C1107.56 1059.41 1099.67 1059.41 1093.16 1055.83L628.714 800.552C613.708 792.305 613.708 770.744 628.714 762.497L1093.16 507.22Z" fill="#E7C200"/>
<path d="M555.156 879.411C555.156 862.898 572.857 852.429 587.327 860.383L1056.18 1118.08C1063.12 1121.9 1067.43 1129.19 1067.43 1137.11V1647.66C1067.43 1664.17 1049.73 1674.64 1035.26 1666.69L566.41 1408.99C559.469 1405.18 555.156 1397.88 555.156 1389.96V879.411Z" fill="#FFDA18"/>
<path d="M1619.9 860.383C1634.37 852.429 1652.07 862.898 1652.07 879.411V1389.96C1652.07 1397.88 1647.75 1405.18 1640.81 1408.99L1171.97 1666.69C1157.49 1674.64 1139.79 1664.17 1139.79 1647.66V1137.11C1139.79 1129.19 1144.11 1121.9 1151.05 1118.08L1619.9 860.383Z" fill="white"/>
<path d="M752.07 1279.99C752.053 1280.23 752.034 1280.46 752.014 1280.7L642.117 1222.88C642.133 1222.64 642.149 1222.4 642.167 1222.17C644.714 1187.97 671.382 1173.19 701.731 1189.16C732.08 1205.12 754.618 1245.79 752.07 1279.99Z" fill="#0D1A2B"/>
<path d="M925.012 1379.85C924.994 1380.09 924.975 1380.32 924.955 1380.56L815.059 1322.74C815.074 1322.5 815.091 1322.26 815.108 1322.03C817.656 1287.83 844.323 1273.05 874.672 1289.02C905.021 1304.98 927.559 1345.65 925.012 1379.85Z" fill="#0D1A2B"/>
</svg>
