<svg width="758" height="758" viewBox="0 0 758 758" fill="none" xmlns="http://www.w3.org/2000/svg">
<rect width="758" height="758" fill="#933EFF"/>
<path fill-rule="evenodd" clip-rule="evenodd" d="M294.089 112.81L272.377 127.626L515.963 285.413L468.009 318.411L261.38 184.69L241.854 172.805L241.534 173.301V172.61L217.294 157.855V265.21L303.122 324.615V587.913L312.565 594.225L361.546 627.085L389.67 644.989V605.521L389.662 605.52V515.133L423.336 537.359V620.936L447.575 604.359V553.358L467.956 566.81L540.784 515.991V409.104L540.822 409.047L540.784 409.021V408.962L540.74 408.992L516.193 392.521L540.784 375.362V287.108L540.809 287.07V272.83L532.344 267.358L532.551 267.278L294.089 112.81ZM365.422 470.091V600.401L327.362 574.96V312.378H327.272L327.519 312.022L241.534 252.508V200.719L468.422 347.551L516.544 314.437V362.719L494.599 378.032L494.438 377.925L494.161 378.338L467.571 396.892L368.552 331.653V414.998H368.564V423.172L468.401 488.194L516.544 455.065V503.348L467.577 537.517L365.422 470.091ZM467.962 426.177L494.867 407.402L519.263 423.771L468.03 459.025L392.804 410.032V376.659L467.962 426.177Z" fill="white"/>
</svg>
