<svg width="2206" height="2205" viewBox="0 0 2206 2205" fill="none" xmlns="http://www.w3.org/2000/svg">
<rect width="2205" height="2205" transform="translate(0.890137)" fill="#FFDA18"/>
<path fill-rule="evenodd" clip-rule="evenodd" d="M1148.69 443.812C1120.48 428.308 1086.31 428.308 1058.1 443.812L593.907 698.951C593.521 699.163 593.137 699.377 592.755 699.594L531.637 733.187C501.575 749.71 482.895 781.293 482.895 815.597V1389.47C482.895 1423.78 501.575 1455.36 531.637 1471.88L1000.23 1729.44C1000.84 1729.77 1001.44 1730.1 1002.05 1730.42L1058.1 1761.22C1086.31 1776.73 1120.48 1776.73 1148.69 1761.22L1204.88 1730.34C1205.44 1730.04 1206 1729.75 1206.55 1729.44L1675.15 1471.88C1705.21 1455.36 1723.89 1423.78 1723.89 1389.47V815.597C1723.89 781.293 1705.21 749.71 1675.15 733.187L1614.24 699.709C1613.79 699.454 1613.34 699.201 1612.88 698.951L1148.69 443.812ZM1178.52 1102.52L1612.88 863.77C1613.33 863.525 1613.77 863.277 1614.21 863.027L1619.4 860.177C1633.86 852.227 1651.55 862.691 1651.55 879.194V1325.87C1651.55 1342.38 1633.86 1352.84 1619.4 1344.89L1615.4 1342.69C1614.57 1342.21 1613.73 1341.73 1612.88 1341.26L1178.52 1102.52ZM592.787 863.145C593.158 863.356 593.532 863.564 593.907 863.77L1028.28 1102.52L593.907 1341.26C593.094 1341.71 592.291 1342.17 591.499 1342.63L587.386 1344.89C572.923 1352.84 555.232 1342.38 555.232 1325.87V879.194C555.232 862.691 572.923 852.227 587.386 860.177L592.787 863.145ZM1578.69 762.712L1171.71 539.02C1157.44 531.175 1140.02 541.263 1139.56 557.392C1139.57 557.607 1139.57 557.822 1139.57 558.038V1041.37L1578.68 800.016C1592.82 791.646 1592.83 771.088 1578.69 762.712ZM628.214 800.074L1067.22 1041.37V558.038C1067.22 557.822 1067.22 557.607 1067.22 557.392C1066.77 541.263 1049.35 531.175 1035.08 539.02L628.201 762.655C613.931 771.014 613.936 791.723 628.214 800.074ZM628.75 1442.69C614.144 1434.66 613.763 1414.01 627.607 1405.33L1067.22 1163.7V1647.03C1067.22 1647.25 1067.22 1647.46 1067.22 1647.68C1066.78 1663.48 1050.05 1673.48 1035.95 1666.51L628.75 1442.69ZM1139.57 1647.03V1163.7L1579.23 1405.36C1593.03 1414.06 1592.63 1434.67 1578.04 1442.69L1170.9 1666.47C1156.79 1673.51 1140.01 1663.5 1139.56 1647.68C1139.57 1647.57 1139.57 1647.46 1139.57 1647.36C1139.57 1647.25 1139.57 1647.14 1139.57 1647.03Z" fill="#0D1A2B"/>
<path d="M1092.94 507.18C1099.45 503.603 1107.33 503.603 1113.84 507.18L1578.04 762.319C1593.03 770.562 1593.03 792.111 1578.04 800.355L1113.84 1055.49C1107.33 1059.07 1099.45 1059.07 1092.94 1055.49L628.745 800.355C613.747 792.111 613.747 770.562 628.745 762.319L1092.94 507.18Z" fill="#E7C200"/>
<path d="M555.227 879.17C555.227 862.667 572.918 852.203 587.381 860.152L1055.98 1117.71C1062.91 1121.52 1067.22 1128.81 1067.22 1136.73V1647.01C1067.22 1663.51 1049.53 1673.97 1035.07 1666.02L566.475 1408.47C559.538 1404.65 555.227 1397.36 555.227 1389.45V879.17Z" fill="#FFDA18"/>
<path d="M1619.39 860.152C1633.86 852.203 1651.55 862.667 1651.55 879.17V1389.45C1651.55 1397.36 1647.24 1404.65 1640.3 1408.47L1171.7 1666.02C1157.24 1673.97 1139.55 1663.51 1139.55 1647.01V1136.73C1139.55 1128.81 1143.86 1121.52 1150.8 1117.71L1619.39 860.152Z" fill="white"/>
<path d="M752.035 1279.53C752.018 1279.77 751.999 1280.01 751.979 1280.24L642.141 1222.45C642.157 1222.22 642.173 1221.98 642.191 1221.74C644.737 1187.56 671.39 1172.79 701.723 1188.75C732.056 1204.71 754.581 1245.35 752.035 1279.53Z" fill="#0D1A2B"/>
<path d="M924.883 1379.34C924.866 1379.58 924.847 1379.81 924.827 1380.05L814.99 1322.26C815.005 1322.02 815.021 1321.78 815.039 1321.55C817.585 1287.37 844.239 1272.6 874.571 1288.55C904.904 1304.51 927.429 1345.16 924.883 1379.34Z" fill="#0D1A2B"/>
</svg>
