<svg width="2206" height="2205" viewBox="0 0 2206 2205" fill="none" xmlns="http://www.w3.org/2000/svg">
<rect width="2205" height="2205" transform="translate(0.790039)" fill="black"/>
<path d="M751.878 1280.24C751.898 1280.01 751.917 1279.77 751.935 1279.53C754.481 1245.35 731.955 1204.71 701.622 1188.75C671.29 1172.79 644.636 1187.56 642.09 1221.74C642.079 1221.89 642.068 1222.04 642.058 1222.2C642.052 1222.28 642.046 1222.37 642.041 1222.45L751.878 1280.24Z" fill="white"/>
<path d="M924.726 1380.05C924.746 1379.81 924.765 1379.58 924.783 1379.34C927.329 1345.16 904.803 1304.51 874.471 1288.55C844.138 1272.6 817.485 1287.37 814.939 1321.55C814.921 1321.78 814.904 1322.02 814.889 1322.26L924.726 1380.05Z" fill="white"/>
<path fill-rule="evenodd" clip-rule="evenodd" d="M1148.59 443.811C1120.38 428.308 1086.21 428.308 1058 443.811L593.807 698.95C593.421 699.163 593.036 699.377 592.655 699.593L531.537 733.186C501.475 749.71 482.795 781.292 482.795 815.596V1389.47C482.795 1423.78 501.475 1455.36 531.537 1471.88L1000.13 1729.44C1000.42 1729.6 1000.7 1729.75 1000.98 1729.9C1001.31 1730.08 1001.63 1730.25 1001.95 1730.42L1058 1761.22C1086.21 1776.73 1120.38 1776.73 1148.59 1761.22L1204.78 1730.34C1205.34 1730.04 1205.9 1729.75 1206.45 1729.44L1675.05 1471.88C1705.11 1455.36 1723.79 1423.78 1723.79 1389.47V815.596C1723.79 781.292 1705.11 749.71 1675.05 733.186L1614.14 699.709L1614.05 699.658C1613.96 699.605 1613.86 699.552 1613.77 699.499C1613.66 699.437 1613.55 699.376 1613.44 699.314C1613.22 699.192 1613 699.071 1612.78 698.95L1148.59 443.811ZM1651.45 879.194C1651.45 877.603 1651.29 876.069 1650.98 874.602C1651.29 876.062 1651.45 877.588 1651.45 879.17V1326.36C1651.45 1326.2 1651.45 1326.04 1651.45 1325.87V879.194ZM1171.6 1666.02C1158.5 1673.22 1142.75 1665.32 1139.9 1651.5C1142.68 1665.05 1157.86 1672.93 1170.8 1666.47L1577.94 1442.69C1578 1442.66 1578.06 1442.63 1578.11 1442.6C1578.21 1442.54 1578.3 1442.49 1578.39 1442.44L1171.6 1666.02ZM1588.71 776.779C1590.53 785.384 1587.15 794.94 1578.58 800.016L1139.47 1041.37V1041.35L1113.74 1055.49C1107.23 1059.07 1099.35 1059.07 1092.84 1055.49L1067.12 1041.36V1041.37L628.114 800.074C622.484 796.781 619.073 791.567 617.882 785.946C616.001 777.125 619.589 767.296 628.645 762.319L1092.84 507.18C1099.35 503.602 1107.23 503.602 1113.74 507.18L1577.94 762.319C1583.9 765.595 1587.49 770.971 1588.71 776.779ZM1034.97 1666.02C1035.07 1666.08 1035.17 1666.13 1035.27 1666.19L1035.85 1666.51C1049.95 1673.48 1066.68 1663.48 1067.12 1647.68L1067.12 1647.49C1067.12 1647.33 1067.12 1647.17 1067.12 1647.01V1136.73C1067.12 1128.81 1062.81 1121.52 1055.88 1117.71L587.28 860.152C572.818 852.203 555.127 862.666 555.127 879.17V1389.45C555.127 1397.36 559.437 1404.65 566.375 1408.46L1034.97 1666.02Z" fill="white"/>
</svg>
