<svg width="6506" height="2356" viewBox="0 0 6506 2356" fill="none" xmlns="http://www.w3.org/2000/svg">
<rect width="6505" height="2356" transform="translate(0.0117188)" fill="#0D1A2B"/>
<path d="M3177.49 1716.93V1397.11C3177.49 1367.86 3168.25 1344.38 3149.78 1326.68C3132.07 1308.2 3109.36 1298.97 3081.65 1298.97C3062.41 1298.97 3045.48 1303.2 3030.85 1311.67C3016.23 1319.37 3004.68 1330.91 2996.21 1346.31C2987.75 1360.93 2983.51 1377.86 2983.51 1397.11L2915.39 1363.62C2915.39 1319.75 2925.01 1281.26 2944.26 1248.17C2963.5 1215.07 2990.06 1189.67 3023.92 1171.96C3058.56 1153.49 3097.43 1144.25 3140.54 1144.25C3182.1 1144.25 3218.67 1154.26 3250.23 1174.27C3282.55 1193.51 3307.95 1219.3 3326.43 1251.63C3344.9 1283.96 3344.36 1319.37 3344.36 1357.85V1716.93H3177.49ZM2806.86 1716.93V1155.8H2983.51V1716.93H2806.86Z" fill="white"/>
<path d="M2416.35 1731.83C2355.54 1731.83 2301.27 1719.51 2253.55 1694.88C2206.6 1669.48 2169.65 1634.46 2142.71 1589.81C2115.77 1545.17 2102.3 1494.75 2102.3 1438.56C2102.3 1382.37 2115.38 1332.34 2141.55 1288.46C2168.49 1243.82 2204.67 1208.8 2250.08 1183.4C2295.5 1157.99 2346.69 1145.29 2403.65 1145.29C2459.07 1145.29 2507.94 1157.22 2550.28 1181.09C2592.61 1204.95 2625.71 1238.05 2649.57 1280.38C2674.21 1322.72 2686.52 1371.21 2686.52 1425.86C2686.52 1435.87 2685.75 1446.64 2684.21 1458.19C2683.44 1468.96 2681.52 1481.67 2678.44 1496.29L2194.66 1497.44V1376.21L2603.39 1375.06L2527.19 1425.86C2526.42 1393.53 2521.41 1366.98 2512.18 1346.19C2502.94 1324.64 2489.09 1308.48 2470.61 1297.7C2452.91 1286.15 2430.97 1280.38 2404.8 1280.38C2377.09 1280.38 2352.84 1286.92 2332.06 1300.01C2312.05 1312.32 2296.27 1330.03 2284.72 1353.12C2273.95 1376.21 2268.56 1404.31 2268.56 1437.41C2268.56 1470.5 2274.33 1498.98 2285.88 1522.85C2298.19 1545.94 2315.13 1564.03 2336.68 1577.11C2359 1589.43 2385.17 1595.58 2415.19 1595.58C2442.9 1595.58 2467.92 1590.97 2490.24 1581.73C2512.56 1571.72 2532.19 1557.1 2549.12 1537.86L2646.11 1634.84C2618.4 1667.17 2584.92 1691.42 2545.66 1707.58C2506.4 1723.74 2463.3 1731.83 2416.35 1731.83Z" fill="white"/>
<path d="M1737.48 1730.68C1699.76 1730.68 1665.13 1723.36 1633.57 1708.74C1602.01 1694.11 1576.22 1674.1 1556.21 1648.7C1536.2 1622.53 1524.65 1592.89 1521.57 1559.8V1323.1C1524.65 1290.01 1536.2 1259.99 1556.21 1233.05C1576.22 1206.11 1602.01 1184.94 1633.57 1169.54C1665.13 1154.15 1699.76 1146.45 1737.48 1146.45C1790.59 1146.45 1837.55 1159.15 1878.34 1184.55C1919.91 1209.95 1952.23 1244.59 1975.33 1288.47C1999.19 1332.34 2011.12 1382.37 2011.12 1438.56C2011.12 1494.75 1999.19 1544.79 1975.33 1588.66C1952.23 1632.53 1919.91 1667.17 1878.34 1692.57C1837.55 1717.97 1790.59 1730.68 1737.48 1730.68ZM1705.15 1571.34C1730.55 1571.34 1752.49 1565.57 1770.96 1554.02C1790.21 1542.48 1805.22 1526.7 1815.99 1506.68C1826.77 1486.67 1832.16 1463.96 1832.16 1438.56C1832.16 1412.39 1826.77 1389.3 1815.99 1369.29C1805.22 1349.27 1790.21 1333.88 1770.96 1323.1C1752.49 1311.56 1730.94 1305.78 1706.31 1305.78C1681.68 1305.78 1659.74 1311.56 1640.49 1323.1C1622.02 1333.88 1607.4 1349.27 1596.62 1369.29C1585.84 1389.3 1580.46 1412.39 1580.46 1438.56C1580.46 1463.96 1585.46 1486.67 1595.47 1506.68C1606.24 1526.7 1621.25 1542.48 1640.49 1554.02C1659.74 1565.57 1681.29 1571.34 1705.15 1571.34ZM1414.19 1955.82V1158H1590.85V1302.32L1561.98 1438.56L1588.54 1574.81V1955.82H1414.19Z" fill="white"/>
<path d="M867.027 1743.47C805.449 1743.47 748.489 1732.69 696.148 1711.14C644.576 1689.59 599.162 1659.57 559.906 1621.08C520.65 1582.6 490.245 1537.95 468.693 1487.15C447.14 1435.58 436.364 1380.16 436.364 1320.89C436.364 1260.85 447.14 1205.43 468.693 1154.63C490.245 1103.83 520.265 1059.57 558.751 1021.85C597.238 983.363 642.267 953.729 693.839 932.946C746.18 911.394 803.14 900.618 864.718 900.618C925.527 900.618 981.717 911.394 1033.29 932.946C1085.63 953.729 1131.04 983.363 1169.53 1021.85C1208.79 1059.57 1239.19 1104.21 1260.74 1155.78C1282.3 1206.58 1293.07 1262.01 1293.07 1322.04C1293.07 1381.31 1282.3 1436.73 1260.74 1488.31C1239.19 1539.11 1209.17 1583.75 1170.69 1622.24C1132.2 1659.95 1086.79 1689.59 1034.44 1711.14C982.872 1732.69 927.066 1743.47 867.027 1743.47ZM864.718 1578.36C913.211 1578.36 955.546 1567.59 991.723 1546.03C1028.67 1524.48 1057.15 1494.46 1077.16 1455.98C1097.18 1416.72 1107.18 1371.69 1107.18 1320.89C1107.18 1282.4 1101.41 1247.77 1089.86 1216.98C1078.32 1185.42 1061.77 1158.48 1040.22 1136.15C1018.66 1113.06 992.878 1095.74 962.859 1084.2C933.609 1071.88 900.896 1065.72 864.718 1065.72C816.225 1065.72 773.505 1076.5 736.558 1098.05C700.381 1118.84 672.286 1148.47 652.273 1186.96C632.26 1224.67 622.254 1269.32 622.254 1320.89C622.254 1359.38 628.027 1394.4 639.573 1425.96C651.119 1457.52 667.283 1484.84 688.066 1507.93C709.618 1530.26 735.404 1547.57 765.423 1559.89C795.443 1572.21 828.541 1578.36 864.718 1578.36Z" fill="white"/>
<path d="M5404.39 1731.25C5352.82 1731.25 5307.02 1720.86 5266.99 1700.08C5227.74 1678.53 5196.95 1649.28 5174.63 1612.33C5152.3 1574.61 5141.14 1531.51 5141.14 1483.02V1157.42H5317.8V1480.71C5317.8 1499.95 5320.87 1516.5 5327.03 1530.35C5333.96 1544.21 5343.97 1554.99 5357.05 1562.68C5370.14 1570.38 5385.92 1574.23 5404.39 1574.23C5430.56 1574.23 5451.34 1566.15 5466.74 1549.98C5482.13 1533.05 5489.83 1509.96 5489.83 1480.71V1157.42H5666.48V1481.86C5666.48 1531.12 5655.32 1574.61 5633 1612.33C5610.68 1649.28 5579.89 1678.53 5540.63 1700.08C5501.38 1720.86 5455.96 1731.25 5404.39 1731.25Z" fill="white"/>
<path d="M4718.15 1718.63V1109C4718.15 1063.59 4728.16 1022.79 4748.17 986.617C4768.95 949.67 4797.82 920.805 4834.77 900.023C4871.71 878.47 4915.59 867.694 4966.39 867.694C5004.88 867.694 5038.36 874.237 5066.84 887.322C5096.09 899.638 5121.49 916.957 5143.04 939.279L5032.2 1050.12C5024.5 1042.42 5015.65 1036.65 5005.65 1032.8C4996.41 1028.18 4985.25 1025.87 4972.16 1025.87C4948.3 1025.87 4929.44 1032.8 4915.59 1046.66C4901.73 1060.51 4894.81 1079.37 4894.81 1103.23V1718.63H4718.15ZM4594.61 1307.59V1157.5H5056.45V1307.59H4594.61Z" fill="white"/>
<path d="M4210.34 1730.79C4152.61 1730.79 4100.27 1718.08 4053.31 1692.68C4007.13 1666.51 3970.57 1631.11 3943.63 1586.46C3916.69 1541.82 3903.22 1491.78 3903.22 1436.36C3903.22 1380.94 3916.69 1331.3 3943.63 1287.42C3970.57 1243.55 4007.13 1208.91 4053.31 1183.51C4099.5 1157.34 4151.84 1144.25 4210.34 1144.25C4268.84 1144.25 4321.18 1156.95 4367.36 1182.35C4413.55 1207.75 4450.11 1242.78 4477.05 1287.42C4503.99 1331.3 4517.46 1380.94 4517.46 1436.36C4517.46 1491.78 4503.99 1541.82 4477.05 1586.46C4450.11 1631.11 4413.55 1666.51 4367.36 1692.68C4321.18 1718.08 4268.84 1730.79 4210.34 1730.79ZM4210.34 1570.3C4235.74 1570.3 4258.06 1564.91 4277.3 1554.13C4296.55 1542.59 4311.17 1526.81 4321.18 1506.79C4331.95 1486.01 4337.34 1462.53 4337.34 1436.36C4337.34 1410.19 4331.95 1387.49 4321.18 1368.24C4310.4 1348.23 4295.39 1332.84 4276.15 1322.06C4257.68 1310.51 4235.74 1304.74 4210.34 1304.74C4185.71 1304.74 4163.77 1310.51 4144.53 1322.06C4125.28 1332.84 4110.27 1348.23 4099.5 1368.24C4088.72 1388.26 4083.33 1411.35 4083.33 1437.52C4083.33 1462.92 4088.72 1486.01 4099.5 1506.79C4110.27 1526.81 4125.28 1542.59 4144.53 1554.13C4163.77 1564.91 4185.71 1570.3 4210.34 1570.3Z" fill="white"/>
<path d="M3562.46 1715.76V912.163H3743.74V1715.76H3562.46ZM3307.3 1058.8V900.618H3991.08V1058.8H3307.3Z" fill="white"/>
<path d="M5795.67 436.947C5798.86 435.194 5802.73 435.194 5805.92 436.947L6033.4 561.979C6040.75 566.019 6040.75 576.579 6033.4 580.619L5805.92 705.651C5802.73 707.404 5798.86 707.404 5795.67 705.651L5568.19 580.619C5560.84 576.579 5560.84 566.019 5568.19 561.979L5795.67 436.947Z" fill="#E7C200"/>
<path d="M6053.66 609.923C6060.75 606.028 6069.42 611.156 6069.42 619.243V869.307C6069.42 873.186 6067.31 876.758 6063.91 878.627L5834.27 1004.84C5827.18 1008.74 5818.51 1003.61 5818.51 995.525V745.461C5818.51 741.582 5820.63 738.01 5824.02 736.141L6053.66 609.923Z" fill="white"/>
<path fill-rule="evenodd" clip-rule="evenodd" d="M5547.92 609.923C5540.84 606.028 5532.17 611.156 5532.17 619.243V869.307C5532.17 873.186 5534.28 876.758 5537.68 878.627L5767.32 1004.84C5774.4 1008.74 5783.07 1003.61 5783.07 995.525V745.461C5783.07 741.582 5780.96 738.01 5777.56 736.141L5547.92 609.923ZM5628.6 815.621C5628.6 815.561 5628.61 815.502 5628.61 815.443C5629.86 798.693 5618.82 778.774 5603.95 770.953C5589.09 763.133 5576.03 770.371 5574.78 787.121C5574.77 787.238 5574.76 787.354 5574.76 787.471L5628.58 815.79C5628.59 815.734 5628.59 815.677 5628.6 815.621ZM5713.29 864.701C5713.3 864.585 5713.31 864.47 5713.31 864.353C5714.56 847.603 5703.52 827.685 5688.66 819.864C5673.79 812.043 5660.73 819.282 5659.49 836.032C5659.48 836.148 5659.47 836.265 5659.46 836.382L5713.29 864.701Z" fill="#FFDA18"/>
</svg>
