<svg width="1301" height="758" viewBox="0 0 1301 758" fill="none" xmlns="http://www.w3.org/2000/svg">
<rect width="1300.5" height="758" transform="translate(0.5)" fill="#060B3D"/>
<path fill-rule="evenodd" clip-rule="evenodd" d="M220.218 189L204.726 199.571L378.528 312.155L344.312 335.7L194.853 238.976L182.984 231.752L182.718 232.161V231.59L165.423 221.063V297.739L226.663 340.126V527.993L233.275 532.413L268.358 555.948L288.416 568.718V540.556L288.41 540.555V476.063L312.437 491.922V551.555L329.732 539.727V503.337L344.274 512.935L396.237 476.675V400.41L396.265 400.369L396.237 400.35V400.309L396.207 400.33L378.692 388.578L396.237 376.335V313.364L396.255 313.337V303.176L390.216 299.272L390.363 299.215L220.218 189ZM271.115 443.925V536.903L243.958 518.75V331.395H243.894L244.07 331.141L182.718 288.676V251.725L344.606 356.491L378.942 332.864V367.314L363.284 378.24L363.169 378.163L362.971 378.459L343.999 391.697L273.347 345.148V404.616H273.357V410.448L344.591 456.842L378.942 433.204V467.654L344.003 492.034L271.115 443.925ZM344.278 412.592L363.476 399.196L380.882 410.875L344.326 436.03L290.652 401.072V377.26L344.278 412.592Z" fill="#933EFF"/>
<path d="M532.172 444.955C520.743 444.955 510.238 442.299 500.656 436.988C491.19 431.677 483.629 424.288 477.972 414.82C472.431 405.237 469.66 394.499 469.66 382.607C469.66 370.715 472.431 360.035 477.972 350.567C483.629 341.1 491.19 333.71 500.656 328.399C510.238 323.088 520.743 320.433 532.172 320.433C543.601 320.433 554.049 323.088 563.515 328.399C573.097 333.71 580.601 341.1 586.027 350.567C591.568 360.035 594.338 370.715 594.338 382.607C594.338 394.499 591.568 405.237 586.027 414.82C580.485 424.288 572.982 431.677 563.515 436.988C554.049 442.299 543.601 444.955 532.172 444.955ZM532.172 417.938C541.87 417.938 549.604 414.705 555.376 408.239C561.264 401.773 564.208 393.229 564.208 382.607C564.208 371.87 561.264 363.326 555.376 356.975C549.604 350.51 541.87 347.277 532.172 347.277C522.36 347.277 514.51 350.452 508.622 356.802C502.85 363.152 499.964 371.754 499.964 382.607C499.964 393.345 502.85 401.946 508.622 408.412C514.51 414.762 522.36 417.938 532.172 417.938Z" fill="white"/>
<path d="M640.423 360.786C643.309 356.283 647.292 352.646 652.372 349.875C657.451 347.104 663.396 345.718 670.208 345.718C678.173 345.718 685.388 347.739 691.853 351.78C698.318 355.821 703.397 361.594 707.092 369.099C710.901 376.603 712.806 385.32 712.806 395.25C712.806 405.179 710.901 413.954 707.092 421.574C703.397 429.079 698.318 434.91 691.853 439.066C685.388 443.107 678.173 445.128 670.208 445.128C663.512 445.128 657.567 443.742 652.372 440.971C647.292 438.2 643.309 434.621 640.423 430.234V489.81H610.812V347.104H640.423V360.786ZM682.675 395.25C682.675 387.861 680.597 382.088 676.442 377.931C672.401 373.659 667.379 371.523 661.376 371.523C655.489 371.523 650.467 373.659 646.311 377.931C642.27 382.203 640.25 388.034 640.25 395.423C640.25 402.812 642.27 408.643 646.311 412.915C650.467 417.187 655.489 419.323 661.376 419.323C667.264 419.323 672.286 417.187 676.442 412.915C680.597 408.528 682.675 402.639 682.675 395.25Z" fill="white"/>
<path d="M823.522 393.864C823.522 396.635 823.349 399.522 823.003 402.524H755.988C756.45 408.528 758.354 413.146 761.702 416.379C765.166 419.496 769.379 421.055 774.343 421.055C781.732 421.055 786.869 417.937 789.755 411.703H821.271C819.655 418.053 816.711 423.768 812.44 428.848C808.284 433.928 803.031 437.912 796.682 440.798C790.332 443.685 783.232 445.128 775.382 445.128C765.916 445.128 757.489 443.107 750.1 439.066C742.712 435.025 736.94 429.252 732.784 421.748C728.628 414.243 726.55 405.468 726.55 395.423C726.55 385.378 728.57 376.603 732.611 369.099C736.767 361.594 742.539 355.821 749.927 351.78C757.315 347.739 765.801 345.718 775.382 345.718C784.733 345.718 793.045 347.681 800.318 351.607C807.591 355.532 813.248 361.132 817.288 368.406C821.444 375.68 823.522 384.166 823.522 393.864ZM793.218 386.071C793.218 380.991 791.487 376.95 788.023 373.948C784.56 370.946 780.231 369.445 775.036 369.445C770.072 369.445 765.858 370.888 762.395 373.775C759.047 376.661 756.969 380.76 756.161 386.071H793.218Z" fill="white"/>
<path d="M898.019 346.065C909.333 346.065 918.337 349.759 925.033 357.149C931.844 364.422 935.25 374.467 935.25 387.283V443.742H905.812V391.267C905.812 384.801 904.138 379.778 900.79 376.199C897.442 372.62 892.94 370.83 887.283 370.83C881.626 370.83 877.124 372.62 873.776 376.199C870.429 379.778 868.755 384.801 868.755 391.267V443.742H839.143V347.104H868.755V359.92C871.756 355.648 875.797 352.299 880.876 349.875C885.956 347.335 891.67 346.065 898.019 346.065Z" fill="white"/>
<path d="M1043.27 322.165V345.891H1011.07V443.742H981.455V345.891H949.246V322.165H1043.27Z" fill="white"/>
<path d="M1137.27 322.165V345.891H1087.75V371.523H1124.8V394.557H1087.75V443.742H1058.14V322.165H1137.27Z" fill="white"/>
</svg>
