<svg width="1301" height="758" viewBox="0 0 1301 758" fill="none" xmlns="http://www.w3.org/2000/svg">
<rect width="1300.5" height="758" transform="translate(0.5)" fill="#060B3D"/>
<path fill-rule="evenodd" clip-rule="evenodd" d="M258.71 206L244.624 215.612L402.647 317.974L371.537 339.381L235.648 251.439L224.856 244.87L224.615 245.243V244.724L208.89 235.152V304.867L264.57 343.405V514.216L270.569 518.226L302.48 539.634L320.716 551.243V525.639L320.711 525.638V467.001L342.556 481.42V535.639L358.281 524.885V491.799L371.503 500.525L418.749 467.557V398.216L418.774 398.179L418.749 398.162V398.124L418.721 398.143L402.796 387.458L418.749 376.327V319.074L418.765 319.048V309.81L413.274 306.261L413.408 306.209L258.71 206ZM304.986 437.781V522.317L280.295 505.812V335.467H280.237L280.397 335.236L224.615 296.627V263.03L371.805 358.285L403.024 336.803V368.125L388.787 378.059L388.683 377.989L388.502 378.258L371.253 390.294L307.016 347.972V402.04H307.024V407.343L371.791 449.524L403.024 428.033V459.355L371.257 481.522L304.986 437.781ZM371.507 409.292L388.961 397.112L404.788 407.731L371.551 430.602L322.749 398.818V377.168L371.507 409.292Z" fill="#933EFF"/>
<path d="M542.342 438.717C531.951 438.717 522.4 436.302 513.688 431.473C505.081 426.645 498.206 419.926 493.063 411.318C488.024 402.605 485.505 392.842 485.505 382.03C485.505 371.217 488.024 361.507 493.063 352.899C498.206 344.291 505.081 337.572 513.688 332.743C522.4 327.914 531.951 325.5 542.342 325.5C552.734 325.5 562.233 327.914 570.84 332.743C579.551 337.572 586.374 344.291 591.307 352.899C596.345 361.507 598.864 371.217 598.864 382.03C598.864 392.842 596.345 402.605 591.307 411.318C586.269 419.926 579.446 426.645 570.84 431.473C562.233 436.302 552.734 438.717 542.342 438.717ZM542.342 414.152C551.159 414.152 558.192 411.213 563.44 405.334C568.793 399.456 571.469 391.687 571.469 382.03C571.469 372.267 568.793 364.499 563.44 358.725C558.192 352.846 551.159 349.907 542.342 349.907C533.421 349.907 526.283 352.794 520.93 358.567C515.682 364.341 513.058 372.162 513.058 382.03C513.058 391.792 515.682 399.613 520.93 405.492C526.283 411.266 533.421 414.152 542.342 414.152Z" fill="white"/>
<path d="M640.765 362.189C643.389 358.095 647.01 354.788 651.629 352.269C656.247 349.749 661.653 348.49 667.845 348.49C675.088 348.49 681.648 350.327 687.526 354.001C693.404 357.675 698.022 362.924 701.381 369.747C704.845 376.571 706.576 384.497 706.576 393.525C706.576 402.552 704.845 410.531 701.381 417.459C698.022 424.283 693.404 429.584 687.526 433.363C681.648 437.037 675.088 438.874 667.845 438.874C661.758 438.874 656.352 437.615 651.629 435.095C647.01 432.576 643.389 429.321 640.765 425.332V479.5H613.842V349.749H640.765V362.189ZM679.181 393.525C679.181 386.806 677.292 381.557 673.513 377.778C669.84 373.894 665.274 371.952 659.816 371.952C654.463 371.952 649.897 373.894 646.118 377.778C642.445 381.662 640.608 386.964 640.608 393.682C640.608 400.4 642.445 405.702 646.118 409.586C649.897 413.47 654.463 415.412 659.816 415.412C665.169 415.412 669.735 413.47 673.513 409.586C677.292 405.597 679.181 400.243 679.181 393.525Z" fill="white"/>
<path d="M807.241 392.265C807.241 394.784 807.083 397.409 806.768 400.138H745.838C746.258 405.597 747.989 409.796 751.033 412.735C754.182 415.57 758.013 416.987 762.527 416.987C769.244 416.987 773.915 414.152 776.539 408.484H805.194C803.724 414.257 801.048 419.454 797.164 424.073C793.386 428.692 788.61 432.313 782.837 434.938C777.064 437.562 770.609 438.874 763.471 438.874C754.865 438.874 747.202 437.037 740.485 433.363C733.767 429.689 728.519 424.44 724.74 417.617C720.962 410.793 719.072 402.815 719.072 393.682C719.072 384.549 720.909 376.571 724.583 369.747C728.362 362.924 733.61 357.675 740.327 354.001C747.045 350.327 754.76 348.49 763.471 348.49C771.973 348.49 779.531 350.274 786.143 353.844C792.756 357.413 797.899 362.504 801.573 369.118C805.351 375.731 807.241 383.447 807.241 392.265ZM779.688 385.179C779.688 380.56 778.114 376.886 774.965 374.156C771.816 371.427 767.88 370.062 763.157 370.062C758.643 370.062 754.812 371.375 751.663 373.999C748.619 376.623 746.73 380.35 745.995 385.179H779.688Z" fill="white"/>
<path d="M874.974 348.805C885.261 348.805 893.448 352.164 899.535 358.882C905.728 365.496 908.825 374.629 908.825 386.281V437.615H882.059V389.903C882.059 384.024 880.537 379.458 877.493 376.203C874.45 372.949 870.356 371.322 865.213 371.322C860.07 371.322 855.976 372.949 852.932 376.203C849.888 379.458 848.366 384.024 848.366 389.903V437.615H821.444V349.749H848.366V361.402C851.095 357.518 854.769 354.473 859.387 352.269C864.006 349.959 869.201 348.805 874.974 348.805Z" fill="white"/>
<path d="M1007.04 327.075V348.647H977.758V437.615H950.835V348.647H921.55V327.075H1007.04Z" fill="white"/>
<path d="M1092.51 327.075V348.647H1047.48V371.952H1081.17V392.895H1047.48V437.615H1020.55V327.075H1092.51Z" fill="white"/>
</svg>
