<svg width="1301" height="758" viewBox="0 0 1301 758" fill="none" xmlns="http://www.w3.org/2000/svg">
<rect width="1300.5" height="758" fill="white"/>
<path fill-rule="evenodd" clip-rule="evenodd" d="M258.204 206L244.119 215.612L402.142 317.974L371.032 339.381L235.145 251.441L224.351 244.87L224.11 245.243V244.724L208.385 235.152V304.867L264.065 343.405V514.216L270.072 518.231L301.979 539.636L320.211 551.243V525.639L320.205 525.638V467.001L342.051 481.42V535.638L357.776 524.885V491.799L370.997 500.525L418.243 467.557V398.216L418.268 398.179L418.243 398.162V398.124L418.216 398.143L402.291 387.458L418.243 376.327V319.073L418.26 319.048V309.81L412.769 306.261L412.903 306.209L258.204 206ZM304.48 437.78V522.317L279.79 505.812V335.467H279.731L279.891 335.236L224.11 296.627V263.03L371.3 358.285L402.518 336.803V368.125L388.282 378.059L388.178 377.989L387.997 378.258L370.748 390.294L306.511 347.971V402.04H306.519V407.343L371.286 449.524L402.518 428.033V459.355L370.752 481.522L304.48 437.78ZM371.001 409.292L388.456 397.112L404.282 407.731L371.045 430.602L322.244 398.818V377.168L371.001 409.292Z" fill="#933EFF"/>
<path d="M541.837 438.717C531.446 438.717 521.894 436.302 513.182 431.473C504.575 426.645 497.7 419.926 492.557 411.318C487.519 402.605 485 392.842 485 382.03C485 371.217 487.519 361.507 492.557 352.899C497.7 344.291 504.575 337.572 513.182 332.743C521.894 327.914 531.446 325.5 541.837 325.5C552.228 325.5 561.727 327.914 570.334 332.743C579.046 337.572 585.869 344.291 590.802 352.899C595.84 361.507 598.359 371.217 598.359 382.03C598.359 392.842 595.84 402.605 590.802 411.318C585.764 419.926 578.941 426.645 570.334 431.473C561.727 436.302 552.228 438.717 541.837 438.717ZM541.837 414.152C550.654 414.152 557.686 411.213 562.934 405.334C568.287 399.456 570.964 391.687 570.964 382.03C570.964 372.267 568.287 364.499 562.934 358.725C557.686 352.846 550.654 349.907 541.837 349.907C532.915 349.907 525.778 352.794 520.425 358.567C515.177 364.341 512.553 372.162 512.553 382.03C512.553 391.792 515.177 399.613 520.425 405.492C525.778 411.266 532.915 414.152 541.837 414.152Z" fill="#060B3D"/>
<path d="M640.26 362.189C642.884 358.095 646.505 354.788 651.123 352.269C655.742 349.749 661.147 348.49 667.34 348.49C674.582 348.49 681.143 350.327 687.02 354.001C692.898 357.675 697.517 362.924 700.875 369.747C704.339 376.571 706.071 384.497 706.071 393.525C706.071 402.552 704.339 410.531 700.875 417.459C697.517 424.283 692.898 429.584 687.02 433.363C681.143 437.037 674.582 438.874 667.34 438.874C661.252 438.874 655.847 437.615 651.123 435.095C646.505 432.576 642.884 429.321 640.26 425.332V479.5H613.337V349.749H640.26V362.189ZM678.676 393.525C678.676 386.806 676.787 381.557 673.008 377.778C669.334 373.894 664.768 371.952 659.31 371.952C653.957 371.952 649.392 373.894 645.613 377.778C641.939 381.662 640.102 386.964 640.102 393.682C640.102 400.4 641.939 405.702 645.613 409.586C649.392 413.47 653.957 415.412 659.31 415.412C664.664 415.412 669.229 413.47 673.008 409.586C676.787 405.597 678.676 400.243 678.676 393.525Z" fill="#060B3D"/>
<path d="M806.735 392.265C806.735 394.784 806.578 397.409 806.263 400.138H745.332C745.752 405.597 747.484 409.796 750.528 412.735C753.677 415.57 757.508 416.987 762.021 416.987C768.739 416.987 773.41 414.152 776.034 408.484H804.688C803.219 414.257 800.542 419.454 796.659 424.073C792.88 428.692 788.104 432.313 782.332 434.938C776.559 437.562 770.103 438.874 762.966 438.874C754.359 438.874 746.697 437.037 739.979 433.363C733.262 429.689 728.014 424.44 724.235 417.617C720.456 410.793 718.567 402.815 718.567 393.682C718.567 384.549 720.404 376.571 724.078 369.747C727.856 362.924 733.104 357.675 739.822 354.001C746.539 350.327 754.254 348.49 762.966 348.49C771.468 348.49 779.025 350.274 785.638 353.844C792.25 357.413 797.394 362.504 801.067 369.118C804.846 375.731 806.735 383.447 806.735 392.265ZM779.183 385.179C779.183 380.56 777.608 376.886 774.459 374.156C771.311 371.427 767.374 370.062 762.651 370.062C758.138 370.062 754.307 371.375 751.158 373.999C748.114 376.623 746.225 380.35 745.49 385.179H779.183Z" fill="#060B3D"/>
<path d="M874.469 348.805C884.755 348.805 892.942 352.164 899.03 358.882C905.223 365.496 908.319 374.629 908.319 386.281V437.615H881.554V389.903C881.554 384.024 880.032 379.458 876.988 376.203C873.944 372.949 869.851 371.322 864.707 371.322C859.564 371.322 855.471 372.949 852.427 376.203C849.383 379.458 847.861 384.024 847.861 389.903V437.615H820.938V349.749H847.861V361.402C850.59 357.518 854.264 354.473 858.882 352.269C863.5 349.959 868.696 348.805 874.469 348.805Z" fill="#060B3D"/>
<path d="M1006.54 327.075V348.647H977.252V437.615H950.329V348.647H921.045V327.075H1006.54Z" fill="#060B3D"/>
<path d="M1092 327.075V348.647H1046.97V371.952H1080.66V392.895H1046.97V437.615H1020.05V327.075H1092Z" fill="#060B3D"/>
</svg>
