<svg width="6506" height="2356" viewBox="0 0 6506 2356" fill="none" xmlns="http://www.w3.org/2000/svg">
<mask id="path-1-outside-1_448_113" maskUnits="userSpaceOnUse" x="435.364" y="399.195" width="5671" height="1558" fill="black">
<rect fill="white" x="435.364" y="399.195" width="5671" height="1558"/>
<path fill-rule="evenodd" clip-rule="evenodd" d="M5778.6 405.894C5792.43 398.296 5809.18 398.296 5823 405.894L6050.48 530.926L6050.72 531.057C6050.86 531.137 6051 531.217 6051.14 531.297L6080.99 547.703C6095.72 555.8 6104.88 571.278 6104.88 588.088V869.319C6104.88 886.129 6095.72 901.607 6080.99 909.704L5851.35 1035.92C5851.08 1036.07 5850.81 1036.22 5850.54 1036.36L5823 1051.5C5809.18 1059.09 5792.43 1059.09 5778.6 1051.5L5751.14 1036.4C5750.84 1036.24 5750.54 1036.08 5750.25 1035.92L5520.61 909.704C5505.88 901.607 5496.72 886.129 5496.72 869.319V588.088C5496.72 571.278 5505.88 555.8 5520.61 547.703L5550.56 531.241C5550.75 531.135 5550.94 531.03 5551.12 530.926L5778.6 405.894ZM6033.72 580.453C6039.08 577.281 6040.29 570.535 6037.36 565.743C6037.27 565.586 6037.17 565.432 6037.06 565.28C6036.17 563.972 6034.95 562.831 6033.4 561.979L5805.92 436.947C5802.73 435.194 5798.86 435.194 5795.67 436.947L5568.19 561.979C5562.48 565.116 5561.21 572.185 5564.37 577.079C5565.23 578.416 5566.42 579.592 5567.94 580.482L5783.07 698.726L5795.67 705.651C5798.86 707.404 5802.73 707.404 5805.92 705.651L5818.53 698.719V698.729L6033.72 580.453ZM5767.5 1004.94C5767.44 1004.91 5767.38 1004.88 5767.32 1004.84L5537.68 878.627C5534.28 876.758 5532.17 873.186 5532.17 869.307V619.243C5532.17 611.156 5540.84 606.028 5547.93 609.923L5777.56 736.141C5780.96 738.01 5783.08 741.582 5783.08 745.461V995.525C5783.08 995.588 5783.07 995.65 5783.07 995.713L5783.07 995.853C5782.86 1003.6 5774.66 1008.5 5767.75 1005.08L5767.5 1004.94ZM5628.58 815.79L5628.61 815.443C5629.86 798.692 5618.82 778.774 5603.95 770.953C5589.09 763.133 5576.03 770.371 5574.78 787.121L5574.77 787.245C5574.77 787.32 5574.76 787.395 5574.76 787.471L5628.58 815.79ZM5713.29 864.701L5713.31 864.353C5714.56 847.603 5703.52 827.685 5688.66 819.864C5673.79 812.043 5660.73 819.282 5659.49 836.032C5659.48 836.148 5659.47 836.265 5659.46 836.381L5713.29 864.701ZM4718.15 1718.63V1307.59H4594.61V1157.5H4718.15V1109C4718.15 1063.59 4728.16 1022.79 4748.17 986.617C4768.95 949.67 4797.82 920.805 4834.77 900.022C4871.71 878.47 4915.59 867.694 4966.39 867.694C5004.88 867.694 5038.36 874.237 5066.84 887.322C5096.09 899.638 5121.49 916.956 5143.04 939.279L5032.2 1050.12C5024.5 1042.42 5015.65 1036.65 5005.65 1032.8C4996.41 1028.18 4985.25 1025.87 4972.16 1025.87C4948.3 1025.87 4929.44 1032.8 4915.59 1046.66C4901.73 1060.51 4894.81 1079.37 4894.81 1103.23V1157.5H5056.45V1307.59H4894.81V1718.63H4718.15ZM867.027 1743.47C805.449 1743.47 748.489 1732.69 696.148 1711.14C644.576 1689.59 599.162 1659.57 559.906 1621.08C520.65 1582.6 490.245 1537.95 468.693 1487.15C447.14 1435.58 436.364 1380.16 436.364 1320.89C436.364 1260.85 447.14 1205.43 468.693 1154.63C490.245 1103.83 520.265 1059.57 558.751 1021.85C597.238 983.363 642.267 953.729 693.839 932.946C746.18 911.394 803.14 900.617 864.718 900.617C925.527 900.617 981.717 911.394 1033.29 932.946C1085.63 953.729 1131.04 983.363 1169.53 1021.85C1208.79 1059.57 1239.19 1104.21 1260.74 1155.78C1282.3 1206.58 1293.07 1262.01 1293.07 1322.04C1293.07 1381.31 1282.3 1436.73 1260.74 1488.31C1239.19 1539.11 1209.17 1583.75 1170.69 1622.24C1132.2 1659.95 1086.79 1689.59 1034.44 1711.14C982.872 1732.69 927.066 1743.47 867.027 1743.47ZM864.718 1578.36C913.211 1578.36 955.546 1567.59 991.724 1546.03C1028.67 1524.48 1057.15 1494.46 1077.16 1455.98C1097.18 1416.72 1107.18 1371.69 1107.18 1320.89C1107.18 1282.4 1101.41 1247.76 1089.86 1216.98C1078.32 1185.42 1061.77 1158.48 1040.22 1136.15C1018.66 1113.06 992.878 1095.74 962.859 1084.2C933.609 1071.88 900.896 1065.72 864.718 1065.72C816.225 1065.72 773.505 1076.5 736.558 1098.05C700.381 1118.84 672.286 1148.47 652.273 1186.96C632.26 1224.67 622.254 1269.32 622.254 1320.89C622.254 1359.38 628.027 1394.4 639.573 1425.96C651.119 1457.52 667.283 1484.84 688.066 1507.93C709.618 1530.26 735.404 1547.57 765.423 1559.89C795.443 1572.21 828.541 1578.36 864.718 1578.36ZM3177.49 1716.93V1397.11C3177.49 1367.86 3168.25 1344.38 3149.78 1326.68C3132.07 1308.2 3109.36 1298.97 3081.65 1298.97C3062.41 1298.97 3045.48 1303.2 3030.85 1311.67C3016.23 1319.37 3004.68 1330.91 2996.21 1346.31C2987.75 1360.93 2983.51 1377.86 2983.51 1397.11V1716.93H2806.86V1155.8H2983.51V1199.76C2995.57 1189.01 3009.04 1179.74 3023.93 1171.96C3058.56 1153.49 3097.43 1144.25 3140.54 1144.25C3182.1 1144.25 3218.67 1154.26 3250.23 1174.27C3282.55 1193.51 3307.95 1219.3 3326.43 1251.63C3344.39 1283.06 3344.38 1317.41 3344.36 1354.67L3344.36 1357.85V1716.93H3177.49ZM2416.35 1731.83C2355.54 1731.83 2301.27 1719.51 2253.55 1694.88C2206.6 1669.48 2169.65 1634.46 2142.71 1589.81C2115.77 1545.17 2102.3 1494.75 2102.3 1438.56C2102.3 1382.37 2115.38 1332.34 2141.55 1288.46C2168.49 1243.82 2204.67 1208.8 2250.08 1183.4C2295.5 1157.99 2346.69 1145.29 2403.65 1145.29C2459.07 1145.29 2507.94 1157.22 2550.28 1181.09C2592.61 1204.95 2625.71 1238.05 2649.57 1280.38C2674.21 1322.72 2686.52 1371.21 2686.52 1425.86C2686.52 1435.87 2685.75 1446.64 2684.21 1458.19C2683.44 1468.96 2681.52 1481.66 2678.44 1496.29L2276.2 1497.25C2278.78 1506.3 2282 1514.83 2285.88 1522.85C2298.19 1545.94 2315.13 1564.03 2336.68 1577.11C2359 1589.43 2385.17 1595.58 2415.19 1595.58C2442.9 1595.58 2467.92 1590.97 2490.24 1581.73C2512.56 1571.72 2532.19 1557.1 2549.12 1537.85L2646.11 1634.84C2618.4 1667.17 2584.92 1691.42 2545.66 1707.58C2506.4 1723.74 2463.3 1731.83 2416.35 1731.83ZM2521.54 1375.29L2276.27 1375.98C2278.57 1367.88 2281.39 1360.26 2284.72 1353.12C2296.27 1330.03 2312.05 1312.32 2332.06 1300.01C2352.84 1286.92 2377.09 1280.38 2404.8 1280.38C2430.97 1280.38 2452.91 1286.15 2470.61 1297.7C2489.09 1308.48 2502.94 1324.64 2512.18 1346.19C2516.04 1354.88 2519.16 1364.58 2521.54 1375.29ZM1633.57 1708.74C1665.13 1723.36 1699.76 1730.68 1737.48 1730.68C1790.59 1730.68 1837.55 1717.97 1878.34 1692.57C1919.91 1667.17 1952.23 1632.53 1975.33 1588.66C1999.19 1544.79 2011.12 1494.75 2011.12 1438.56C2011.12 1382.37 1999.19 1332.34 1975.33 1288.47C1952.23 1244.59 1919.91 1209.95 1878.34 1184.55C1837.55 1159.15 1790.59 1146.45 1737.48 1146.45C1699.76 1146.45 1665.13 1154.15 1633.57 1169.54C1617.91 1177.18 1603.67 1186.24 1590.85 1196.73V1158H1414.19V1955.82H1588.54V1681.17C1601.95 1691.85 1616.96 1701.04 1633.57 1708.74ZM1770.96 1554.02C1752.49 1565.57 1730.55 1571.34 1705.15 1571.34C1681.29 1571.34 1659.74 1565.57 1640.49 1554.02C1621.25 1542.48 1606.24 1526.7 1595.47 1506.68C1585.46 1486.67 1580.46 1463.96 1580.46 1438.56C1580.46 1412.39 1585.84 1389.3 1596.62 1369.29C1607.4 1349.27 1622.02 1333.88 1640.49 1323.1C1659.74 1311.56 1681.68 1305.78 1706.31 1305.78C1730.94 1305.78 1752.49 1311.56 1770.96 1323.1C1790.21 1333.88 1805.22 1349.27 1815.99 1369.29C1826.77 1389.3 1832.16 1412.39 1832.16 1438.56C1832.16 1463.96 1826.77 1486.67 1815.99 1506.68C1805.22 1526.7 1790.21 1542.48 1770.96 1554.02ZM5266.99 1700.08C5307.02 1720.86 5352.82 1731.25 5404.39 1731.25C5455.96 1731.25 5501.38 1720.86 5540.63 1700.08C5579.89 1678.53 5610.68 1649.28 5633 1612.33C5655.32 1574.61 5666.48 1531.12 5666.48 1481.86V1157.42H5489.83V1480.71C5489.83 1509.96 5482.13 1533.05 5466.74 1549.98C5451.34 1566.15 5430.56 1574.23 5404.39 1574.23C5385.92 1574.23 5370.14 1570.38 5357.05 1562.68C5343.97 1554.99 5333.96 1544.21 5327.03 1530.35C5320.87 1516.5 5317.8 1499.95 5317.8 1480.71V1157.42H5141.14V1483.02C5141.14 1531.51 5152.3 1574.61 5174.63 1612.33C5196.95 1649.28 5227.74 1678.53 5266.99 1700.08ZM4053.31 1692.68C4100.27 1718.08 4152.61 1730.79 4210.34 1730.79C4268.84 1730.79 4321.18 1718.08 4367.36 1692.68C4413.55 1666.51 4450.11 1631.11 4477.05 1586.46C4503.99 1541.82 4517.46 1491.78 4517.46 1436.36C4517.46 1380.94 4503.99 1331.3 4477.05 1287.42C4450.11 1242.78 4413.55 1207.75 4367.36 1182.35C4321.18 1156.95 4268.84 1144.25 4210.34 1144.25C4151.84 1144.25 4099.5 1157.34 4053.31 1183.51C4007.13 1208.91 3970.57 1243.55 3943.63 1287.42C3916.69 1331.3 3903.22 1380.94 3903.22 1436.36C3903.22 1491.78 3916.69 1541.82 3943.63 1586.46C3970.57 1631.11 4007.13 1666.51 4053.31 1692.68ZM4277.3 1554.13C4258.06 1564.91 4235.74 1570.3 4210.34 1570.3C4185.71 1570.3 4163.77 1564.91 4144.53 1554.13C4125.28 1542.59 4110.27 1526.81 4099.5 1506.79C4088.72 1486.01 4083.33 1462.92 4083.33 1437.52C4083.33 1411.35 4088.72 1388.26 4099.5 1368.24C4110.27 1348.23 4125.28 1332.84 4144.53 1322.06C4163.77 1310.51 4185.71 1304.74 4210.34 1304.74C4235.74 1304.74 4257.68 1310.51 4276.15 1322.06C4295.39 1332.84 4310.4 1348.23 4321.18 1368.24C4331.95 1387.49 4337.34 1410.19 4337.34 1436.36C4337.34 1462.53 4331.95 1486.01 4321.18 1506.79C4311.17 1526.81 4296.55 1542.59 4277.3 1554.13ZM3562.46 1715.76V1058.8H3307.3V900.617H3991.08V1058.8H3743.74V1715.76H3562.46Z"/>
</mask>
<path fill-rule="evenodd" clip-rule="evenodd" d="M5778.6 405.894C5792.43 398.296 5809.18 398.296 5823 405.894L6050.48 530.926L6050.72 531.057C6050.86 531.137 6051 531.217 6051.14 531.297L6080.99 547.703C6095.72 555.8 6104.88 571.278 6104.88 588.088V869.319C6104.88 886.129 6095.72 901.607 6080.99 909.704L5851.35 1035.92C5851.08 1036.07 5850.81 1036.22 5850.54 1036.36L5823 1051.5C5809.18 1059.09 5792.43 1059.09 5778.6 1051.5L5751.14 1036.4C5750.84 1036.24 5750.54 1036.08 5750.25 1035.92L5520.61 909.704C5505.88 901.607 5496.72 886.129 5496.72 869.319V588.088C5496.72 571.278 5505.88 555.8 5520.61 547.703L5550.56 531.241C5550.75 531.135 5550.94 531.03 5551.12 530.926L5778.6 405.894ZM6033.72 580.453C6039.08 577.281 6040.29 570.535 6037.36 565.743C6037.27 565.586 6037.17 565.432 6037.06 565.28C6036.17 563.972 6034.95 562.831 6033.4 561.979L5805.92 436.947C5802.73 435.194 5798.86 435.194 5795.67 436.947L5568.19 561.979C5562.48 565.116 5561.21 572.185 5564.37 577.079C5565.23 578.416 5566.42 579.592 5567.94 580.482L5783.07 698.726L5795.67 705.651C5798.86 707.404 5802.73 707.404 5805.92 705.651L5818.53 698.719V698.729L6033.72 580.453ZM5767.5 1004.94C5767.44 1004.91 5767.38 1004.88 5767.32 1004.84L5537.68 878.627C5534.28 876.758 5532.17 873.186 5532.17 869.307V619.243C5532.17 611.156 5540.84 606.028 5547.93 609.923L5777.56 736.141C5780.96 738.01 5783.08 741.582 5783.08 745.461V995.525C5783.08 995.588 5783.07 995.65 5783.07 995.713L5783.07 995.853C5782.86 1003.6 5774.66 1008.5 5767.75 1005.08L5767.5 1004.94ZM5628.58 815.79L5628.61 815.443C5629.86 798.692 5618.82 778.774 5603.95 770.953C5589.09 763.133 5576.03 770.371 5574.78 787.121L5574.77 787.245C5574.77 787.32 5574.76 787.395 5574.76 787.471L5628.58 815.79ZM5713.29 864.701L5713.31 864.353C5714.56 847.603 5703.52 827.685 5688.66 819.864C5673.79 812.043 5660.73 819.282 5659.49 836.032C5659.48 836.148 5659.47 836.265 5659.46 836.381L5713.29 864.701ZM4718.15 1718.63V1307.59H4594.61V1157.5H4718.15V1109C4718.15 1063.59 4728.16 1022.79 4748.17 986.617C4768.95 949.67 4797.82 920.805 4834.77 900.022C4871.71 878.47 4915.59 867.694 4966.39 867.694C5004.88 867.694 5038.36 874.237 5066.84 887.322C5096.09 899.638 5121.49 916.956 5143.04 939.279L5032.2 1050.12C5024.5 1042.42 5015.65 1036.65 5005.65 1032.8C4996.41 1028.18 4985.25 1025.87 4972.16 1025.87C4948.3 1025.87 4929.44 1032.8 4915.59 1046.66C4901.73 1060.51 4894.81 1079.37 4894.81 1103.23V1157.5H5056.45V1307.59H4894.81V1718.63H4718.15ZM867.027 1743.47C805.449 1743.47 748.489 1732.69 696.148 1711.14C644.576 1689.59 599.162 1659.57 559.906 1621.08C520.65 1582.6 490.245 1537.95 468.693 1487.15C447.14 1435.58 436.364 1380.16 436.364 1320.89C436.364 1260.85 447.14 1205.43 468.693 1154.63C490.245 1103.83 520.265 1059.57 558.751 1021.85C597.238 983.363 642.267 953.729 693.839 932.946C746.18 911.394 803.14 900.617 864.718 900.617C925.527 900.617 981.717 911.394 1033.29 932.946C1085.63 953.729 1131.04 983.363 1169.53 1021.85C1208.79 1059.57 1239.19 1104.21 1260.74 1155.78C1282.3 1206.58 1293.07 1262.01 1293.07 1322.04C1293.07 1381.31 1282.3 1436.73 1260.74 1488.31C1239.19 1539.11 1209.17 1583.75 1170.69 1622.24C1132.2 1659.95 1086.79 1689.59 1034.44 1711.14C982.872 1732.69 927.066 1743.47 867.027 1743.47ZM864.718 1578.36C913.211 1578.36 955.546 1567.59 991.724 1546.03C1028.67 1524.48 1057.15 1494.46 1077.16 1455.98C1097.18 1416.72 1107.18 1371.69 1107.18 1320.89C1107.18 1282.4 1101.41 1247.76 1089.86 1216.98C1078.32 1185.42 1061.77 1158.48 1040.22 1136.15C1018.66 1113.06 992.878 1095.74 962.859 1084.2C933.609 1071.88 900.896 1065.72 864.718 1065.72C816.225 1065.72 773.505 1076.5 736.558 1098.05C700.381 1118.84 672.286 1148.47 652.273 1186.96C632.26 1224.67 622.254 1269.32 622.254 1320.89C622.254 1359.38 628.027 1394.4 639.573 1425.96C651.119 1457.52 667.283 1484.84 688.066 1507.93C709.618 1530.26 735.404 1547.57 765.423 1559.89C795.443 1572.21 828.541 1578.36 864.718 1578.36ZM3177.49 1716.93V1397.11C3177.49 1367.86 3168.25 1344.38 3149.78 1326.68C3132.07 1308.2 3109.36 1298.97 3081.65 1298.97C3062.41 1298.97 3045.48 1303.2 3030.85 1311.67C3016.23 1319.37 3004.68 1330.91 2996.21 1346.31C2987.75 1360.93 2983.51 1377.86 2983.51 1397.11V1716.93H2806.86V1155.8H2983.51V1199.76C2995.57 1189.01 3009.04 1179.74 3023.93 1171.96C3058.56 1153.49 3097.43 1144.25 3140.54 1144.25C3182.1 1144.25 3218.67 1154.26 3250.23 1174.27C3282.55 1193.51 3307.95 1219.3 3326.43 1251.63C3344.39 1283.06 3344.38 1317.41 3344.36 1354.67L3344.36 1357.85V1716.93H3177.49ZM2416.35 1731.83C2355.54 1731.83 2301.27 1719.51 2253.55 1694.88C2206.6 1669.48 2169.65 1634.46 2142.71 1589.81C2115.77 1545.17 2102.3 1494.75 2102.3 1438.56C2102.3 1382.37 2115.38 1332.34 2141.55 1288.46C2168.49 1243.82 2204.67 1208.8 2250.08 1183.4C2295.5 1157.99 2346.69 1145.29 2403.65 1145.29C2459.07 1145.29 2507.94 1157.22 2550.28 1181.09C2592.61 1204.95 2625.71 1238.05 2649.57 1280.38C2674.21 1322.72 2686.52 1371.21 2686.52 1425.86C2686.52 1435.87 2685.75 1446.64 2684.21 1458.19C2683.44 1468.96 2681.52 1481.66 2678.44 1496.29L2276.2 1497.25C2278.78 1506.3 2282 1514.83 2285.88 1522.85C2298.19 1545.94 2315.13 1564.03 2336.68 1577.11C2359 1589.43 2385.17 1595.58 2415.19 1595.58C2442.9 1595.58 2467.92 1590.97 2490.24 1581.73C2512.56 1571.72 2532.19 1557.1 2549.12 1537.85L2646.11 1634.84C2618.4 1667.17 2584.92 1691.42 2545.66 1707.58C2506.4 1723.74 2463.3 1731.83 2416.35 1731.83ZM2521.54 1375.29L2276.27 1375.98C2278.57 1367.88 2281.39 1360.26 2284.72 1353.12C2296.27 1330.03 2312.05 1312.32 2332.06 1300.01C2352.84 1286.92 2377.09 1280.38 2404.8 1280.38C2430.97 1280.38 2452.91 1286.15 2470.61 1297.7C2489.09 1308.48 2502.94 1324.64 2512.18 1346.19C2516.04 1354.88 2519.16 1364.58 2521.54 1375.29ZM1633.57 1708.74C1665.13 1723.36 1699.76 1730.68 1737.48 1730.68C1790.59 1730.68 1837.55 1717.97 1878.34 1692.57C1919.91 1667.17 1952.23 1632.53 1975.33 1588.66C1999.19 1544.79 2011.12 1494.75 2011.12 1438.56C2011.12 1382.37 1999.19 1332.34 1975.33 1288.47C1952.23 1244.59 1919.91 1209.95 1878.34 1184.55C1837.55 1159.15 1790.59 1146.45 1737.48 1146.45C1699.76 1146.45 1665.13 1154.15 1633.57 1169.54C1617.91 1177.18 1603.67 1186.24 1590.85 1196.73V1158H1414.19V1955.82H1588.54V1681.17C1601.95 1691.85 1616.96 1701.04 1633.57 1708.74ZM1770.96 1554.02C1752.49 1565.57 1730.55 1571.34 1705.15 1571.34C1681.29 1571.34 1659.74 1565.57 1640.49 1554.02C1621.25 1542.48 1606.24 1526.7 1595.47 1506.68C1585.46 1486.67 1580.46 1463.96 1580.46 1438.56C1580.46 1412.39 1585.84 1389.3 1596.62 1369.29C1607.4 1349.27 1622.02 1333.88 1640.49 1323.1C1659.74 1311.56 1681.68 1305.78 1706.31 1305.78C1730.94 1305.78 1752.49 1311.56 1770.96 1323.1C1790.21 1333.88 1805.22 1349.27 1815.99 1369.29C1826.77 1389.3 1832.16 1412.39 1832.16 1438.56C1832.16 1463.96 1826.77 1486.67 1815.99 1506.68C1805.22 1526.7 1790.21 1542.48 1770.96 1554.02ZM5266.99 1700.08C5307.02 1720.86 5352.82 1731.25 5404.39 1731.25C5455.96 1731.25 5501.38 1720.86 5540.63 1700.08C5579.89 1678.53 5610.68 1649.28 5633 1612.33C5655.32 1574.61 5666.48 1531.12 5666.48 1481.86V1157.42H5489.83V1480.71C5489.83 1509.96 5482.13 1533.05 5466.74 1549.98C5451.34 1566.15 5430.56 1574.23 5404.39 1574.23C5385.92 1574.23 5370.14 1570.38 5357.05 1562.68C5343.97 1554.99 5333.96 1544.21 5327.03 1530.35C5320.87 1516.5 5317.8 1499.95 5317.8 1480.71V1157.42H5141.14V1483.02C5141.14 1531.51 5152.3 1574.61 5174.63 1612.33C5196.95 1649.28 5227.74 1678.53 5266.99 1700.08ZM4053.31 1692.68C4100.27 1718.08 4152.61 1730.79 4210.34 1730.79C4268.84 1730.79 4321.18 1718.08 4367.36 1692.68C4413.55 1666.51 4450.11 1631.11 4477.05 1586.46C4503.99 1541.82 4517.46 1491.78 4517.46 1436.36C4517.46 1380.94 4503.99 1331.3 4477.05 1287.42C4450.11 1242.78 4413.55 1207.75 4367.36 1182.35C4321.18 1156.95 4268.84 1144.25 4210.34 1144.25C4151.84 1144.25 4099.5 1157.34 4053.31 1183.51C4007.13 1208.91 3970.57 1243.55 3943.63 1287.42C3916.69 1331.3 3903.22 1380.94 3903.22 1436.36C3903.22 1491.78 3916.69 1541.82 3943.63 1586.46C3970.57 1631.11 4007.13 1666.51 4053.31 1692.68ZM4277.3 1554.13C4258.06 1564.91 4235.74 1570.3 4210.34 1570.3C4185.71 1570.3 4163.77 1564.91 4144.53 1554.13C4125.28 1542.59 4110.27 1526.81 4099.5 1506.79C4088.72 1486.01 4083.33 1462.92 4083.33 1437.52C4083.33 1411.35 4088.72 1388.26 4099.5 1368.24C4110.27 1348.23 4125.28 1332.84 4144.53 1322.06C4163.77 1310.51 4185.71 1304.74 4210.34 1304.74C4235.74 1304.74 4257.68 1310.51 4276.15 1322.06C4295.39 1332.84 4310.4 1348.23 4321.18 1368.24C4331.95 1387.49 4337.34 1410.19 4337.34 1436.36C4337.34 1462.53 4331.95 1486.01 4321.18 1506.79C4311.17 1526.81 4296.55 1542.59 4277.3 1554.13ZM3562.46 1715.76V1058.8H3307.3V900.617H3991.08V1058.8H3743.74V1715.76H3562.46Z" fill="black"/>
<path d="M5823 405.894L5823.48 405.017L5823.48 405.017L5823 405.894ZM5778.6 405.894L5778.12 405.017L5778.12 405.017L5778.6 405.894ZM6050.48 530.926L6050.96 530.051L6050.96 530.049L6050.48 530.926ZM6050.72 531.057L6051.2 530.183L6051.2 530.183L6050.72 531.057ZM6051.14 531.297L6050.65 532.166L6050.66 532.174L6051.14 531.297ZM6080.99 547.703L6080.51 548.579L6080.51 548.579L6080.99 547.703ZM6080.99 909.704L6081.47 910.58L6081.47 910.58L6080.99 909.704ZM5851.35 1035.92L5850.87 1035.05L5850.87 1035.05L5851.35 1035.92ZM5850.54 1036.36L5850.07 1035.48L5850.05 1035.49L5850.54 1036.36ZM5823 1051.5L5823.48 1052.37L5823.48 1052.37L5823 1051.5ZM5778.6 1051.5L5778.12 1052.37L5778.12 1052.37L5778.6 1051.5ZM5751.14 1036.4L5751.62 1035.52L5751.6 1035.51L5751.14 1036.4ZM5750.25 1035.92L5749.76 1036.8L5749.76 1036.8L5750.25 1035.92ZM5520.61 909.704L5521.09 908.828L5521.09 908.828L5520.61 909.704ZM5520.61 547.703L5521.09 548.579L5521.09 548.579L5520.61 547.703ZM5550.56 531.241L5551.04 532.117L5551.05 532.111L5550.56 531.241ZM5551.12 530.926L5551.61 531.802L5551.61 531.802L5551.12 530.926ZM6037.36 565.743L6038.22 565.221L6038.22 565.22L6037.36 565.743ZM6033.72 580.453L6034.2 581.329L6034.23 581.314L6033.72 580.453ZM6037.06 565.28L6036.24 565.845L6036.24 565.845L6037.06 565.28ZM6033.4 561.979L6033.88 561.103L6033.88 561.103L6033.4 561.979ZM5805.92 436.947L5806.4 436.071L5806.4 436.071L5805.92 436.947ZM5795.67 436.947L5795.19 436.071L5795.19 436.071L5795.67 436.947ZM5568.19 561.979L5568.67 562.856L5568.67 562.856L5568.19 561.979ZM5564.37 577.079L5565.21 576.538L5565.21 576.537L5564.37 577.079ZM5567.94 580.482L5567.43 581.345L5567.46 581.358L5567.94 580.482ZM5783.07 698.726L5783.55 697.85L5783.55 697.85L5783.07 698.726ZM5795.67 705.651L5795.19 706.527L5795.19 706.527L5795.67 705.651ZM5805.92 705.651L5806.4 706.527L5806.4 706.527L5805.92 705.651ZM5818.53 698.719H5819.53L5818.05 697.843L5818.53 698.719ZM5818.53 698.729H5817.53L5819.01 699.605L5818.53 698.729ZM5767.32 1004.84L5767.8 1003.97L5767.8 1003.97L5767.32 1004.84ZM5767.5 1004.94L5767.99 1004.07L5767.97 1004.06L5767.5 1004.94ZM5537.68 878.627L5538.16 877.75L5538.16 877.75L5537.68 878.627ZM5547.93 609.923L5547.44 610.8L5547.44 610.8L5547.93 609.923ZM5777.56 736.141L5777.08 737.018L5777.08 737.018L5777.56 736.141ZM5783.07 995.713L5782.07 995.697L5782.07 995.72L5783.07 995.713ZM5783.07 995.853L5784.07 995.881L5784.07 995.846L5783.07 995.853ZM5767.75 1005.08L5767.27 1005.96L5767.31 1005.98L5767.75 1005.08ZM5628.61 815.443L5629.61 815.522L5629.61 815.517L5628.61 815.443ZM5628.58 815.79L5628.12 816.675L5629.58 815.87L5628.58 815.79ZM5574.78 787.121L5573.78 787.047L5573.78 787.05L5574.78 787.121ZM5574.77 787.245L5575.77 787.323L5575.77 787.316L5574.77 787.245ZM5574.76 787.471L5573.76 787.406L5574.29 788.356L5574.76 787.471ZM5713.31 864.353L5714.31 864.433L5714.31 864.428L5713.31 864.353ZM5713.29 864.701L5712.82 865.586L5714.28 864.781L5713.29 864.701ZM5659.49 836.032L5660.48 836.107L5660.48 836.106L5659.49 836.032ZM5659.46 836.381L5658.46 836.319L5659 837.266L5659.46 836.381ZM4718.15 1307.59H4719.15L4718.15 1306.59V1307.59ZM4718.15 1718.63H4717.15L4718.15 1719.63V1718.63ZM4594.61 1307.59H4593.61L4594.61 1308.59V1307.59ZM4594.61 1157.5V1156.5L4593.61 1157.5H4594.61ZM4718.15 1157.5V1158.5L4719.15 1157.5H4718.15ZM4748.17 986.617L4747.3 986.127L4747.3 986.133L4748.17 986.617ZM4834.77 900.022L4835.26 900.894L4835.27 900.886L4834.77 900.022ZM5066.84 887.322L5066.42 888.231L5066.45 888.244L5066.84 887.322ZM5143.04 939.279L5143.75 939.986L5143.76 938.584L5143.04 939.279ZM5032.2 1050.12L5031.5 1050.83L5032.91 1050.83L5032.2 1050.12ZM5005.65 1032.8L5005.2 1033.7L5005.29 1033.73L5005.65 1032.8ZM4915.59 1046.66L4914.88 1045.95L4914.88 1045.95L4915.59 1046.66ZM4894.81 1157.5H4893.81L4894.81 1158.5V1157.5ZM5056.45 1157.5H5057.45L5056.45 1156.5V1157.5ZM5056.45 1307.59V1308.59L5057.45 1307.59H5056.45ZM4894.81 1307.59V1306.59L4893.81 1307.59H4894.81ZM4894.81 1718.63V1719.63L4895.81 1718.63H4894.81ZM696.148 1711.14L695.762 1712.06L695.767 1712.07L696.148 1711.14ZM559.906 1621.08L559.206 1621.8L559.206 1621.8L559.906 1621.08ZM468.693 1487.15L467.77 1487.54L467.772 1487.54L468.693 1487.15ZM468.693 1154.63L467.772 1154.24L467.772 1154.24L468.693 1154.63ZM558.751 1021.85L559.451 1022.56L559.458 1022.56L558.751 1021.85ZM693.839 932.946L694.212 933.874L694.219 933.871L693.839 932.946ZM1033.29 932.946L1032.9 933.869L1032.92 933.875L1033.29 932.946ZM1169.53 1021.85L1168.82 1022.56L1168.84 1022.57L1169.53 1021.85ZM1260.74 1155.78L1259.82 1156.17L1259.82 1156.17L1260.74 1155.78ZM1260.74 1488.31L1261.66 1488.7L1261.67 1488.69L1260.74 1488.31ZM1170.69 1622.24L1171.39 1622.95L1171.39 1622.95L1170.69 1622.24ZM1034.44 1711.14L1034.06 1710.22L1034.06 1710.22L1034.44 1711.14ZM991.724 1546.03L991.22 1545.17L991.212 1545.18L991.724 1546.03ZM1077.16 1455.98L1078.05 1456.44L1078.05 1456.43L1077.16 1455.98ZM1089.86 1216.98L1088.92 1217.32L1088.93 1217.33L1089.86 1216.98ZM1040.22 1136.15L1039.49 1136.84L1039.5 1136.85L1040.22 1136.15ZM962.859 1084.2L962.471 1085.12L962.5 1085.13L962.859 1084.2ZM736.558 1098.05L737.057 1098.92L737.062 1098.92L736.558 1098.05ZM652.273 1186.96L653.157 1187.43L653.16 1187.42L652.273 1186.96ZM639.573 1425.96L640.512 1425.61L640.512 1425.61L639.573 1425.96ZM688.066 1507.93L687.322 1508.6L687.346 1508.63L688.066 1507.93ZM765.423 1559.89L765.044 1560.82L765.044 1560.82L765.423 1559.89ZM3177.49 1716.93H3176.49L3177.49 1717.93V1716.93ZM3149.78 1326.68L3149.05 1327.37L3149.08 1327.4L3149.78 1326.68ZM3030.85 1311.67L3031.32 1312.55L3031.35 1312.53L3030.85 1311.67ZM2996.21 1346.31L2997.08 1346.81L2997.09 1346.79L2996.21 1346.31ZM2983.51 1716.93V1717.93L2984.51 1716.93H2983.51ZM2806.86 1716.93H2805.86L2806.86 1717.93V1716.93ZM2806.86 1155.8V1154.8L2805.86 1155.8H2806.86ZM2983.51 1155.8H2984.51L2983.51 1154.8V1155.8ZM2983.51 1199.76H2982.51L2984.18 1200.51L2983.51 1199.76ZM3023.93 1171.96L3024.39 1172.85L3024.4 1172.84L3023.93 1171.96ZM3250.23 1174.27L3249.69 1175.12L3249.71 1175.13L3250.23 1174.27ZM3326.43 1251.63L3325.56 1252.13L3325.56 1252.13L3326.43 1251.63ZM3344.36 1354.67L3343.36 1354.67L3343.36 1354.67L3344.36 1354.67ZM3344.36 1357.85L3343.36 1357.85V1357.85H3344.36ZM3344.36 1716.93V1717.93L3345.36 1716.93H3344.36ZM2253.55 1694.88L2253.07 1695.76L2253.09 1695.77L2253.55 1694.88ZM2142.71 1589.81L2143.56 1589.3L2143.56 1589.3L2142.71 1589.81ZM2141.55 1288.46L2140.7 1287.95L2140.69 1287.95L2141.55 1288.46ZM2250.08 1183.4L2250.57 1184.27L2250.57 1184.27L2250.08 1183.4ZM2550.28 1181.09L2549.79 1181.96L2549.79 1181.96L2550.28 1181.09ZM2649.57 1280.38L2648.7 1280.87L2648.71 1280.88L2649.57 1280.38ZM2684.21 1458.19L2683.22 1458.06L2683.21 1458.12L2684.21 1458.19ZM2678.44 1496.29L2678.44 1497.29L2679.42 1496.5L2678.44 1496.29ZM2276.2 1497.25L2276.2 1496.25L2275.24 1497.52L2276.2 1497.25ZM2285.88 1522.85L2284.98 1523.28L2284.99 1523.32L2285.88 1522.85ZM2336.68 1577.11L2336.16 1577.97L2336.2 1577.99L2336.68 1577.11ZM2490.24 1581.73L2490.62 1582.65L2490.65 1582.64L2490.24 1581.73ZM2549.12 1537.85L2549.83 1537.15L2548.37 1537.19L2549.12 1537.85ZM2646.11 1634.84L2646.87 1635.49L2646.82 1634.13L2646.11 1634.84ZM2276.27 1375.98L2275.31 1375.71L2276.27 1376.98L2276.27 1375.98ZM2521.54 1375.29L2521.55 1376.29L2522.52 1375.07L2521.54 1375.29ZM2284.72 1353.12L2283.83 1352.67L2283.82 1352.7L2284.72 1353.12ZM2332.06 1300.01L2332.59 1300.86L2332.59 1300.86L2332.06 1300.01ZM2470.61 1297.7L2470.07 1298.54L2470.11 1298.56L2470.61 1297.7ZM2512.18 1346.19L2511.26 1346.59L2511.26 1346.6L2512.18 1346.19ZM1633.57 1708.74L1633.99 1707.83L1633.99 1707.83L1633.57 1708.74ZM1878.34 1692.57L1877.82 1691.72L1877.81 1691.72L1878.34 1692.57ZM1975.33 1588.66L1974.45 1588.18L1974.44 1588.19L1975.33 1588.66ZM1975.33 1288.47L1974.44 1288.93L1974.45 1288.94L1975.33 1288.47ZM1878.34 1184.55L1877.81 1185.4L1877.82 1185.41L1878.34 1184.55ZM1633.57 1169.54L1634.01 1170.44L1634.01 1170.44L1633.57 1169.54ZM1590.85 1196.73H1589.85L1591.48 1197.5L1590.85 1196.73ZM1590.85 1158H1591.85L1590.85 1157V1158ZM1414.19 1158V1157L1413.19 1158H1414.19ZM1414.19 1955.82H1413.19L1414.19 1956.82V1955.82ZM1588.54 1955.82V1956.82L1589.54 1955.82H1588.54ZM1588.54 1681.17L1589.16 1680.39L1587.54 1681.17H1588.54ZM1770.96 1554.02L1770.45 1553.16L1770.43 1553.17L1770.96 1554.02ZM1640.49 1554.02L1639.98 1554.88L1639.98 1554.88L1640.49 1554.02ZM1595.47 1506.68L1594.57 1507.13L1594.58 1507.16L1595.47 1506.68ZM1640.49 1323.1L1641 1323.97L1641.01 1323.96L1640.49 1323.1ZM1770.96 1323.1L1770.43 1323.95L1770.48 1323.98L1770.96 1323.1ZM1815.99 1369.29L1816.87 1368.81L1816.87 1368.81L1815.99 1369.29ZM1815.99 1506.68L1816.87 1507.16L1816.87 1507.16L1815.99 1506.68ZM5266.99 1700.08L5266.51 1700.96L5266.53 1700.97L5266.99 1700.08ZM5540.63 1700.08L5541.1 1700.96L5541.11 1700.96L5540.63 1700.08ZM5633 1612.33L5633.85 1612.85L5633.86 1612.84L5633 1612.33ZM5666.48 1157.42H5667.48L5666.48 1156.42V1157.42ZM5489.83 1157.42V1156.42L5488.83 1157.42H5489.83ZM5466.74 1549.98L5467.46 1550.67L5467.48 1550.66L5466.74 1549.98ZM5357.05 1562.68L5357.56 1561.82L5357.56 1561.82L5357.05 1562.68ZM5327.03 1530.35L5326.12 1530.76L5326.14 1530.8L5327.03 1530.35ZM5317.8 1157.42H5318.8L5317.8 1156.42V1157.42ZM5141.14 1157.42V1156.42L5140.14 1157.42H5141.14ZM5174.63 1612.33L5173.77 1612.84L5173.77 1612.85L5174.63 1612.33ZM4053.31 1692.68L4052.82 1693.55L4052.84 1693.56L4053.31 1692.68ZM4367.36 1692.68L4367.84 1693.56L4367.86 1693.55L4367.36 1692.68ZM4477.05 1586.46L4477.9 1586.98L4477.9 1586.98L4477.05 1586.46ZM4477.05 1287.42L4476.19 1287.94L4476.2 1287.94L4477.05 1287.42ZM4367.36 1182.35L4366.88 1183.23L4366.88 1183.23L4367.36 1182.35ZM4053.31 1183.51L4053.79 1184.38L4053.81 1184.38L4053.31 1183.51ZM3943.63 1287.42L3942.77 1286.9L3942.77 1286.9L3943.63 1287.42ZM3943.63 1586.46L3942.77 1586.98L3942.77 1586.98L3943.63 1586.46ZM4277.3 1554.13L4277.79 1555.01L4277.82 1554.99L4277.3 1554.13ZM4144.53 1554.13L4144.01 1554.99L4144.04 1555.01L4144.53 1554.13ZM4099.5 1506.79L4098.61 1507.25L4098.62 1507.27L4099.5 1506.79ZM4099.5 1368.24L4100.38 1368.72L4100.38 1368.72L4099.5 1368.24ZM4144.53 1322.06L4145.01 1322.93L4145.04 1322.92L4144.53 1322.06ZM4276.15 1322.06L4275.62 1322.91L4275.66 1322.93L4276.15 1322.06ZM4321.18 1368.24L4320.3 1368.72L4320.31 1368.73L4321.18 1368.24ZM4321.18 1506.79L4320.29 1506.33L4320.28 1506.35L4321.18 1506.79ZM3562.46 1058.8H3563.46L3562.46 1057.8V1058.8ZM3562.46 1715.76H3561.46L3562.46 1716.76V1715.76ZM3307.3 1058.8H3306.3L3307.3 1059.8V1058.8ZM3307.3 900.617V899.617L3306.3 900.617H3307.3ZM3991.08 900.617H3992.08L3991.08 899.617V900.617ZM3991.08 1058.8V1059.8L3992.08 1058.8H3991.08ZM3743.74 1058.8V1057.8L3742.74 1058.8H3743.74ZM3743.74 1715.76V1716.76L3744.74 1715.76H3743.74ZM5823.48 405.017C5809.36 397.255 5792.25 397.255 5778.12 405.017L5779.09 406.77C5792.61 399.337 5808.99 399.337 5822.52 406.77L5823.48 405.017ZM6050.96 530.049L5823.48 405.017L5822.52 406.77L6050 531.802L6050.96 530.049ZM6051.2 530.183L6050.96 530.051L6049.99 531.8L6050.23 531.932L6051.2 530.183ZM6051.64 530.429C6051.49 530.346 6051.35 530.264 6051.2 530.183L6050.23 531.932C6050.37 532.009 6050.51 532.087 6050.65 532.166L6051.64 530.429ZM6081.47 546.827L6051.63 530.421L6050.66 532.174L6080.51 548.579L6081.47 546.827ZM6105.88 588.088C6105.88 570.913 6096.53 555.1 6081.47 546.827L6080.51 548.579C6094.92 556.501 6103.88 571.642 6103.88 588.088H6105.88ZM6105.88 869.319V588.088H6103.88V869.319H6105.88ZM6081.47 910.58C6096.52 902.307 6105.88 886.494 6105.88 869.319H6103.88C6103.88 885.765 6094.92 900.906 6080.51 908.828L6081.47 910.58ZM5851.84 1036.8L6081.47 910.58L6080.51 908.828L5850.87 1035.05L5851.84 1036.8ZM5851 1037.25C5851.28 1037.1 5851.56 1036.95 5851.84 1036.8L5850.87 1035.05C5850.61 1035.19 5850.34 1035.34 5850.07 1035.48L5851 1037.25ZM5823.48 1052.37L5851.02 1037.24L5850.05 1035.49L5822.52 1050.62L5823.48 1052.37ZM5778.12 1052.37C5792.25 1060.14 5809.36 1060.14 5823.48 1052.37L5822.52 1050.62C5808.99 1058.05 5792.61 1058.05 5779.09 1050.62L5778.12 1052.37ZM5750.66 1037.28L5778.12 1052.37L5779.09 1050.62L5751.62 1035.52L5750.66 1037.28ZM5749.76 1036.8C5750.07 1036.96 5750.37 1037.13 5750.67 1037.29L5751.6 1035.51C5751.31 1035.36 5751.02 1035.21 5750.73 1035.05L5749.76 1036.8ZM5520.13 910.58L5749.76 1036.8L5750.73 1035.05L5521.09 908.828L5520.13 910.58ZM5495.72 869.319C5495.72 886.494 5505.08 902.307 5520.13 910.58L5521.09 908.828C5506.68 900.906 5497.72 885.765 5497.72 869.319H5495.72ZM5495.72 588.088V869.319H5497.72V588.088H5495.72ZM5520.13 546.827C5505.08 555.1 5495.72 570.913 5495.72 588.088H5497.72C5497.72 571.642 5506.68 556.501 5521.09 548.579L5520.13 546.827ZM5550.08 530.364L5520.13 546.827L5521.09 548.579L5551.04 532.117L5550.08 530.364ZM5550.64 530.049C5550.45 530.156 5550.26 530.263 5550.07 530.371L5551.05 532.111C5551.24 532.007 5551.42 531.904 5551.61 531.802L5550.64 530.049ZM5778.12 405.017L5550.64 530.049L5551.61 531.802L5779.09 406.77L5778.12 405.017ZM6036.51 566.264C6039.17 570.615 6038.05 576.724 6033.21 579.592L6034.23 581.314C6040.1 577.837 6041.42 570.455 6038.22 565.221L6036.51 566.264ZM6036.24 565.845C6036.33 565.984 6036.42 566.124 6036.51 566.265L6038.22 565.22C6038.11 565.049 6038 564.881 6037.89 564.715L6036.24 565.845ZM6032.92 562.856C6034.33 563.631 6035.43 564.665 6036.24 565.845L6037.89 564.715C6036.91 563.279 6035.57 562.03 6033.88 561.103L6032.92 562.856ZM5805.44 437.824L6032.92 562.856L6033.88 561.103L5806.4 436.071L5805.44 437.824ZM5796.15 437.824C5799.04 436.235 5802.55 436.235 5805.44 437.824L5806.4 436.071C5802.91 434.153 5798.68 434.153 5795.19 436.071L5796.15 437.824ZM5568.67 562.856L5796.15 437.824L5795.19 436.071L5567.71 561.103L5568.67 562.856ZM5565.21 576.537C5562.34 572.094 5563.51 565.693 5568.67 562.856L5567.71 561.103C5561.46 564.539 5560.08 572.275 5563.52 577.621L5565.21 576.537ZM5568.44 579.618C5567.06 578.809 5565.98 577.745 5565.21 576.538L5563.52 577.62C5564.47 579.088 5565.77 580.375 5567.43 581.345L5568.44 579.618ZM5783.55 697.85L5568.42 579.605L5567.46 581.358L5782.59 699.602L5783.55 697.85ZM5796.15 704.774L5783.55 697.85L5782.59 699.602L5795.19 706.527L5796.15 704.774ZM5805.44 704.774C5802.55 706.363 5799.04 706.363 5796.15 704.774L5795.19 706.527C5798.68 708.445 5802.91 708.445 5806.4 706.527L5805.44 704.774ZM5818.05 697.843L5805.44 704.774L5806.4 706.527L5819.01 699.596L5818.05 697.843ZM5819.53 698.729V698.719H5817.53V698.729H5819.53ZM6033.23 579.577L5818.05 697.853L5819.01 699.605L6034.2 581.329L6033.23 579.577ZM5766.84 1005.72C5766.9 1005.76 5766.97 1005.79 5767.04 1005.83L5767.97 1004.06C5767.91 1004.03 5767.86 1004 5767.8 1003.97L5766.84 1005.72ZM5537.2 879.503L5766.84 1005.72L5767.8 1003.97L5538.16 877.75L5537.2 879.503ZM5531.17 869.307C5531.17 873.551 5533.48 877.459 5537.2 879.503L5538.16 877.75C5535.08 876.057 5533.17 872.822 5533.17 869.307H5531.17ZM5531.17 619.243V869.307H5533.17V619.243H5531.17ZM5548.41 609.047C5540.65 604.785 5531.17 610.395 5531.17 619.243H5533.17C5533.17 611.916 5541.02 607.27 5547.44 610.8L5548.41 609.047ZM5778.04 735.265L5548.41 609.047L5547.44 610.8L5777.08 737.018L5778.04 735.265ZM5784.08 745.461C5784.08 741.217 5781.76 737.309 5778.04 735.265L5777.08 737.018C5780.16 738.711 5782.08 741.946 5782.08 745.461H5784.08ZM5784.08 995.525V745.461H5782.08V995.525H5784.08ZM5784.07 995.728C5784.07 995.667 5784.08 995.597 5784.08 995.525H5782.08C5782.08 995.579 5782.07 995.633 5782.07 995.697L5784.07 995.728ZM5784.07 995.846L5784.07 995.706L5782.07 995.72L5782.07 995.86L5784.07 995.846ZM5767.31 1005.98C5774.87 1009.72 5783.83 1004.35 5784.07 995.881L5782.07 995.825C5781.88 1002.84 5774.45 1007.28 5768.19 1004.18L5767.31 1005.98ZM5767.02 1005.82L5767.27 1005.96L5768.23 1004.2L5767.99 1004.07L5767.02 1005.82ZM5627.61 815.363L5627.59 815.71L5629.58 815.87L5629.61 815.522L5627.61 815.363ZM5603.49 771.838C5610.71 775.639 5617.06 782.415 5621.45 790.334C5625.84 798.253 5628.22 807.227 5627.61 815.368L5629.61 815.517C5630.25 806.908 5627.73 797.547 5623.2 789.365C5618.66 781.182 5612.06 774.088 5604.42 770.068L5603.49 771.838ZM5575.78 787.196C5576.38 779.063 5579.83 773.42 5584.75 770.698C5589.66 767.976 5596.27 768.041 5603.49 771.838L5604.42 770.068C5596.77 766.045 5589.42 765.819 5583.78 768.949C5578.13 772.079 5574.42 778.429 5573.78 787.047L5575.78 787.196ZM5575.77 787.316L5575.78 787.192L5573.78 787.05L5573.77 787.174L5575.77 787.316ZM5575.75 787.535C5575.76 787.459 5575.76 787.39 5575.77 787.323L5573.77 787.167C5573.77 787.25 5573.76 787.332 5573.76 787.406L5575.75 787.535ZM5629.05 814.905L5575.22 786.586L5574.29 788.356L5628.12 816.675L5629.05 814.905ZM5712.32 864.273L5712.29 864.621L5714.28 864.781L5714.31 864.433L5712.32 864.273ZM5688.19 820.749C5695.42 824.55 5701.77 831.325 5706.15 839.245C5710.54 847.164 5712.92 856.138 5712.32 864.279L5714.31 864.428C5714.95 855.818 5712.44 846.458 5707.9 838.275C5703.37 830.093 5696.77 822.999 5689.12 818.979L5688.19 820.749ZM5660.48 836.106C5661.09 827.974 5664.54 822.33 5669.45 819.609C5674.36 816.887 5680.98 816.952 5688.19 820.749L5689.12 818.979C5681.48 814.955 5674.13 814.729 5668.48 817.859C5662.83 820.989 5659.13 827.34 5658.49 835.958L5660.48 836.106ZM5660.46 836.444C5660.47 836.333 5660.47 836.221 5660.48 836.107L5658.49 835.957C5658.48 836.076 5658.47 836.197 5658.46 836.319L5660.46 836.444ZM5713.75 863.816L5659.93 835.496L5659 837.266L5712.82 865.586L5713.75 863.816ZM4717.15 1307.59V1718.63H4719.15V1307.59H4717.15ZM4594.61 1308.59H4718.15V1306.59H4594.61V1308.59ZM4593.61 1157.5V1307.59H4595.61V1157.5H4593.61ZM4718.15 1156.5H4594.61V1158.5H4718.15V1156.5ZM4717.15 1109V1157.5H4719.15V1109H4717.15ZM4747.3 986.133C4727.19 1022.47 4717.15 1063.44 4717.15 1109H4719.15C4719.15 1063.74 4729.12 1023.12 4749.05 987.101L4747.3 986.133ZM4834.28 899.151C4797.17 920.023 4768.17 949.02 4747.3 986.127L4749.04 987.107C4769.74 950.32 4798.47 921.587 4835.26 900.894L4834.28 899.151ZM4966.39 866.694C4915.44 866.694 4871.39 877.502 4834.26 899.159L4835.27 900.886C4872.04 879.438 4915.73 868.694 4966.39 868.694V866.694ZM5067.26 886.413C5038.62 873.256 5004.99 866.694 4966.39 866.694V868.694C5004.76 868.694 5038.1 875.217 5066.42 888.231L5067.26 886.413ZM5143.76 938.584C5122.11 916.162 5096.6 898.767 5067.23 886.4L5066.45 888.244C5095.58 900.508 5120.87 917.751 5142.32 939.973L5143.76 938.584ZM5032.91 1050.83L5143.75 939.986L5142.34 938.572L5031.5 1049.41L5032.91 1050.83ZM5005.29 1033.73C5015.16 1037.53 5023.9 1043.23 5031.5 1050.83L5032.91 1049.41C5025.11 1041.62 5016.14 1035.77 5006.01 1031.87L5005.29 1033.73ZM4972.16 1026.87C4985.13 1026.87 4996.13 1029.16 5005.2 1033.7L5006.09 1031.91C4996.69 1027.2 4985.36 1024.87 4972.16 1024.87V1026.87ZM4916.29 1047.36C4929.92 1033.73 4948.51 1026.87 4972.16 1026.87V1024.87C4948.1 1024.87 4928.96 1031.87 4914.88 1045.95L4916.29 1047.36ZM4895.81 1103.23C4895.81 1079.57 4902.67 1060.99 4916.3 1047.36L4914.88 1045.95C4900.8 1060.03 4893.81 1079.17 4893.81 1103.23H4895.81ZM4895.81 1157.5V1103.23H4893.81V1157.5H4895.81ZM5056.45 1156.5H4894.81V1158.5H5056.45V1156.5ZM5057.45 1307.59V1157.5H5055.45V1307.59H5057.45ZM4894.81 1308.59H5056.45V1306.59H4894.81V1308.59ZM4895.81 1718.63V1307.59H4893.81V1718.63H4895.81ZM4718.15 1719.63H4894.81V1717.63H4718.15V1719.63ZM695.767 1712.07C748.24 1733.67 805.33 1744.47 867.027 1744.47V1742.47C805.568 1742.47 748.739 1731.72 696.528 1710.22L695.767 1712.07ZM559.206 1621.8C598.554 1660.37 644.075 1690.46 695.762 1712.06L696.533 1710.22C645.077 1688.71 599.77 1658.77 560.606 1620.37L559.206 1621.8ZM467.772 1487.54C489.376 1538.46 519.855 1583.22 559.206 1621.8L560.606 1620.37C521.444 1581.98 491.115 1537.44 469.613 1486.76L467.772 1487.54ZM435.364 1320.89C435.364 1380.28 446.164 1435.84 467.77 1487.54L469.616 1486.77C448.117 1435.32 437.364 1380.03 437.364 1320.89H435.364ZM467.772 1154.24C446.163 1205.17 435.364 1260.73 435.364 1320.89H437.364C437.364 1260.97 448.118 1205.69 469.613 1155.02L467.772 1154.24ZM558.051 1021.14C519.468 1058.95 489.375 1103.32 467.772 1154.24L469.613 1155.02C491.116 1104.33 521.061 1060.19 559.451 1022.56L558.051 1021.14ZM693.465 932.019C641.771 952.85 596.628 982.559 558.044 1021.14L559.458 1022.56C597.847 984.168 642.763 954.607 694.212 933.874L693.465 932.019ZM864.718 899.617C803.021 899.617 745.93 910.415 693.458 932.021L694.219 933.871C746.43 912.372 803.259 901.617 864.718 901.617V899.617ZM1033.67 932.023C981.97 910.416 925.648 899.617 864.718 899.617V901.617C925.406 901.617 981.464 912.372 1032.9 933.869L1033.67 932.023ZM1170.24 1021.14C1131.65 982.556 1086.12 952.848 1033.66 932.017L1032.92 933.875C1085.14 954.61 1130.44 984.17 1168.82 1022.56L1170.24 1021.14ZM1261.67 1155.4C1240.06 1103.7 1209.58 1058.94 1170.22 1021.13L1168.84 1022.57C1207.99 1060.19 1238.32 1104.72 1259.82 1156.17L1261.67 1155.4ZM1294.07 1322.04C1294.07 1261.88 1283.27 1206.33 1261.66 1155.39L1259.82 1156.17C1281.32 1206.84 1292.07 1262.13 1292.07 1322.04H1294.07ZM1261.67 1488.69C1283.27 1436.99 1294.07 1381.44 1294.07 1322.04H1292.07C1292.07 1381.19 1281.32 1436.48 1259.82 1487.92L1261.67 1488.69ZM1171.39 1622.95C1209.97 1584.37 1240.06 1539.61 1261.66 1488.7L1259.82 1487.91C1238.32 1538.6 1208.37 1583.14 1169.98 1621.53L1171.39 1622.95ZM1034.82 1712.07C1087.28 1690.47 1132.8 1660.76 1171.39 1622.95L1169.99 1621.52C1131.6 1659.15 1086.29 1688.71 1034.06 1710.22L1034.82 1712.07ZM867.027 1744.47C927.189 1744.47 983.126 1733.67 1034.83 1712.06L1034.06 1710.22C982.617 1731.72 926.944 1742.47 867.027 1742.47V1744.47ZM991.212 1545.18C955.211 1566.62 913.059 1577.36 864.718 1577.36V1579.36C913.364 1579.36 955.881 1568.55 992.235 1546.89L991.212 1545.18ZM1076.28 1455.52C1056.35 1493.84 1028 1523.72 991.22 1545.17L992.227 1546.9C1029.34 1525.25 1057.95 1495.09 1078.05 1456.44L1076.28 1455.52ZM1106.18 1320.89C1106.18 1371.56 1096.2 1416.43 1076.27 1455.52L1078.05 1456.43C1098.15 1417.01 1108.18 1371.82 1108.18 1320.89H1106.18ZM1088.93 1217.33C1100.42 1247.99 1106.18 1282.5 1106.18 1320.89H1108.18C1108.18 1282.3 1102.39 1247.54 1090.8 1216.62L1088.93 1217.33ZM1039.5 1136.85C1060.94 1159.06 1077.42 1185.88 1088.92 1217.32L1090.8 1216.63C1079.21 1184.95 1062.59 1157.89 1040.94 1135.46L1039.5 1136.85ZM962.5 1085.13C992.38 1096.62 1018.04 1113.86 1039.49 1136.84L1040.95 1135.47C1019.29 1112.27 993.376 1094.86 963.218 1083.26L962.5 1085.13ZM864.718 1066.72C900.781 1066.72 933.36 1072.86 962.471 1085.12L963.247 1083.28C933.858 1070.9 901.01 1064.72 864.718 1064.72V1066.72ZM737.062 1098.92C773.837 1077.46 816.378 1066.72 864.718 1066.72V1064.72C816.072 1064.72 773.174 1075.54 736.055 1097.19L737.062 1098.92ZM653.16 1187.42C673.089 1149.09 701.052 1119.6 737.057 1098.92L736.06 1097.19C699.71 1118.07 671.483 1147.85 651.386 1186.5L653.16 1187.42ZM623.254 1320.89C623.254 1269.45 633.235 1224.97 653.157 1187.43L651.39 1186.49C631.286 1224.38 621.254 1269.19 621.254 1320.89H623.254ZM640.512 1425.61C629.011 1394.18 623.254 1359.28 623.254 1320.89H621.254C621.254 1359.48 627.042 1394.62 638.634 1426.3L640.512 1425.61ZM688.809 1507.26C668.118 1484.27 652.017 1457.06 640.512 1425.61L638.634 1426.3C650.22 1457.97 666.447 1485.41 687.322 1508.6L688.809 1507.26ZM765.803 1558.96C735.906 1546.7 710.237 1529.46 688.785 1507.24L687.346 1508.63C708.999 1531.05 734.902 1548.45 765.044 1560.82L765.803 1558.96ZM864.718 1577.36C828.656 1577.36 795.689 1571.23 765.803 1558.96L765.044 1560.82C795.197 1573.19 828.426 1579.36 864.718 1579.36V1577.36ZM3176.49 1397.11V1716.93H3178.49V1397.11H3176.49ZM3149.08 1327.4C3167.33 1344.89 3176.49 1368.09 3176.49 1397.11H3178.49C3178.49 1367.63 3169.17 1343.88 3150.47 1325.96L3149.08 1327.4ZM3081.65 1299.97C3109.12 1299.97 3131.56 1309.11 3149.05 1327.37L3150.5 1325.99C3132.59 1307.3 3109.61 1297.97 3081.65 1297.97V1299.97ZM3031.35 1312.53C3045.81 1304.17 3062.56 1299.97 3081.65 1299.97V1297.97C3062.26 1297.97 3045.15 1302.24 3030.35 1310.8L3031.35 1312.53ZM2997.09 1346.79C3005.47 1331.55 3016.88 1320.15 3031.32 1312.55L3030.39 1310.78C3015.58 1318.58 3003.89 1330.27 2995.34 1345.82L2997.09 1346.79ZM2984.51 1397.11C2984.51 1378.02 2988.71 1361.26 2997.08 1346.81L2995.35 1345.8C2986.78 1360.6 2982.51 1377.71 2982.51 1397.11H2984.51ZM2984.51 1716.93V1397.11H2982.51V1716.93H2984.51ZM2806.86 1717.93H2983.51V1715.93H2806.86V1717.93ZM2805.86 1155.8V1716.93H2807.86V1155.8H2805.86ZM2983.51 1154.8H2806.86V1156.8H2983.51V1154.8ZM2984.51 1199.76V1155.8H2982.51V1199.76H2984.51ZM3023.46 1171.08C3008.51 1178.89 2994.97 1188.2 2982.85 1199.01L2984.18 1200.51C2996.17 1189.81 3009.58 1180.59 3024.39 1172.85L3023.46 1171.08ZM3140.54 1143.25C3097.29 1143.25 3058.25 1152.52 3023.45 1171.08L3024.4 1172.84C3058.87 1154.46 3097.58 1145.25 3140.54 1145.25V1143.25ZM3250.76 1173.43C3219.02 1153.3 3182.27 1143.25 3140.54 1143.25V1145.25C3181.94 1145.25 3218.31 1155.22 3249.69 1175.12L3250.76 1173.43ZM3327.3 1251.13C3308.74 1218.65 3283.21 1192.74 3250.74 1173.41L3249.71 1175.13C3281.9 1194.29 3307.17 1219.95 3325.56 1252.13L3327.3 1251.13ZM3345.36 1354.67C3345.38 1317.46 3345.41 1282.84 3327.3 1251.13L3325.56 1252.13C3343.37 1283.29 3343.38 1317.36 3343.36 1354.67L3345.36 1354.67ZM3345.36 1357.85L3345.36 1354.67L3343.36 1354.67L3343.36 1357.85L3345.36 1357.85ZM3345.36 1716.93V1357.85H3343.36V1716.93H3345.36ZM3177.49 1717.93H3344.36V1715.93H3177.49V1717.93ZM2253.09 1695.77C2300.97 1720.48 2355.4 1732.83 2416.35 1732.83V1730.83C2355.68 1730.83 2301.57 1718.54 2254.01 1693.99L2253.09 1695.77ZM2141.85 1590.33C2168.89 1635.13 2205.97 1670.28 2253.07 1695.76L2254.02 1694C2207.22 1668.68 2170.41 1633.78 2143.56 1589.3L2141.85 1590.33ZM2101.3 1438.56C2101.3 1494.92 2114.81 1545.52 2141.85 1590.33L2143.56 1589.3C2116.72 1544.82 2103.3 1494.58 2103.3 1438.56H2101.3ZM2140.69 1287.95C2114.42 1332 2101.3 1382.21 2101.3 1438.56H2103.3C2103.3 1382.53 2116.34 1332.68 2142.41 1288.98L2140.69 1287.95ZM2249.6 1182.52C2204.03 1208.01 2167.73 1243.15 2140.7 1287.95L2142.41 1288.98C2169.26 1244.48 2205.31 1209.58 2250.57 1184.27L2249.6 1182.52ZM2403.65 1144.29C2346.53 1144.29 2295.17 1157.03 2249.6 1182.52L2250.57 1184.27C2295.82 1158.96 2346.84 1146.29 2403.65 1146.29V1144.29ZM2550.77 1180.21C2508.27 1156.26 2459.21 1144.29 2403.65 1144.29V1146.29C2458.92 1146.29 2507.62 1158.19 2549.79 1181.96L2550.77 1180.21ZM2650.45 1279.89C2626.49 1237.4 2593.26 1204.17 2550.77 1180.21L2549.79 1181.96C2591.96 1205.73 2624.93 1238.7 2648.7 1280.87L2650.45 1279.89ZM2687.52 1425.86C2687.52 1371.05 2675.17 1322.38 2650.44 1279.88L2648.71 1280.88C2673.24 1323.05 2685.52 1371.36 2685.52 1425.86H2687.52ZM2685.2 1458.32C2686.75 1446.74 2687.52 1435.92 2687.52 1425.86H2685.52C2685.52 1435.82 2684.76 1446.55 2683.22 1458.06L2685.2 1458.32ZM2679.42 1496.5C2682.5 1481.84 2684.44 1469.09 2685.21 1458.26L2683.21 1458.12C2682.45 1468.83 2680.53 1481.49 2677.46 1496.08L2679.42 1496.5ZM2276.2 1498.25L2678.44 1497.29L2678.44 1495.29L2276.2 1496.25L2276.2 1498.25ZM2286.78 1522.41C2282.93 1514.45 2279.72 1505.98 2277.16 1496.98L2275.24 1497.52C2277.83 1506.63 2281.07 1515.21 2284.98 1523.28L2286.78 1522.41ZM2337.2 1576.26C2315.81 1563.27 2298.99 1545.31 2286.76 1522.37L2284.99 1523.32C2297.39 1546.56 2314.45 1564.78 2336.16 1577.97L2337.2 1576.26ZM2415.19 1594.58C2385.31 1594.58 2359.31 1588.46 2337.16 1576.24L2336.2 1577.99C2358.69 1590.4 2385.03 1596.58 2415.19 1596.58V1594.58ZM2489.86 1580.81C2467.67 1589.99 2442.79 1594.58 2415.19 1594.58V1596.58C2443.01 1596.58 2468.16 1591.95 2490.62 1582.65L2489.86 1580.81ZM2548.37 1537.19C2531.53 1556.34 2512.02 1570.87 2489.83 1580.82L2490.65 1582.64C2513.11 1572.57 2532.85 1557.86 2549.87 1538.52L2548.37 1537.19ZM2646.82 1634.13L2549.83 1537.15L2548.42 1538.56L2645.4 1635.55L2646.82 1634.13ZM2546.04 1708.5C2585.44 1692.28 2619.06 1667.94 2646.87 1635.49L2645.35 1634.19C2617.74 1666.4 2584.39 1690.55 2545.28 1706.66L2546.04 1708.5ZM2416.35 1732.83C2463.42 1732.83 2506.65 1724.72 2546.04 1708.5L2545.28 1706.66C2506.16 1722.76 2463.18 1730.83 2416.35 1730.83V1732.83ZM2276.27 1376.98L2521.55 1376.29L2521.54 1374.29L2276.27 1374.98L2276.27 1376.98ZM2283.82 1352.7C2280.46 1359.89 2277.62 1367.56 2275.31 1375.71L2277.23 1376.25C2279.52 1368.2 2282.32 1360.63 2285.63 1353.54L2283.82 1352.7ZM2331.54 1299.16C2311.35 1311.58 2295.45 1329.43 2283.83 1352.67L2285.62 1353.57C2297.09 1330.63 2312.75 1313.07 2332.59 1300.86L2331.54 1299.16ZM2404.8 1279.38C2376.93 1279.38 2352.49 1285.96 2331.53 1299.16L2332.59 1300.86C2353.2 1287.88 2377.25 1281.38 2404.8 1281.38V1279.38ZM2471.16 1296.86C2453.26 1285.19 2431.12 1279.38 2404.8 1279.38V1281.38C2430.82 1281.38 2452.56 1287.12 2470.07 1298.54L2471.16 1296.86ZM2513.1 1345.8C2503.78 1324.07 2489.79 1307.73 2471.12 1296.84L2470.11 1298.56C2488.38 1309.22 2502.1 1325.21 2511.26 1346.59L2513.1 1345.8ZM2522.52 1375.07C2520.13 1364.31 2516.98 1354.55 2513.09 1345.79L2511.26 1346.6C2515.09 1355.22 2518.2 1364.85 2520.57 1375.51L2522.52 1375.07ZM1737.48 1729.68C1699.9 1729.68 1665.4 1722.39 1633.99 1707.83L1633.15 1709.65C1664.85 1724.34 1699.63 1731.68 1737.48 1731.68V1729.68ZM1877.81 1691.72C1837.19 1717.02 1790.43 1729.68 1737.48 1729.68V1731.68C1790.76 1731.68 1837.9 1718.93 1878.87 1693.42L1877.81 1691.72ZM1974.44 1588.19C1951.43 1631.91 1919.23 1666.42 1877.82 1691.72L1878.86 1693.43C1920.58 1667.93 1953.04 1633.16 1976.21 1589.13L1974.44 1588.19ZM2010.12 1438.56C2010.12 1494.61 1998.22 1544.47 1974.45 1588.18L1976.21 1589.14C2000.16 1545.1 2012.12 1494.9 2012.12 1438.56H2010.12ZM1974.45 1288.94C1998.22 1332.65 2010.12 1382.52 2010.12 1438.56H2012.12C2012.12 1382.23 2000.16 1332.03 1976.21 1287.99L1974.45 1288.94ZM1877.82 1185.41C1919.23 1210.71 1951.43 1245.21 1974.44 1288.93L1976.21 1288C1953.04 1243.97 1920.58 1209.2 1878.86 1183.7L1877.82 1185.41ZM1737.48 1147.45C1790.43 1147.45 1837.19 1160.11 1877.81 1185.4L1878.87 1183.7C1837.9 1158.19 1790.76 1145.45 1737.48 1145.45V1147.45ZM1634.01 1170.44C1665.42 1155.12 1699.9 1147.45 1737.48 1147.45V1145.45C1699.62 1145.45 1664.83 1153.18 1633.13 1168.64L1634.01 1170.44ZM1591.48 1197.5C1604.24 1187.07 1618.41 1178.05 1634.01 1170.44L1633.13 1168.64C1617.4 1176.32 1603.1 1185.42 1590.21 1195.95L1591.48 1197.5ZM1589.85 1158V1196.73H1591.85V1158H1589.85ZM1414.19 1159H1590.85V1157H1414.19V1159ZM1415.19 1955.82V1158H1413.19V1955.82H1415.19ZM1588.54 1954.82H1414.19V1956.82H1588.54V1954.82ZM1587.54 1681.17V1955.82H1589.54V1681.17H1587.54ZM1633.99 1707.83C1617.45 1700.17 1602.51 1691.02 1589.16 1680.39L1587.91 1681.95C1601.39 1692.69 1616.47 1701.92 1633.15 1709.65L1633.99 1707.83ZM1705.15 1572.34C1730.71 1572.34 1752.84 1566.53 1771.49 1554.87L1770.43 1553.17C1752.14 1564.61 1730.4 1570.34 1705.15 1570.34V1572.34ZM1639.98 1554.88C1659.39 1566.53 1681.12 1572.34 1705.15 1572.34V1570.34C1681.46 1570.34 1660.09 1564.61 1641.01 1553.16L1639.98 1554.88ZM1594.58 1507.16C1605.45 1527.33 1620.58 1543.24 1639.98 1554.88L1641.01 1553.16C1621.92 1541.71 1607.04 1526.07 1596.35 1506.21L1594.58 1507.16ZM1579.46 1438.56C1579.46 1464.1 1584.49 1486.96 1594.57 1507.13L1596.36 1506.24C1586.43 1486.38 1581.46 1463.83 1581.46 1438.56H1579.46ZM1595.74 1368.81C1584.87 1388.99 1579.46 1412.25 1579.46 1438.56H1581.46C1581.46 1412.53 1586.81 1389.61 1597.5 1369.76L1595.74 1368.81ZM1639.99 1322.24C1621.35 1333.11 1606.6 1348.65 1595.74 1368.81L1597.5 1369.76C1608.2 1349.9 1622.69 1334.65 1641 1323.97L1639.99 1322.24ZM1706.31 1304.78C1681.51 1304.78 1659.39 1310.6 1639.98 1322.25L1641.01 1323.96C1660.08 1312.52 1681.84 1306.78 1706.31 1306.78V1304.78ZM1771.49 1322.26C1752.84 1310.6 1731.1 1304.78 1706.31 1304.78V1306.78C1730.78 1306.78 1752.14 1312.52 1770.43 1323.95L1771.49 1322.26ZM1816.87 1368.81C1806.01 1348.64 1790.87 1333.1 1771.45 1322.23L1770.48 1323.98C1789.55 1334.66 1804.42 1349.91 1815.11 1369.76L1816.87 1368.81ZM1833.16 1438.56C1833.16 1412.25 1827.74 1388.99 1816.87 1368.81L1815.11 1369.76C1825.8 1389.61 1831.16 1412.53 1831.16 1438.56H1833.16ZM1816.87 1507.16C1827.74 1486.98 1833.16 1464.11 1833.16 1438.56H1831.16C1831.16 1463.82 1825.8 1486.36 1815.11 1506.21L1816.87 1507.16ZM1771.48 1554.88C1790.88 1543.24 1806.01 1527.33 1816.87 1507.16L1815.11 1506.21C1804.42 1526.07 1789.54 1541.71 1770.45 1553.16L1771.48 1554.88ZM5404.39 1730.25C5352.96 1730.25 5307.32 1719.89 5267.45 1699.19L5266.53 1700.97C5306.72 1721.83 5352.68 1732.25 5404.39 1732.25V1730.25ZM5540.16 1699.2C5501.07 1719.89 5455.82 1730.25 5404.39 1730.25V1732.25C5456.1 1732.25 5501.68 1721.83 5541.1 1700.96L5540.16 1699.2ZM5632.14 1611.81C5609.92 1648.6 5579.26 1677.73 5540.15 1699.2L5541.11 1700.96C5580.52 1679.32 5611.44 1649.95 5633.85 1612.85L5632.14 1611.81ZM5665.48 1481.86C5665.48 1530.97 5654.36 1574.28 5632.14 1611.82L5633.86 1612.84C5656.28 1574.95 5667.48 1531.28 5667.48 1481.86H5665.48ZM5665.48 1157.42V1481.86H5667.48V1157.42H5665.48ZM5489.83 1158.42H5666.48V1156.42H5489.83V1158.42ZM5490.83 1480.71V1157.42H5488.83V1480.71H5490.83ZM5467.48 1550.66C5483.08 1533.49 5490.83 1510.13 5490.83 1480.71H5488.83C5488.83 1509.78 5481.18 1532.61 5466 1549.31L5467.48 1550.66ZM5404.39 1575.23C5430.78 1575.23 5451.85 1567.07 5467.46 1550.67L5466.01 1549.29C5450.84 1565.23 5430.34 1573.23 5404.39 1573.23V1575.23ZM5356.55 1563.55C5369.81 1571.35 5385.78 1575.23 5404.39 1575.23V1573.23C5386.06 1573.23 5370.46 1569.41 5357.56 1561.82L5356.55 1563.55ZM5326.14 1530.8C5333.15 1544.83 5343.29 1555.75 5356.55 1563.55L5357.56 1561.82C5344.64 1554.22 5334.77 1543.59 5327.93 1529.91L5326.14 1530.8ZM5316.8 1480.71C5316.8 1500.05 5319.89 1516.75 5326.12 1530.76L5327.95 1529.95C5321.86 1516.25 5318.8 1499.85 5318.8 1480.71H5316.8ZM5316.8 1157.42V1480.71H5318.8V1157.42H5316.8ZM5141.14 1158.42H5317.8V1156.42H5141.14V1158.42ZM5142.14 1483.02V1157.42H5140.14V1483.02H5142.14ZM5175.49 1611.82C5153.27 1574.28 5142.14 1531.35 5142.14 1483.02H5140.14C5140.14 1531.67 5151.34 1574.95 5173.77 1612.84L5175.49 1611.82ZM5267.47 1699.2C5228.37 1677.73 5197.71 1648.6 5175.48 1611.81L5173.77 1612.85C5196.19 1649.95 5227.11 1679.32 5266.51 1700.96L5267.47 1699.2ZM4210.34 1729.79C4152.76 1729.79 4100.58 1717.12 4053.79 1691.8L4052.84 1693.56C4099.95 1719.05 4152.46 1731.79 4210.34 1731.79V1729.79ZM4366.88 1691.81C4320.86 1717.12 4268.69 1729.79 4210.34 1729.79V1731.79C4268.99 1731.79 4321.5 1719.05 4367.84 1693.56L4366.88 1691.81ZM4476.19 1585.94C4449.34 1630.44 4412.91 1665.73 4366.87 1691.81L4367.86 1693.55C4414.19 1667.3 4450.87 1631.77 4477.9 1586.98L4476.19 1585.94ZM4516.46 1436.36C4516.46 1491.61 4503.03 1541.47 4476.19 1585.94L4477.9 1586.98C4504.95 1542.17 4518.46 1491.95 4518.46 1436.36H4516.46ZM4476.2 1287.94C4503.03 1331.65 4516.46 1381.11 4516.46 1436.36H4518.46C4518.46 1380.77 4504.95 1330.94 4477.9 1286.9L4476.2 1287.94ZM4366.88 1183.23C4412.91 1208.55 4449.34 1243.45 4476.19 1287.94L4477.9 1286.9C4450.87 1242.11 4414.18 1206.96 4367.84 1181.48L4366.88 1183.23ZM4210.34 1145.25C4268.69 1145.25 4320.86 1157.92 4366.88 1183.23L4367.84 1181.48C4321.5 1155.99 4268.99 1143.25 4210.34 1143.25V1145.25ZM4053.81 1184.38C4099.82 1158.3 4151.99 1145.25 4210.34 1145.25V1143.25C4151.68 1143.25 4099.17 1156.37 4052.82 1182.64L4053.81 1184.38ZM3944.48 1287.94C3971.33 1244.22 4007.76 1209.7 4053.79 1184.38L4052.83 1182.63C4006.5 1208.11 3969.81 1242.87 3942.77 1286.9L3944.48 1287.94ZM3904.22 1436.36C3904.22 1381.11 3917.64 1331.65 3944.48 1287.94L3942.77 1286.9C3915.73 1330.94 3902.22 1380.77 3902.22 1436.36H3904.22ZM3944.48 1585.94C3917.64 1541.47 3904.22 1491.61 3904.22 1436.36H3902.22C3902.22 1491.95 3915.73 1542.17 3942.77 1586.98L3944.48 1585.94ZM4053.81 1691.81C4007.77 1665.73 3971.33 1630.44 3944.48 1585.94L3942.77 1586.98C3969.8 1631.77 4006.49 1667.3 4052.82 1693.55L4053.81 1691.81ZM4210.34 1571.3C4235.88 1571.3 4258.38 1565.88 4277.79 1555.01L4276.81 1553.26C4257.74 1563.94 4235.59 1569.3 4210.34 1569.3V1571.3ZM4144.04 1555.01C4163.45 1565.87 4185.56 1571.3 4210.34 1571.3V1569.3C4185.86 1569.3 4164.09 1563.94 4145.01 1553.26L4144.04 1555.01ZM4098.62 1507.27C4109.48 1527.44 4124.61 1543.35 4144.01 1554.99L4145.04 1553.28C4125.95 1541.82 4111.07 1526.18 4100.38 1506.32L4098.62 1507.27ZM4082.33 1437.52C4082.33 1463.07 4087.75 1486.32 4098.61 1507.25L4100.38 1506.33C4089.69 1485.71 4084.33 1462.77 4084.33 1437.52H4082.33ZM4098.62 1367.77C4087.75 1387.95 4082.33 1411.21 4082.33 1437.52H4084.33C4084.33 1411.49 4089.69 1388.56 4100.38 1368.72L4098.62 1367.77ZM4144.04 1321.19C4124.62 1332.06 4109.48 1347.59 4098.62 1367.77L4100.38 1368.72C4111.07 1348.87 4125.94 1333.61 4145.01 1322.93L4144.04 1321.19ZM4210.34 1303.74C4185.54 1303.74 4163.42 1309.55 4144.01 1321.2L4145.04 1322.92C4164.11 1311.47 4185.87 1305.74 4210.34 1305.74V1303.74ZM4276.68 1321.21C4258.02 1309.55 4235.89 1303.74 4210.34 1303.74V1305.74C4235.58 1305.74 4257.33 1311.48 4275.62 1322.91L4276.68 1321.21ZM4322.06 1367.77C4311.2 1347.59 4296.05 1332.06 4276.64 1321.19L4275.66 1322.93C4294.73 1333.61 4309.61 1348.87 4320.3 1368.72L4322.06 1367.77ZM4338.34 1436.36C4338.34 1410.05 4332.93 1387.17 4322.05 1367.75L4320.31 1368.73C4330.98 1387.8 4336.34 1410.33 4336.34 1436.36H4338.34ZM4322.07 1507.25C4332.92 1486.31 4338.34 1462.68 4338.34 1436.36H4336.34C4336.34 1462.39 4330.98 1485.71 4320.29 1506.33L4322.07 1507.25ZM4277.82 1554.99C4297.22 1543.35 4311.98 1527.42 4322.07 1507.24L4320.28 1506.35C4310.36 1526.19 4295.87 1541.83 4276.79 1553.28L4277.82 1554.99ZM3561.46 1058.8V1715.76H3563.46V1058.8H3561.46ZM3307.3 1059.8H3562.46V1057.8H3307.3V1059.8ZM3306.3 900.617V1058.8H3308.3V900.617H3306.3ZM3991.08 899.617H3307.3V901.617H3991.08V899.617ZM3992.08 1058.8V900.617H3990.08V1058.8H3992.08ZM3743.74 1059.8H3991.08V1057.8H3743.74V1059.8ZM3744.74 1715.76V1058.8H3742.74V1715.76H3744.74ZM3562.46 1716.76H3743.74V1714.76H3562.46V1716.76Z" fill="white" mask="url(#path-1-outside-1_448_113)"/>
</svg>
