<svg width="1301" height="758" viewBox="0 0 1301 758" fill="none" xmlns="http://www.w3.org/2000/svg">
<rect width="1300.5" height="758" fill="#933EFF"/>
<path fill-rule="evenodd" clip-rule="evenodd" d="M219.218 189L203.726 199.571L377.528 312.155L343.311 335.7L193.853 238.977L181.983 231.752L181.718 232.161V231.59L164.423 221.063V297.739L225.663 340.126V527.993L232.274 532.412L267.359 555.949L287.415 568.718V540.556L287.41 540.555V476.063L311.437 491.922V551.555L328.732 539.727V503.337L343.273 512.935L395.237 476.675V400.41L395.265 400.369L395.237 400.35V400.309L395.207 400.33L377.692 388.578L395.237 376.335V313.364L395.255 313.337V303.176L389.216 299.272L389.363 299.215L219.218 189ZM270.115 443.925V536.903L242.958 518.75V331.395H242.894L243.07 331.141L181.718 288.676V251.725L343.606 356.491L377.942 332.864V367.314L362.284 378.24L362.169 378.163L361.971 378.459L342.999 391.697L272.347 345.148V404.616H272.357V410.448L343.591 456.842L377.942 433.204V467.654L343.003 492.034L270.115 443.925ZM343.278 412.592L362.476 399.196L379.882 410.875L343.326 436.03L289.652 401.072V377.26L343.278 412.592Z" fill="white"/>
<path d="M531.172 444.955C519.743 444.955 509.238 442.299 499.656 436.988C490.19 431.677 482.629 424.288 476.972 414.82C471.431 405.237 468.66 394.499 468.66 382.607C468.66 370.715 471.431 360.035 476.972 350.567C482.629 341.1 490.19 333.71 499.656 328.399C509.238 323.088 519.743 320.433 531.172 320.433C542.601 320.433 553.049 323.088 562.515 328.399C572.097 333.71 579.601 341.1 585.027 350.567C590.568 360.035 593.338 370.715 593.338 382.607C593.338 394.499 590.568 405.237 585.027 414.82C579.485 424.288 571.982 431.677 562.515 436.988C553.049 442.299 542.601 444.955 531.172 444.955ZM531.172 417.938C540.87 417.938 548.604 414.705 554.376 408.239C560.264 401.773 563.208 393.229 563.208 382.607C563.208 371.87 560.264 363.326 554.376 356.975C548.604 350.51 540.87 347.277 531.172 347.277C521.36 347.277 513.51 350.452 507.622 356.802C501.85 363.152 498.964 371.754 498.964 382.607C498.964 393.345 501.85 401.946 507.622 408.412C513.51 414.762 521.36 417.938 531.172 417.938Z" fill="white"/>
<path d="M639.423 360.786C642.309 356.283 646.292 352.646 651.372 349.875C656.451 347.104 662.396 345.718 669.208 345.718C677.173 345.718 684.388 347.739 690.853 351.78C697.318 355.821 702.397 361.594 706.092 369.099C709.901 376.603 711.806 385.32 711.806 395.25C711.806 405.179 709.901 413.954 706.092 421.574C702.397 429.079 697.318 434.91 690.853 439.066C684.388 443.107 677.173 445.128 669.208 445.128C662.512 445.128 656.567 443.742 651.372 440.971C646.292 438.2 642.309 434.621 639.423 430.234V489.81H609.812V347.104H639.423V360.786ZM681.675 395.25C681.675 387.861 679.597 382.088 675.442 377.931C671.401 373.659 666.379 371.523 660.376 371.523C654.489 371.523 649.467 373.659 645.311 377.931C641.27 382.203 639.25 388.034 639.25 395.423C639.25 402.812 641.27 408.643 645.311 412.915C649.467 417.187 654.489 419.323 660.376 419.323C666.264 419.323 671.286 417.187 675.442 412.915C679.597 408.528 681.675 402.639 681.675 395.25Z" fill="white"/>
<path d="M822.522 393.864C822.522 396.635 822.349 399.522 822.003 402.524H754.988C755.45 408.528 757.354 413.146 760.702 416.379C764.166 419.496 768.379 421.055 773.343 421.055C780.732 421.055 785.869 417.937 788.755 411.703H820.271C818.655 418.053 815.711 423.768 811.44 428.848C807.284 433.928 802.031 437.912 795.682 440.798C789.332 443.685 782.232 445.128 774.382 445.128C764.916 445.128 756.489 443.107 749.1 439.066C741.712 435.025 735.94 429.252 731.784 421.748C727.628 414.243 725.55 405.468 725.55 395.423C725.55 385.378 727.57 376.603 731.611 369.099C735.767 361.594 741.539 355.821 748.927 351.78C756.315 347.739 764.801 345.718 774.382 345.718C783.733 345.718 792.045 347.681 799.318 351.607C806.591 355.532 812.248 361.132 816.288 368.406C820.444 375.68 822.522 384.166 822.522 393.864ZM792.218 386.071C792.218 380.991 790.487 376.95 787.023 373.948C783.56 370.946 779.231 369.445 774.036 369.445C769.072 369.445 764.858 370.888 761.395 373.775C758.047 376.661 755.969 380.76 755.161 386.071H792.218Z" fill="white"/>
<path d="M897.019 346.065C908.333 346.065 917.337 349.759 924.033 357.149C930.844 364.422 934.25 374.467 934.25 387.283V443.742H904.812V391.267C904.812 384.801 903.138 379.778 899.79 376.199C896.442 372.62 891.94 370.83 886.283 370.83C880.626 370.83 876.124 372.62 872.776 376.199C869.429 379.778 867.755 384.801 867.755 391.267V443.742H838.143V347.104H867.755V359.92C870.756 355.648 874.797 352.299 879.876 349.875C884.956 347.335 890.67 346.065 897.019 346.065Z" fill="white"/>
<path d="M1042.27 322.165V345.891H1010.07V443.742H980.455V345.891H948.246V322.165H1042.27Z" fill="white"/>
<path d="M1136.27 322.165V345.891H1086.75V371.523H1123.8V394.557H1086.75V443.742H1057.14V322.165H1136.27Z" fill="white"/>
</svg>
