<svg width="6505" height="2356" viewBox="0 0 6505 2356" fill="none" xmlns="http://www.w3.org/2000/svg">
<rect width="6505" height="2356" fill="black"/>
<path d="M3177.47 1716.93V1397.11C3177.47 1367.86 3168.24 1344.38 3149.76 1326.68C3132.06 1308.2 3109.35 1298.97 3081.64 1298.97C3062.4 1298.97 3045.47 1303.2 3030.84 1311.67C3016.22 1319.37 3004.67 1330.91 2996.2 1346.31C2987.74 1360.93 2983.5 1377.86 2983.5 1397.11L2915.38 1363.62C2915.38 1319.75 2925 1281.26 2944.25 1248.17C2963.49 1215.07 2990.05 1189.67 3023.91 1171.96C3058.55 1153.49 3097.42 1144.25 3140.53 1144.25C3182.09 1144.25 3218.65 1154.26 3250.21 1174.27C3282.54 1193.51 3307.94 1219.3 3326.42 1251.63C3344.89 1283.96 3344.35 1319.37 3344.35 1357.85V1716.93H3177.47ZM2806.85 1716.93V1155.8H2983.5V1716.93H2806.85Z" fill="white"/>
<path d="M2416.33 1731.83C2355.53 1731.83 2301.26 1719.51 2253.54 1694.88C2206.58 1669.48 2169.64 1634.46 2142.7 1589.81C2115.76 1545.17 2102.29 1494.75 2102.29 1438.56C2102.29 1382.37 2115.37 1332.34 2141.54 1288.46C2168.48 1243.82 2204.66 1208.8 2250.07 1183.4C2295.49 1157.99 2346.67 1145.29 2403.63 1145.29C2459.05 1145.29 2507.93 1157.22 2550.27 1181.09C2592.6 1204.95 2625.7 1238.05 2649.56 1280.38C2674.19 1322.72 2686.51 1371.21 2686.51 1425.86C2686.51 1435.87 2685.74 1446.64 2684.2 1458.19C2683.43 1468.96 2681.51 1481.67 2678.43 1496.29L2194.65 1497.44V1376.21L2603.38 1375.06L2527.18 1425.86C2526.41 1393.53 2521.4 1366.98 2512.17 1346.19C2502.93 1324.64 2489.07 1308.48 2470.6 1297.7C2452.9 1286.15 2430.96 1280.38 2404.79 1280.38C2377.08 1280.38 2352.83 1286.92 2332.05 1300.01C2312.04 1312.32 2296.26 1330.03 2284.71 1353.12C2273.93 1376.21 2268.55 1404.31 2268.55 1437.41C2268.55 1470.5 2274.32 1498.98 2285.87 1522.85C2298.18 1545.94 2315.12 1564.03 2336.67 1577.11C2358.99 1589.43 2385.16 1595.58 2415.18 1595.58C2442.89 1595.58 2467.91 1590.97 2490.23 1581.73C2512.55 1571.72 2532.18 1557.1 2549.11 1537.86L2646.1 1634.84C2618.39 1667.17 2584.9 1691.42 2545.65 1707.58C2506.39 1723.74 2463.29 1731.83 2416.33 1731.83Z" fill="white"/>
<path d="M1737.47 1730.68C1699.75 1730.68 1665.11 1723.36 1633.56 1708.74C1602 1694.11 1576.21 1674.1 1556.2 1648.7C1536.18 1622.53 1524.64 1592.89 1521.56 1559.8V1323.1C1524.64 1290.01 1536.18 1259.99 1556.2 1233.05C1576.21 1206.11 1602 1184.94 1633.56 1169.54C1665.11 1154.15 1699.75 1146.45 1737.47 1146.45C1790.58 1146.45 1837.53 1159.15 1878.33 1184.55C1919.89 1209.95 1952.22 1244.59 1975.31 1288.47C1999.18 1332.34 2011.11 1382.37 2011.11 1438.56C2011.11 1494.75 1999.18 1544.79 1975.31 1588.66C1952.22 1632.53 1919.89 1667.17 1878.33 1692.57C1837.53 1717.97 1790.58 1730.68 1737.47 1730.68ZM1705.14 1571.34C1730.54 1571.34 1752.48 1565.57 1770.95 1554.02C1790.2 1542.48 1805.2 1526.7 1815.98 1506.68C1826.76 1486.67 1832.15 1463.96 1832.15 1438.56C1832.15 1412.39 1826.76 1389.3 1815.98 1369.29C1805.2 1349.27 1790.2 1333.88 1770.95 1323.1C1752.48 1311.56 1730.93 1305.78 1706.29 1305.78C1681.66 1305.78 1659.73 1311.56 1640.48 1323.1C1622.01 1333.88 1607.38 1349.27 1596.61 1369.29C1585.83 1389.3 1580.44 1412.39 1580.44 1438.56C1580.44 1463.96 1585.45 1486.67 1595.45 1506.68C1606.23 1526.7 1621.24 1542.48 1640.48 1554.02C1659.73 1565.57 1681.28 1571.34 1705.14 1571.34ZM1414.18 1955.82V1158H1590.84V1302.32L1561.97 1438.56L1588.53 1574.81V1955.82H1414.18Z" fill="white"/>
<path d="M867.016 1743.47C805.437 1743.47 748.478 1732.69 696.136 1711.14C644.564 1689.59 599.15 1659.57 559.894 1621.08C520.638 1582.6 490.234 1537.95 468.681 1487.15C447.129 1435.58 436.353 1380.16 436.353 1320.89C436.353 1260.85 447.129 1205.43 468.681 1154.63C490.234 1103.83 520.253 1059.57 558.739 1021.85C597.226 983.363 642.255 953.729 693.827 932.946C746.168 911.394 803.128 900.618 864.707 900.618C925.515 900.618 981.705 911.394 1033.28 932.946C1085.62 953.729 1131.03 983.363 1169.52 1021.85C1208.78 1059.57 1239.18 1104.21 1260.73 1155.78C1282.28 1206.58 1293.06 1262.01 1293.06 1322.04C1293.06 1381.31 1282.28 1436.73 1260.73 1488.31C1239.18 1539.11 1209.16 1583.75 1170.67 1622.24C1132.19 1659.95 1086.77 1689.59 1034.43 1711.14C982.86 1732.69 927.055 1743.47 867.016 1743.47ZM864.707 1578.36C913.2 1578.36 955.535 1567.59 991.712 1546.03C1028.66 1524.48 1057.14 1494.46 1077.15 1455.98C1097.16 1416.72 1107.17 1371.69 1107.17 1320.89C1107.17 1282.4 1101.4 1247.77 1089.85 1216.98C1078.31 1185.42 1061.76 1158.48 1040.2 1136.15C1018.65 1113.06 992.866 1095.74 962.847 1084.2C933.597 1071.88 900.884 1065.72 864.707 1065.72C816.214 1065.72 773.494 1076.5 736.547 1098.05C700.369 1118.84 672.274 1148.47 652.261 1186.96C632.249 1224.67 622.242 1269.32 622.242 1320.89C622.242 1359.38 628.015 1394.4 639.561 1425.96C651.107 1457.52 667.271 1484.84 688.054 1507.93C709.606 1530.26 735.392 1547.57 765.412 1559.89C795.431 1572.21 828.529 1578.36 864.707 1578.36Z" fill="white"/>
<path d="M5404.38 1731.25C5352.81 1731.25 5307.01 1720.86 5266.98 1700.08C5227.73 1678.53 5196.94 1649.28 5174.61 1612.33C5152.29 1574.61 5141.13 1531.51 5141.13 1483.02V1157.42H5317.78V1480.71C5317.78 1499.95 5320.86 1516.5 5327.02 1530.35C5333.95 1544.21 5343.96 1554.99 5357.04 1562.68C5370.13 1570.38 5385.9 1574.23 5404.38 1574.23C5430.55 1574.23 5451.33 1566.15 5466.73 1549.98C5482.12 1533.05 5489.82 1509.96 5489.82 1480.71V1157.42H5666.47V1481.86C5666.47 1531.12 5655.31 1574.61 5632.99 1612.33C5610.67 1649.28 5579.88 1678.53 5540.62 1700.08C5501.36 1720.86 5455.95 1731.25 5404.38 1731.25Z" fill="white"/>
<path d="M4718.14 1718.63V1109C4718.14 1063.59 4728.15 1022.79 4748.16 986.617C4768.94 949.67 4797.81 920.805 4834.75 900.023C4871.7 878.47 4915.58 867.694 4966.38 867.694C5004.87 867.694 5038.35 874.237 5066.83 887.322C5096.08 899.638 5121.48 916.957 5143.03 939.279L5032.19 1050.12C5024.49 1042.42 5015.64 1036.65 5005.63 1032.8C4996.4 1028.18 4985.24 1025.87 4972.15 1025.87C4948.29 1025.87 4929.43 1032.8 4915.58 1046.66C4901.72 1060.51 4894.79 1079.37 4894.79 1103.23V1718.63H4718.14ZM4594.6 1307.59V1157.5H5056.44V1307.59H4594.6Z" fill="white"/>
<path d="M4210.33 1730.79C4152.6 1730.79 4100.26 1718.08 4053.3 1692.68C4007.12 1666.51 3970.56 1631.11 3943.62 1586.46C3916.68 1541.82 3903.21 1491.78 3903.21 1436.36C3903.21 1380.94 3916.68 1331.3 3943.62 1287.42C3970.56 1243.55 4007.12 1208.91 4053.3 1183.51C4099.49 1157.34 4151.83 1144.25 4210.33 1144.25C4268.83 1144.25 4321.17 1156.95 4367.35 1182.35C4413.54 1207.75 4450.1 1242.78 4477.04 1287.42C4503.98 1331.3 4517.45 1380.94 4517.45 1436.36C4517.45 1491.78 4503.98 1541.82 4477.04 1586.46C4450.1 1631.11 4413.54 1666.51 4367.35 1692.68C4321.17 1718.08 4268.83 1730.79 4210.33 1730.79ZM4210.33 1570.3C4235.73 1570.3 4258.05 1564.91 4277.29 1554.13C4296.54 1542.59 4311.16 1526.81 4321.17 1506.79C4331.94 1486.01 4337.33 1462.53 4337.33 1436.36C4337.33 1410.19 4331.94 1387.49 4321.17 1368.24C4310.39 1348.23 4295.38 1332.84 4276.14 1322.06C4257.66 1310.51 4235.73 1304.74 4210.33 1304.74C4185.7 1304.74 4163.76 1310.51 4144.51 1322.06C4125.27 1332.84 4110.26 1348.23 4099.49 1368.24C4088.71 1388.26 4083.32 1411.35 4083.32 1437.52C4083.32 1462.92 4088.71 1486.01 4099.49 1506.79C4110.26 1526.81 4125.27 1542.59 4144.51 1554.13C4163.76 1564.91 4185.7 1570.3 4210.33 1570.3Z" fill="white"/>
<path d="M3562.45 1715.76V912.163H3743.72V1715.76H3562.45ZM3307.29 1058.8V900.618H3991.07V1058.8H3307.29Z" fill="white"/>
<path d="M5628.57 815.79C5628.58 815.675 5628.59 815.559 5628.6 815.443C5629.85 798.693 5618.81 778.774 5603.94 770.953C5589.08 763.133 5576.02 770.371 5574.77 787.121C5574.76 787.238 5574.75 787.354 5574.74 787.471L5628.57 815.79Z" fill="white"/>
<path d="M5713.28 864.701C5713.29 864.585 5713.29 864.47 5713.3 864.353C5714.55 847.603 5703.51 827.685 5688.65 819.864C5673.78 812.043 5660.72 819.282 5659.47 836.032C5659.46 836.148 5659.46 836.265 5659.45 836.382L5713.28 864.701Z" fill="white"/>
<path fill-rule="evenodd" clip-rule="evenodd" d="M5822.99 405.894C5809.16 398.296 5792.42 398.296 5778.59 405.894L5551.11 530.926C5550.92 531.03 5550.74 531.135 5550.55 531.241L5520.6 547.703C5505.86 555.801 5496.71 571.278 5496.71 588.088V869.319C5496.71 886.13 5505.86 901.607 5520.6 909.704L5750.23 1035.92C5750.53 1036.08 5750.83 1036.24 5751.13 1036.4L5778.59 1051.5C5792.42 1059.09 5809.16 1059.09 5822.99 1051.5L5850.52 1036.36C5850.8 1036.22 5851.07 1036.07 5851.34 1035.92L6080.98 909.704C6095.71 901.607 6104.87 886.13 6104.87 869.319V588.089C6104.87 571.278 6095.71 555.801 6080.98 547.703L6051.13 531.297C6050.91 531.172 6050.69 531.048 6050.47 530.926L5822.99 405.894ZM6069.42 619.255C6069.42 616.505 6068.42 614.097 6066.81 612.27C6068.41 614.096 6069.41 616.499 6069.41 619.243V838.632C6069.41 838.554 6069.41 838.476 6069.41 838.397C6069.42 838.359 6069.42 838.321 6069.42 838.282C6069.42 838.239 6069.42 838.196 6069.42 838.152V619.255ZM5834.26 1004.84C5829.58 1007.42 5824.21 1006.06 5821.1 1002.51C5824.12 1005.97 5829.29 1007.35 5833.87 1005.06L6033.39 895.399C6033.5 895.338 6033.61 895.275 6033.72 895.21L5834.26 1004.84ZM6037.35 565.743C6040.28 570.535 6039.07 577.281 6033.7 580.453L5818.52 698.729V698.719L5805.91 705.651C5802.72 707.404 5798.85 707.404 5795.66 705.651L5783.06 698.726V698.729L5567.93 580.482C5566.4 579.592 5565.21 578.416 5564.35 577.079C5561.2 572.185 5562.47 565.116 5568.18 561.979L5795.66 436.947C5798.85 435.194 5802.72 435.194 5805.91 436.947L6033.39 561.979C6034.93 562.831 6036.16 563.972 6037.05 565.28C6037.16 565.432 6037.26 565.586 6037.35 565.743ZM5767.31 1004.84C5767.37 1004.88 5767.43 1004.91 5767.49 1004.94L5767.74 1005.08C5774.65 1008.5 5782.84 1003.6 5783.06 995.853L5783.06 995.713C5783.06 995.65 5783.06 995.588 5783.06 995.525V745.461C5783.06 741.582 5780.95 738.01 5777.55 736.141L5547.91 609.923C5540.83 606.028 5532.16 611.156 5532.16 619.243V869.307C5532.16 873.186 5534.27 876.758 5537.67 878.627L5767.31 1004.84Z" fill="white"/>
</svg>
